<svg width="32" height="32" viewBox="0 0 100 100" fill="none" xmlns="http://www.w3.org/2000/svg">
  <!-- Outer circle -->
  <circle cx="50" cy="50" r="48" stroke="#1a4d3a" stroke-width="3" fill="none"/>
  
  <!-- Main trunk -->
  <line x1="50" y1="85" x2="50" y2="25" stroke="#1a4d3a" stroke-width="2.5"/>
  
  <!-- Root base -->
  <line x1="45" y1="85" x2="55" y2="85" stroke="#1a4d3a" stroke-width="2.5"/>
  
  <!-- Top branches -->
  <line x1="50" y1="30" x2="35" y2="20" stroke="#1a4d3a" stroke-width="2"/>
  <line x1="50" y1="30" x2="65" y2="20" stroke="#1a4d3a" stroke-width="2"/>
  <line x1="50" y1="30" x2="50" y2="15" stroke="#1a4d3a" stroke-width="2"/>
  
  <!-- Middle level branches -->
  <line x1="50" y1="45" x2="25" y2="35" stroke="#1a4d3a" stroke-width="2"/>
  <line x1="50" y1="45" x2="75" y2="35" stroke="#1a4d3a" stroke-width="2"/>
  
  <!-- Right side sub-branches -->
  <line x1="75" y1="35" x2="85" y2="25" stroke="#1a4d3a" stroke-width="1.5"/>
  <line x1="75" y1="35" x2="85" y2="45" stroke="#1a4d3a" stroke-width="1.5"/>
  
  <!-- Lower branches -->
  <line x1="50" y1="60" x2="30" y2="70" stroke="#1a4d3a" stroke-width="2"/>
  <line x1="50" y1="60" x2="70" y2="70" stroke="#1a4d3a" stroke-width="2"/>
  
  <!-- Decision nodes (circles) -->
  <circle cx="50" cy="15" r="3" fill="#1a4d3a"/>
  <circle cx="35" cy="20" r="3" fill="#1a4d3a"/>
  <circle cx="65" cy="20" r="3" fill="#1a4d3a"/>
  <circle cx="25" cy="35" r="3" fill="#1a4d3a"/>
  <circle cx="75" cy="35" r="3" fill="#1a4d3a"/>
  <circle cx="85" cy="25" r="3" fill="#1a4d3a"/>
  <circle cx="85" cy="45" r="3" fill="#1a4d3a"/>
  <circle cx="30" cy="70" r="3" fill="#1a4d3a"/>
  <circle cx="70" cy="70" r="3" fill="#1a4d3a"/>
  
  <!-- Central decision nodes -->
  <circle cx="50" cy="30" r="3" fill="#1a4d3a"/>
  <circle cx="50" cy="45" r="3" fill="#1a4d3a"/>
  <circle cx="50" cy="60" r="3" fill="#1a4d3a"/>
</svg>