<?xml version="1.0" encoding="UTF-8"?>
<svg xmlns="http://www.w3.org/2000/svg" xmlns:xlink="http://www.w3.org/1999/xlink" width="1400" height="900" viewBox="0 0 1400 900">
<defs>
<clipPath id="clip-0-83d9bca3">
<path clip-rule="nonzero" d="M 882 16 L 957 16 L 957 153 L 882 153 Z M 882 16 "/>
</clipPath>
<clipPath id="clip-1-83d9bca3">
<path clip-rule="nonzero" d="M 953 148 L 1384 148 L 1384 153 L 953 153 Z M 953 148 "/>
</clipPath>
<clipPath id="clip-2-83d9bca3">
<path clip-rule="nonzero" d="M 16 148 L 957 148 L 957 153 L 16 153 Z M 16 148 "/>
</clipPath>
<clipPath id="clip-3-83d9bca3">
<path clip-rule="nonzero" d="M 882 16 L 957 16 L 957 153 L 882 153 Z M 882 16 "/>
</clipPath>
<clipPath id="clip-4-83d9bca3">
<path clip-rule="nonzero" d="M 953 148 L 1384 148 L 1384 153 L 953 153 Z M 953 148 "/>
</clipPath>
<clipPath id="clip-5-83d9bca3">
<path clip-rule="nonzero" d="M 1019 350 L 1384 350 L 1384 355 L 1019 355 Z M 1019 350 "/>
</clipPath>
<clipPath id="clip-6-83d9bca3">
<path clip-rule="nonzero" d="M 16 148 L 957 148 L 957 153 L 16 153 Z M 16 148 "/>
</clipPath>
<clipPath id="clip-7-83d9bca3">
<path clip-rule="nonzero" d="M 16 350 L 1023 350 L 1023 355 L 16 355 Z M 16 350 "/>
</clipPath>
<clipPath id="clip-8-83d9bca3">
<path clip-rule="nonzero" d="M 1019 350 L 1384 350 L 1384 355 L 1019 355 Z M 1019 350 "/>
</clipPath>
<clipPath id="clip-9-83d9bca3">
<path clip-rule="nonzero" d="M 1048 545 L 1384 545 L 1384 550 L 1048 550 Z M 1048 545 "/>
</clipPath>
<clipPath id="clip-10-83d9bca3">
<path clip-rule="nonzero" d="M 16 350 L 1023 350 L 1023 355 L 16 355 Z M 16 350 "/>
</clipPath>
<clipPath id="clip-11-83d9bca3">
<path clip-rule="nonzero" d="M 16 545 L 1053 545 L 1053 550 L 16 550 Z M 16 545 "/>
</clipPath>
<clipPath id="clip-12-83d9bca3">
<path clip-rule="nonzero" d="M 1048 545 L 1384 545 L 1384 550 L 1048 550 Z M 1048 545 "/>
</clipPath>
<clipPath id="clip-13-83d9bca3">
<path clip-rule="nonzero" d="M 1054 747 L 1384 747 L 1384 751 L 1054 751 Z M 1054 747 "/>
</clipPath>
<clipPath id="clip-14-83d9bca3">
<path clip-rule="nonzero" d="M 16 545 L 1053 545 L 1053 550 L 16 550 Z M 16 545 "/>
</clipPath>
<clipPath id="clip-15-83d9bca3">
<path clip-rule="nonzero" d="M 16 747 L 1058 747 L 1058 752 L 16 752 Z M 16 747 "/>
</clipPath>
<clipPath id="clip-16-83d9bca3">
<path clip-rule="nonzero" d="M 1054 747 L 1384 747 L 1384 751 L 1054 751 Z M 1054 747 "/>
</clipPath>
<clipPath id="clip-17-83d9bca3">
<path clip-rule="nonzero" d="M 1045 747 L 1058 747 L 1058 884 L 1045 884 Z M 1045 747 "/>
</clipPath>
<clipPath id="clip-18-83d9bca3">
<path clip-rule="nonzero" d="M 16 747 L 1058 747 L 1058 752 L 16 752 Z M 16 747 "/>
</clipPath>
<clipPath id="clip-19-83d9bca3">
<path clip-rule="nonzero" d="M 1045 747 L 1058 747 L 1058 884 L 1045 884 Z M 1045 747 "/>
</clipPath>
</defs>
<g clip-path="url(#clip-0-83d9bca3)">
<path fill="none" stroke-width="1" stroke-linecap="butt" stroke-linejoin="miter" stroke="rgb(0%, 0%, 0%)" stroke-opacity="1" stroke-miterlimit="1.154701" d="M 884.09375 16 L 955.117188 150.558594 "/>
</g>
<g clip-path="url(#clip-1-83d9bca3)">
<path fill="none" stroke-width="1" stroke-linecap="butt" stroke-linejoin="miter" stroke="rgb(0%, 0%, 0%)" stroke-opacity="1" stroke-miterlimit="1.154701" d="M 955.117188 150.558594 L 1384 151.058594 "/>
</g>
<g clip-path="url(#clip-2-83d9bca3)">
<path fill="none" stroke-width="1" stroke-linecap="butt" stroke-linejoin="miter" stroke="rgb(0%, 0%, 0%)" stroke-opacity="1" stroke-miterlimit="1.154701" d="M 16 149.699219 L 955.117188 150.558594 "/>
</g>
<g clip-path="url(#clip-3-83d9bca3)">
<path fill="none" stroke-width="1" stroke-linecap="butt" stroke-linejoin="miter" stroke="rgb(0%, 0%, 0%)" stroke-opacity="1" stroke-miterlimit="1.154701" d="M 955.117188 150.558594 L 884.09375 16 "/>
</g>
<g clip-path="url(#clip-4-83d9bca3)">
<path fill="none" stroke-width="1" stroke-linecap="butt" stroke-linejoin="miter" stroke="rgb(0%, 0%, 0%)" stroke-opacity="1" stroke-miterlimit="1.154701" d="M 1384 151.058594 L 955.117188 150.558594 "/>
</g>
<path fill="none" stroke-width="1" stroke-linecap="butt" stroke-linejoin="miter" stroke="rgb(0%, 0%, 0%)" stroke-opacity="1" stroke-miterlimit="1.154701" d="M 955.117188 150.558594 L 1021.363281 352.558594 "/>
<g clip-path="url(#clip-5-83d9bca3)">
<path fill="none" stroke-width="1" stroke-linecap="butt" stroke-linejoin="miter" stroke="rgb(0%, 0%, 0%)" stroke-opacity="1" stroke-miterlimit="1.154701" d="M 1021.363281 352.558594 L 1384 352.695312 "/>
</g>
<g clip-path="url(#clip-6-83d9bca3)">
<path fill="none" stroke-width="1" stroke-linecap="butt" stroke-linejoin="miter" stroke="rgb(0%, 0%, 0%)" stroke-opacity="1" stroke-miterlimit="1.154701" d="M 955.117188 150.558594 L 16 149.699219 "/>
</g>
<g clip-path="url(#clip-7-83d9bca3)">
<path fill="none" stroke-width="1" stroke-linecap="butt" stroke-linejoin="miter" stroke="rgb(0%, 0%, 0%)" stroke-opacity="1" stroke-miterlimit="1.154701" d="M 16 352.257812 L 1021.363281 352.558594 "/>
</g>
<path fill="none" stroke-width="1" stroke-linecap="butt" stroke-linejoin="miter" stroke="rgb(0%, 0%, 0%)" stroke-opacity="1" stroke-miterlimit="1.154701" d="M 1021.363281 352.558594 L 955.117188 150.558594 "/>
<g clip-path="url(#clip-8-83d9bca3)">
<path fill="none" stroke-width="1" stroke-linecap="butt" stroke-linejoin="miter" stroke="rgb(0%, 0%, 0%)" stroke-opacity="1" stroke-miterlimit="1.154701" d="M 1384 352.695312 L 1021.363281 352.558594 "/>
</g>
<path fill="none" stroke-width="1" stroke-linecap="butt" stroke-linejoin="miter" stroke="rgb(0%, 0%, 0%)" stroke-opacity="1" stroke-miterlimit="1.154701" d="M 1021.363281 352.558594 L 1050.605469 547.398438 "/>
<g clip-path="url(#clip-9-83d9bca3)">
<path fill="none" stroke-width="1" stroke-linecap="butt" stroke-linejoin="miter" stroke="rgb(0%, 0%, 0%)" stroke-opacity="1" stroke-miterlimit="1.154701" d="M 1050.605469 547.398438 L 1384 547.277344 "/>
</g>
<g clip-path="url(#clip-10-83d9bca3)">
<path fill="none" stroke-width="1" stroke-linecap="butt" stroke-linejoin="miter" stroke="rgb(0%, 0%, 0%)" stroke-opacity="1" stroke-miterlimit="1.154701" d="M 1021.363281 352.558594 L 16 352.257812 "/>
</g>
<g clip-path="url(#clip-11-83d9bca3)">
<path fill="none" stroke-width="1" stroke-linecap="butt" stroke-linejoin="miter" stroke="rgb(0%, 0%, 0%)" stroke-opacity="1" stroke-miterlimit="1.154701" d="M 16 547.710938 L 1050.605469 547.398438 "/>
</g>
<path fill="none" stroke-width="1" stroke-linecap="butt" stroke-linejoin="miter" stroke="rgb(0%, 0%, 0%)" stroke-opacity="1" stroke-miterlimit="1.154701" d="M 1050.605469 547.398438 L 1021.363281 352.558594 "/>
<g clip-path="url(#clip-12-83d9bca3)">
<path fill="none" stroke-width="1" stroke-linecap="butt" stroke-linejoin="miter" stroke="rgb(0%, 0%, 0%)" stroke-opacity="1" stroke-miterlimit="1.154701" d="M 1384 547.277344 L 1050.605469 547.398438 "/>
</g>
<path fill="none" stroke-width="1" stroke-linecap="butt" stroke-linejoin="miter" stroke="rgb(0%, 0%, 0%)" stroke-opacity="1" stroke-miterlimit="1.154701" d="M 1050.605469 547.398438 L 1055.808594 749.054688 "/>
<g clip-path="url(#clip-13-83d9bca3)">
<path fill="none" stroke-width="1" stroke-linecap="butt" stroke-linejoin="miter" stroke="rgb(0%, 0%, 0%)" stroke-opacity="1" stroke-miterlimit="1.154701" d="M 1055.808594 749.054688 L 1384 748.683594 "/>
</g>
<g clip-path="url(#clip-14-83d9bca3)">
<path fill="none" stroke-width="1" stroke-linecap="butt" stroke-linejoin="miter" stroke="rgb(0%, 0%, 0%)" stroke-opacity="1" stroke-miterlimit="1.154701" d="M 1050.605469 547.398438 L 16 547.710938 "/>
</g>
<g clip-path="url(#clip-15-83d9bca3)">
<path fill="none" stroke-width="1" stroke-linecap="butt" stroke-linejoin="miter" stroke="rgb(0%, 0%, 0%)" stroke-opacity="1" stroke-miterlimit="1.154701" d="M 16 750.03125 L 1055.808594 749.054688 "/>
</g>
<path fill="none" stroke-width="1" stroke-linecap="butt" stroke-linejoin="miter" stroke="rgb(0%, 0%, 0%)" stroke-opacity="1" stroke-miterlimit="1.154701" d="M 1055.808594 749.054688 L 1050.605469 547.398438 "/>
<g clip-path="url(#clip-16-83d9bca3)">
<path fill="none" stroke-width="1" stroke-linecap="butt" stroke-linejoin="miter" stroke="rgb(0%, 0%, 0%)" stroke-opacity="1" stroke-miterlimit="1.154701" d="M 1384 748.683594 L 1055.808594 749.054688 "/>
</g>
<g clip-path="url(#clip-17-83d9bca3)">
<path fill="none" stroke-width="1" stroke-linecap="butt" stroke-linejoin="miter" stroke="rgb(0%, 0%, 0%)" stroke-opacity="1" stroke-miterlimit="1.154701" d="M 1055.808594 749.054688 L 1047.261719 884 "/>
</g>
<g clip-path="url(#clip-18-83d9bca3)">
<path fill="none" stroke-width="1" stroke-linecap="butt" stroke-linejoin="miter" stroke="rgb(0%, 0%, 0%)" stroke-opacity="1" stroke-miterlimit="1.154701" d="M 1055.808594 749.054688 L 16 750.03125 "/>
</g>
<g clip-path="url(#clip-19-83d9bca3)">
<path fill="none" stroke-width="1" stroke-linecap="butt" stroke-linejoin="miter" stroke="rgb(0%, 0%, 0%)" stroke-opacity="1" stroke-miterlimit="1.154701" d="M 1047.261719 884 L 1055.808594 749.054688 "/>
</g>
<path fill="none" stroke-width="1" stroke-linecap="butt" stroke-linejoin="miter" stroke="rgb(0%, 0%, 0%)" stroke-opacity="1" stroke-miterlimit="1.154701" d="M 1094.0625 150.496094 L 1094.0625 150.496094 "/>
<path fill="none" stroke-width="1" stroke-linecap="butt" stroke-linejoin="miter" stroke="rgb(0%, 0%, 0%)" stroke-opacity="1" stroke-miterlimit="1.154701" d="M 103.398438 149.480469 L 103.398438 149.480469 "/>
<path fill="none" stroke-width="1" stroke-linecap="butt" stroke-linejoin="miter" stroke="rgb(0%, 0%, 0%)" stroke-opacity="1" stroke-miterlimit="1.154701" d="M 1163.488281 352.480469 L 1163.488281 352.480469 "/>
<path fill="none" stroke-width="1" stroke-linecap="butt" stroke-linejoin="miter" stroke="rgb(0%, 0%, 0%)" stroke-opacity="1" stroke-miterlimit="1.154701" d="M 1094.0625 150.496094 L 1094.0625 150.496094 "/>
<path fill="none" stroke-width="1" stroke-linecap="butt" stroke-linejoin="miter" stroke="rgb(0%, 0%, 0%)" stroke-opacity="1" stroke-miterlimit="1.154701" d="M 1044.441406 352.441406 L 1044.441406 352.441406 "/>
<path fill="none" stroke-width="1" stroke-linecap="butt" stroke-linejoin="miter" stroke="rgb(0%, 0%, 0%)" stroke-opacity="1" stroke-miterlimit="1.154701" d="M 1363.46875 352.546875 L 1363.46875 352.546875 "/>
<path fill="none" stroke-width="1" stroke-linecap="butt" stroke-linejoin="miter" stroke="rgb(0%, 0%, 0%)" stroke-opacity="1" stroke-miterlimit="1.154701" d="M 103.398438 149.480469 L 103.398438 149.480469 "/>
<path fill="none" stroke-width="1" stroke-linecap="butt" stroke-linejoin="miter" stroke="rgb(0%, 0%, 0%)" stroke-opacity="1" stroke-miterlimit="1.154701" d="M 1163.488281 352.480469 L 1163.488281 352.480469 "/>
<path fill="none" stroke-width="1" stroke-linecap="butt" stroke-linejoin="miter" stroke="rgb(0%, 0%, 0%)" stroke-opacity="1" stroke-miterlimit="1.154701" d="M 1198.210938 547.507812 L 1198.210938 547.507812 "/>
<path fill="none" stroke-width="1" stroke-linecap="butt" stroke-linejoin="miter" stroke="rgb(0%, 0%, 0%)" stroke-opacity="1" stroke-miterlimit="1.154701" d="M 1044.441406 352.441406 L 1044.441406 352.441406 "/>
<path fill="none" stroke-width="1" stroke-linecap="butt" stroke-linejoin="miter" stroke="rgb(0%, 0%, 0%)" stroke-opacity="1" stroke-miterlimit="1.154701" d="M 1363.46875 352.546875 L 1363.46875 352.546875 "/>
<path fill="none" stroke-width="1" stroke-linecap="butt" stroke-linejoin="miter" stroke="rgb(0%, 0%, 0%)" stroke-opacity="1" stroke-miterlimit="1.154701" d="M 726.808594 547.664062 L 726.808594 547.664062 "/>
<path fill="none" stroke-width="1" stroke-linecap="butt" stroke-linejoin="miter" stroke="rgb(0%, 0%, 0%)" stroke-opacity="1" stroke-miterlimit="1.154701" d="M 1198.210938 547.507812 L 1198.210938 547.507812 "/>
<path fill="none" stroke-width="1" stroke-linecap="butt" stroke-linejoin="miter" stroke="rgb(0%, 0%, 0%)" stroke-opacity="1" stroke-miterlimit="1.154701" d="M 809.660156 749.792969 L 809.660156 749.792969 "/>
<path fill="none" stroke-width="1" stroke-linecap="butt" stroke-linejoin="miter" stroke="rgb(0%, 0%, 0%)" stroke-opacity="1" stroke-miterlimit="1.154701" d="M 844.523438 749.757812 L 844.523438 749.757812 "/>
<path fill="none" stroke-width="1" stroke-linecap="butt" stroke-linejoin="miter" stroke="rgb(0%, 0%, 0%)" stroke-opacity="1" stroke-miterlimit="1.154701" d="M 726.808594 547.664062 L 726.808594 547.664062 "/>
<path fill="none" stroke-width="1" stroke-linecap="butt" stroke-linejoin="miter" stroke="rgb(0%, 0%, 0%)" stroke-opacity="1" stroke-miterlimit="1.154701" d="M 1130.398438 749.464844 L 1130.398438 749.464844 "/>
<path fill="none" stroke-width="1" stroke-linecap="butt" stroke-linejoin="miter" stroke="rgb(0%, 0%, 0%)" stroke-opacity="1" stroke-miterlimit="1.154701" d="M 247.464844 750.371094 L 247.464844 750.371094 "/>
<path fill="none" stroke-width="1" stroke-linecap="butt" stroke-linejoin="miter" stroke="rgb(0%, 0%, 0%)" stroke-opacity="1" stroke-miterlimit="1.154701" d="M 298.53125 750.320312 L 298.53125 750.320312 "/>
<path fill="none" stroke-width="1" stroke-linecap="butt" stroke-linejoin="miter" stroke="rgb(0%, 0%, 0%)" stroke-opacity="1" stroke-miterlimit="1.154701" d="M 809.660156 749.792969 L 809.660156 749.792969 "/>
<path fill="none" stroke-width="1" stroke-linecap="butt" stroke-linejoin="miter" stroke="rgb(0%, 0%, 0%)" stroke-opacity="1" stroke-miterlimit="1.154701" d="M 844.523438 749.757812 L 844.523438 749.757812 "/>
<path fill="none" stroke-width="1" stroke-linecap="butt" stroke-linejoin="miter" stroke="rgb(0%, 0%, 0%)" stroke-opacity="1" stroke-miterlimit="1.154701" d="M 1130.398438 749.464844 L 1130.398438 749.464844 "/>
<path fill="none" stroke-width="1" stroke-linecap="butt" stroke-linejoin="miter" stroke="rgb(0%, 0%, 0%)" stroke-opacity="1" stroke-miterlimit="1.154701" d="M 247.464844 750.371094 L 247.464844 750.371094 "/>
<path fill="none" stroke-width="1" stroke-linecap="butt" stroke-linejoin="miter" stroke="rgb(0%, 0%, 0%)" stroke-opacity="1" stroke-miterlimit="1.154701" d="M 298.53125 750.320312 L 298.53125 750.320312 "/>
</svg>
