<?xml version="1.0" encoding="UTF-8"?>
<svg xmlns="http://www.w3.org/2000/svg" xmlns:xlink="http://www.w3.org/1999/xlink" width="1400" height="900" viewBox="0 0 1400 900">
<defs>
<clipPath id="clip-0-e97f166c">
<path clip-rule="nonzero" d="M 817 16 L 898 16 L 898 152 L 817 152 Z M 817 16 "/>
</clipPath>
<clipPath id="clip-1-e97f166c">
<path clip-rule="nonzero" d="M 894 148 L 1384 148 L 1384 152 L 894 152 Z M 894 148 "/>
</clipPath>
<clipPath id="clip-2-e97f166c">
<path clip-rule="nonzero" d="M 16 148 L 898 148 L 898 153 L 16 153 Z M 16 148 "/>
</clipPath>
<clipPath id="clip-3-e97f166c">
<path clip-rule="nonzero" d="M 817 16 L 898 16 L 898 152 L 817 152 Z M 817 16 "/>
</clipPath>
<clipPath id="clip-4-e97f166c">
<path clip-rule="nonzero" d="M 894 148 L 1384 148 L 1384 152 L 894 152 Z M 894 148 "/>
</clipPath>
<clipPath id="clip-5-e97f166c">
<path clip-rule="nonzero" d="M 968 350 L 1384 350 L 1384 354 L 968 354 Z M 968 350 "/>
</clipPath>
<clipPath id="clip-6-e97f166c">
<path clip-rule="nonzero" d="M 16 148 L 898 148 L 898 153 L 16 153 Z M 16 148 "/>
</clipPath>
<clipPath id="clip-7-e97f166c">
<path clip-rule="nonzero" d="M 16 350 L 972 350 L 972 355 L 16 355 Z M 16 350 "/>
</clipPath>
<clipPath id="clip-8-e97f166c">
<path clip-rule="nonzero" d="M 968 350 L 1384 350 L 1384 354 L 968 354 Z M 968 350 "/>
</clipPath>
<clipPath id="clip-9-e97f166c">
<path clip-rule="nonzero" d="M 1001 545 L 1384 545 L 1384 550 L 1001 550 Z M 1001 545 "/>
</clipPath>
<clipPath id="clip-10-e97f166c">
<path clip-rule="nonzero" d="M 16 350 L 972 350 L 972 355 L 16 355 Z M 16 350 "/>
</clipPath>
<clipPath id="clip-11-e97f166c">
<path clip-rule="nonzero" d="M 16 545 L 1006 545 L 1006 550 L 16 550 Z M 16 545 "/>
</clipPath>
<clipPath id="clip-12-e97f166c">
<path clip-rule="nonzero" d="M 1001 545 L 1384 545 L 1384 550 L 1001 550 Z M 1001 545 "/>
</clipPath>
<clipPath id="clip-13-e97f166c">
<path clip-rule="nonzero" d="M 1007 748 L 1384 748 L 1384 752 L 1007 752 Z M 1007 748 "/>
</clipPath>
<clipPath id="clip-14-e97f166c">
<path clip-rule="nonzero" d="M 16 545 L 1006 545 L 1006 550 L 16 550 Z M 16 545 "/>
</clipPath>
<clipPath id="clip-15-e97f166c">
<path clip-rule="nonzero" d="M 16 746 L 1011 746 L 1011 752 L 16 752 Z M 16 746 "/>
</clipPath>
<clipPath id="clip-16-e97f166c">
<path clip-rule="nonzero" d="M 1007 748 L 1384 748 L 1384 752 L 1007 752 Z M 1007 748 "/>
</clipPath>
<clipPath id="clip-17-e97f166c">
<path clip-rule="nonzero" d="M 996 748 L 1011 748 L 1011 884 L 996 884 Z M 996 748 "/>
</clipPath>
<clipPath id="clip-18-e97f166c">
<path clip-rule="nonzero" d="M 16 746 L 1011 746 L 1011 752 L 16 752 Z M 16 746 "/>
</clipPath>
<clipPath id="clip-19-e97f166c">
<path clip-rule="nonzero" d="M 996 748 L 1011 748 L 1011 884 L 996 884 Z M 996 748 "/>
</clipPath>
</defs>
<g clip-path="url(#clip-0-e97f166c)">
<path fill="none" stroke-width="1" stroke-linecap="butt" stroke-linejoin="miter" stroke="rgb(0%, 0%, 0%)" stroke-opacity="1" stroke-miterlimit="1.154701" d="M 818.910156 16 L 896.015625 150.09375 "/>
</g>
<g clip-path="url(#clip-1-e97f166c)">
<path fill="none" stroke-width="1" stroke-linecap="butt" stroke-linejoin="miter" stroke="rgb(0%, 0%, 0%)" stroke-opacity="1" stroke-miterlimit="1.154701" d="M 896.015625 150.09375 L 1384 149.65625 "/>
</g>
<g clip-path="url(#clip-2-e97f166c)">
<path fill="none" stroke-width="1" stroke-linecap="butt" stroke-linejoin="miter" stroke="rgb(0%, 0%, 0%)" stroke-opacity="1" stroke-miterlimit="1.154701" d="M 16 151.105469 L 896.015625 150.09375 "/>
</g>
<g clip-path="url(#clip-3-e97f166c)">
<path fill="none" stroke-width="1" stroke-linecap="butt" stroke-linejoin="miter" stroke="rgb(0%, 0%, 0%)" stroke-opacity="1" stroke-miterlimit="1.154701" d="M 896.015625 150.09375 L 818.910156 16 "/>
</g>
<g clip-path="url(#clip-4-e97f166c)">
<path fill="none" stroke-width="1" stroke-linecap="butt" stroke-linejoin="miter" stroke="rgb(0%, 0%, 0%)" stroke-opacity="1" stroke-miterlimit="1.154701" d="M 1384 149.65625 L 896.015625 150.09375 "/>
</g>
<path fill="none" stroke-width="1" stroke-linecap="butt" stroke-linejoin="miter" stroke="rgb(0%, 0%, 0%)" stroke-opacity="1" stroke-miterlimit="1.154701" d="M 896.015625 150.09375 L 969.984375 352.359375 "/>
<g clip-path="url(#clip-5-e97f166c)">
<path fill="none" stroke-width="1" stroke-linecap="butt" stroke-linejoin="miter" stroke="rgb(0%, 0%, 0%)" stroke-opacity="1" stroke-miterlimit="1.154701" d="M 969.984375 352.359375 L 1384 352.238281 "/>
</g>
<g clip-path="url(#clip-6-e97f166c)">
<path fill="none" stroke-width="1" stroke-linecap="butt" stroke-linejoin="miter" stroke="rgb(0%, 0%, 0%)" stroke-opacity="1" stroke-miterlimit="1.154701" d="M 896.015625 150.09375 L 16 151.105469 "/>
</g>
<g clip-path="url(#clip-7-e97f166c)">
<path fill="none" stroke-width="1" stroke-linecap="butt" stroke-linejoin="miter" stroke="rgb(0%, 0%, 0%)" stroke-opacity="1" stroke-miterlimit="1.154701" d="M 16 352.714844 L 969.984375 352.359375 "/>
</g>
<path fill="none" stroke-width="1" stroke-linecap="butt" stroke-linejoin="miter" stroke="rgb(0%, 0%, 0%)" stroke-opacity="1" stroke-miterlimit="1.154701" d="M 969.984375 352.359375 L 896.015625 150.09375 "/>
<g clip-path="url(#clip-8-e97f166c)">
<path fill="none" stroke-width="1" stroke-linecap="butt" stroke-linejoin="miter" stroke="rgb(0%, 0%, 0%)" stroke-opacity="1" stroke-miterlimit="1.154701" d="M 1384 352.238281 L 969.984375 352.359375 "/>
</g>
<path fill="none" stroke-width="1" stroke-linecap="butt" stroke-linejoin="miter" stroke="rgb(0%, 0%, 0%)" stroke-opacity="1" stroke-miterlimit="1.154701" d="M 969.984375 352.359375 L 1003.429688 547.621094 "/>
<g clip-path="url(#clip-9-e97f166c)">
<path fill="none" stroke-width="1" stroke-linecap="butt" stroke-linejoin="miter" stroke="rgb(0%, 0%, 0%)" stroke-opacity="1" stroke-miterlimit="1.154701" d="M 1003.429688 547.621094 L 1384 547.734375 "/>
</g>
<g clip-path="url(#clip-10-e97f166c)">
<path fill="none" stroke-width="1" stroke-linecap="butt" stroke-linejoin="miter" stroke="rgb(0%, 0%, 0%)" stroke-opacity="1" stroke-miterlimit="1.154701" d="M 969.984375 352.359375 L 16 352.714844 "/>
</g>
<g clip-path="url(#clip-11-e97f166c)">
<path fill="none" stroke-width="1" stroke-linecap="butt" stroke-linejoin="miter" stroke="rgb(0%, 0%, 0%)" stroke-opacity="1" stroke-miterlimit="1.154701" d="M 16 547.253906 L 1003.429688 547.621094 "/>
</g>
<path fill="none" stroke-width="1" stroke-linecap="butt" stroke-linejoin="miter" stroke="rgb(0%, 0%, 0%)" stroke-opacity="1" stroke-miterlimit="1.154701" d="M 1003.429688 547.621094 L 969.984375 352.359375 "/>
<g clip-path="url(#clip-12-e97f166c)">
<path fill="none" stroke-width="1" stroke-linecap="butt" stroke-linejoin="miter" stroke="rgb(0%, 0%, 0%)" stroke-opacity="1" stroke-miterlimit="1.154701" d="M 1384 547.734375 L 1003.429688 547.621094 "/>
</g>
<path fill="none" stroke-width="1" stroke-linecap="butt" stroke-linejoin="miter" stroke="rgb(0%, 0%, 0%)" stroke-opacity="1" stroke-miterlimit="1.154701" d="M 1003.429688 547.621094 L 1008.988281 749.738281 "/>
<g clip-path="url(#clip-13-e97f166c)">
<path fill="none" stroke-width="1" stroke-linecap="butt" stroke-linejoin="miter" stroke="rgb(0%, 0%, 0%)" stroke-opacity="1" stroke-miterlimit="1.154701" d="M 1008.988281 749.738281 L 1384 750.089844 "/>
</g>
<g clip-path="url(#clip-14-e97f166c)">
<path fill="none" stroke-width="1" stroke-linecap="butt" stroke-linejoin="miter" stroke="rgb(0%, 0%, 0%)" stroke-opacity="1" stroke-miterlimit="1.154701" d="M 1003.429688 547.621094 L 16 547.253906 "/>
</g>
<g clip-path="url(#clip-15-e97f166c)">
<path fill="none" stroke-width="1" stroke-linecap="butt" stroke-linejoin="miter" stroke="rgb(0%, 0%, 0%)" stroke-opacity="1" stroke-miterlimit="1.154701" d="M 16 748.625 L 1008.988281 749.738281 "/>
</g>
<path fill="none" stroke-width="1" stroke-linecap="butt" stroke-linejoin="miter" stroke="rgb(0%, 0%, 0%)" stroke-opacity="1" stroke-miterlimit="1.154701" d="M 1008.988281 749.738281 L 1003.429688 547.621094 "/>
<g clip-path="url(#clip-16-e97f166c)">
<path fill="none" stroke-width="1" stroke-linecap="butt" stroke-linejoin="miter" stroke="rgb(0%, 0%, 0%)" stroke-opacity="1" stroke-miterlimit="1.154701" d="M 1384 750.089844 L 1008.988281 749.738281 "/>
</g>
<g clip-path="url(#clip-17-e97f166c)">
<path fill="none" stroke-width="1" stroke-linecap="butt" stroke-linejoin="miter" stroke="rgb(0%, 0%, 0%)" stroke-opacity="1" stroke-miterlimit="1.154701" d="M 1008.988281 749.738281 L 998.082031 884 "/>
</g>
<g clip-path="url(#clip-18-e97f166c)">
<path fill="none" stroke-width="1" stroke-linecap="butt" stroke-linejoin="miter" stroke="rgb(0%, 0%, 0%)" stroke-opacity="1" stroke-miterlimit="1.154701" d="M 1008.988281 749.738281 L 16 748.625 "/>
</g>
<g clip-path="url(#clip-19-e97f166c)">
<path fill="none" stroke-width="1" stroke-linecap="butt" stroke-linejoin="miter" stroke="rgb(0%, 0%, 0%)" stroke-opacity="1" stroke-miterlimit="1.154701" d="M 998.082031 884 L 1008.988281 749.738281 "/>
</g>
<path fill="none" stroke-width="1" stroke-linecap="butt" stroke-linejoin="miter" stroke="rgb(0%, 0%, 0%)" stroke-opacity="1" stroke-miterlimit="1.154701" d="M 1020.15625 149.765625 L 1020.15625 149.765625 "/>
<path fill="none" stroke-width="1" stroke-linecap="butt" stroke-linejoin="miter" stroke="rgb(0%, 0%, 0%)" stroke-opacity="1" stroke-miterlimit="1.154701" d="M 24.164062 150.789062 L 24.164062 150.789062 "/>
<path fill="none" stroke-width="1" stroke-linecap="butt" stroke-linejoin="miter" stroke="rgb(0%, 0%, 0%)" stroke-opacity="1" stroke-miterlimit="1.154701" d="M 1089.453125 352.195312 L 1089.453125 352.195312 "/>
<path fill="none" stroke-width="1" stroke-linecap="butt" stroke-linejoin="miter" stroke="rgb(0%, 0%, 0%)" stroke-opacity="1" stroke-miterlimit="1.154701" d="M 1020.15625 149.765625 L 1020.15625 149.765625 "/>
<path fill="none" stroke-width="1" stroke-linecap="butt" stroke-linejoin="miter" stroke="rgb(0%, 0%, 0%)" stroke-opacity="1" stroke-miterlimit="1.154701" d="M 971.632812 352.234375 L 971.632812 352.234375 "/>
<path fill="none" stroke-width="1" stroke-linecap="butt" stroke-linejoin="miter" stroke="rgb(0%, 0%, 0%)" stroke-opacity="1" stroke-miterlimit="1.154701" d="M 1307.621094 352.125 L 1307.621094 352.125 "/>
<path fill="none" stroke-width="1" stroke-linecap="butt" stroke-linejoin="miter" stroke="rgb(0%, 0%, 0%)" stroke-opacity="1" stroke-miterlimit="1.154701" d="M 24.164062 150.789062 L 24.164062 150.789062 "/>
<path fill="none" stroke-width="1" stroke-linecap="butt" stroke-linejoin="miter" stroke="rgb(0%, 0%, 0%)" stroke-opacity="1" stroke-miterlimit="1.154701" d="M 1089.453125 352.195312 L 1089.453125 352.195312 "/>
<path fill="none" stroke-width="1" stroke-linecap="butt" stroke-linejoin="miter" stroke="rgb(0%, 0%, 0%)" stroke-opacity="1" stroke-miterlimit="1.154701" d="M 1123.9375 547.816406 L 1123.9375 547.816406 "/>
<path fill="none" stroke-width="1" stroke-linecap="butt" stroke-linejoin="miter" stroke="rgb(0%, 0%, 0%)" stroke-opacity="1" stroke-miterlimit="1.154701" d="M 971.632812 352.234375 L 971.632812 352.234375 "/>
<path fill="none" stroke-width="1" stroke-linecap="butt" stroke-linejoin="miter" stroke="rgb(0%, 0%, 0%)" stroke-opacity="1" stroke-miterlimit="1.154701" d="M 1307.621094 352.125 L 1307.621094 352.125 "/>
<path fill="none" stroke-width="1" stroke-linecap="butt" stroke-linejoin="miter" stroke="rgb(0%, 0%, 0%)" stroke-opacity="1" stroke-miterlimit="1.154701" d="M 658.640625 547.660156 L 658.640625 547.660156 "/>
<path fill="none" stroke-width="1" stroke-linecap="butt" stroke-linejoin="miter" stroke="rgb(0%, 0%, 0%)" stroke-opacity="1" stroke-miterlimit="1.154701" d="M 1123.9375 547.816406 L 1123.9375 547.816406 "/>
<path fill="none" stroke-width="1" stroke-linecap="butt" stroke-linejoin="miter" stroke="rgb(0%, 0%, 0%)" stroke-opacity="1" stroke-miterlimit="1.154701" d="M 740.550781 749.949219 L 740.550781 749.949219 "/>
<path fill="none" stroke-width="1" stroke-linecap="butt" stroke-linejoin="miter" stroke="rgb(0%, 0%, 0%)" stroke-opacity="1" stroke-miterlimit="1.154701" d="M 774.769531 749.984375 L 774.769531 749.984375 "/>
<path fill="none" stroke-width="1" stroke-linecap="butt" stroke-linejoin="miter" stroke="rgb(0%, 0%, 0%)" stroke-opacity="1" stroke-miterlimit="1.154701" d="M 658.640625 547.660156 L 658.640625 547.660156 "/>
<path fill="none" stroke-width="1" stroke-linecap="butt" stroke-linejoin="miter" stroke="rgb(0%, 0%, 0%)" stroke-opacity="1" stroke-miterlimit="1.154701" d="M 1069.039062 750.285156 L 1069.039062 750.285156 "/>
<path fill="none" stroke-width="1" stroke-linecap="butt" stroke-linejoin="miter" stroke="rgb(0%, 0%, 0%)" stroke-opacity="1" stroke-miterlimit="1.154701" d="M 172.035156 749.363281 L 172.035156 749.363281 "/>
<path fill="none" stroke-width="1" stroke-linecap="butt" stroke-linejoin="miter" stroke="rgb(0%, 0%, 0%)" stroke-opacity="1" stroke-miterlimit="1.154701" d="M 223.941406 749.417969 L 223.941406 749.417969 "/>
<path fill="none" stroke-width="1" stroke-linecap="butt" stroke-linejoin="miter" stroke="rgb(0%, 0%, 0%)" stroke-opacity="1" stroke-miterlimit="1.154701" d="M 740.550781 749.949219 L 740.550781 749.949219 "/>
<path fill="none" stroke-width="1" stroke-linecap="butt" stroke-linejoin="miter" stroke="rgb(0%, 0%, 0%)" stroke-opacity="1" stroke-miterlimit="1.154701" d="M 774.769531 749.984375 L 774.769531 749.984375 "/>
<path fill="none" stroke-width="1" stroke-linecap="butt" stroke-linejoin="miter" stroke="rgb(0%, 0%, 0%)" stroke-opacity="1" stroke-miterlimit="1.154701" d="M 1069.039062 750.285156 L 1069.039062 750.285156 "/>
<path fill="none" stroke-width="1" stroke-linecap="butt" stroke-linejoin="miter" stroke="rgb(0%, 0%, 0%)" stroke-opacity="1" stroke-miterlimit="1.154701" d="M 172.035156 749.363281 L 172.035156 749.363281 "/>
<path fill="none" stroke-width="1" stroke-linecap="butt" stroke-linejoin="miter" stroke="rgb(0%, 0%, 0%)" stroke-opacity="1" stroke-miterlimit="1.154701" d="M 223.941406 749.417969 L 223.941406 749.417969 "/>
</svg>
