<?xml version="1.0" encoding="UTF-8"?>
<svg xmlns="http://www.w3.org/2000/svg" xmlns:xlink="http://www.w3.org/1999/xlink" width="1400" height="900" viewBox="0 0 1400 900">
<defs>
<clipPath id="clip-0-76eb1670">
<path clip-rule="nonzero" d="M 16 85 L 46 85 L 46 111 L 16 111 Z M 16 85 "/>
</clipPath>
<clipPath id="clip-1-76eb1670">
<path clip-rule="nonzero" d="M 42 16 L 483 16 L 483 111 L 42 111 Z M 42 16 "/>
</clipPath>
<clipPath id="clip-2-76eb1670">
<path clip-rule="nonzero" d="M 16 106 L 46 106 L 46 118 L 16 118 Z M 16 106 "/>
</clipPath>
<clipPath id="clip-3-76eb1670">
<path clip-rule="nonzero" d="M 16 85 L 46 85 L 46 111 L 16 111 Z M 16 85 "/>
</clipPath>
<clipPath id="clip-4-76eb1670">
<path clip-rule="nonzero" d="M 1171 16 L 1322 16 L 1322 264 L 1171 264 Z M 1171 16 "/>
</clipPath>
<clipPath id="clip-5-76eb1670">
<path clip-rule="nonzero" d="M 1318 256 L 1384 256 L 1384 264 L 1318 264 Z M 1318 256 "/>
</clipPath>
<clipPath id="clip-6-76eb1670">
<path clip-rule="nonzero" d="M 42 16 L 483 16 L 483 111 L 42 111 Z M 42 16 "/>
</clipPath>
<clipPath id="clip-7-76eb1670">
<path clip-rule="nonzero" d="M 1171 16 L 1322 16 L 1322 264 L 1171 264 Z M 1171 16 "/>
</clipPath>
<clipPath id="clip-8-76eb1670">
<path clip-rule="nonzero" d="M 16 106 L 46 106 L 46 118 L 16 118 Z M 16 106 "/>
</clipPath>
<clipPath id="clip-9-76eb1670">
<path clip-rule="nonzero" d="M 16 330 L 253 330 L 253 353 L 16 353 Z M 16 330 "/>
</clipPath>
<clipPath id="clip-10-76eb1670">
<path clip-rule="nonzero" d="M 1318 256 L 1384 256 L 1384 264 L 1318 264 Z M 1318 256 "/>
</clipPath>
<clipPath id="clip-11-76eb1670">
<path clip-rule="nonzero" d="M 1318 260 L 1384 260 L 1384 397 L 1318 397 Z M 1318 260 "/>
</clipPath>
<clipPath id="clip-12-76eb1670">
<path clip-rule="nonzero" d="M 368 571 L 1384 571 L 1384 642 L 368 642 Z M 368 571 "/>
</clipPath>
<clipPath id="clip-13-76eb1670">
<path clip-rule="nonzero" d="M 1318 260 L 1384 260 L 1384 397 L 1318 397 Z M 1318 260 "/>
</clipPath>
<clipPath id="clip-14-76eb1670">
<path clip-rule="nonzero" d="M 16 330 L 253 330 L 253 353 L 16 353 Z M 16 330 "/>
</clipPath>
<clipPath id="clip-15-76eb1670">
<path clip-rule="nonzero" d="M 16 543 L 372 543 L 372 575 L 16 575 Z M 16 543 "/>
</clipPath>
<clipPath id="clip-16-76eb1670">
<path clip-rule="nonzero" d="M 368 571 L 1384 571 L 1384 642 L 368 642 Z M 368 571 "/>
</clipPath>
<clipPath id="clip-17-76eb1670">
<path clip-rule="nonzero" d="M 387 834 L 610 834 L 610 884 L 387 884 Z M 387 834 "/>
</clipPath>
<clipPath id="clip-18-76eb1670">
<path clip-rule="nonzero" d="M 16 543 L 372 543 L 372 575 L 16 575 Z M 16 543 "/>
</clipPath>
<clipPath id="clip-19-76eb1670">
<path clip-rule="nonzero" d="M 16 744 L 391 744 L 391 838 L 16 838 Z M 16 744 "/>
</clipPath>
<clipPath id="clip-20-76eb1670">
<path clip-rule="nonzero" d="M 387 834 L 610 834 L 610 884 L 387 884 Z M 387 834 "/>
</clipPath>
<clipPath id="clip-21-76eb1670">
<path clip-rule="nonzero" d="M 370 834 L 391 834 L 391 884 L 370 884 Z M 370 834 "/>
</clipPath>
<clipPath id="clip-22-76eb1670">
<path clip-rule="nonzero" d="M 16 744 L 391 744 L 391 838 L 16 838 Z M 16 744 "/>
</clipPath>
<clipPath id="clip-23-76eb1670">
<path clip-rule="nonzero" d="M 370 834 L 391 834 L 391 884 L 370 884 Z M 370 834 "/>
</clipPath>
</defs>
<g clip-path="url(#clip-0-76eb1670)">
<path fill="none" stroke-width="1" stroke-linecap="butt" stroke-linejoin="miter" stroke="rgb(0%, 0%, 0%)" stroke-opacity="1" stroke-miterlimit="1.154701" d="M 16 87.148438 L 43.75 108.554688 "/>
</g>
<g clip-path="url(#clip-1-76eb1670)">
<path fill="none" stroke-width="1" stroke-linecap="butt" stroke-linejoin="miter" stroke="rgb(0%, 0%, 0%)" stroke-opacity="1" stroke-miterlimit="1.154701" d="M 43.75 108.554688 L 480.8125 16 "/>
</g>
<g clip-path="url(#clip-2-76eb1670)">
<path fill="none" stroke-width="1" stroke-linecap="butt" stroke-linejoin="miter" stroke="rgb(0%, 0%, 0%)" stroke-opacity="1" stroke-miterlimit="1.154701" d="M 16 115.90625 L 43.75 108.554688 "/>
</g>
<g clip-path="url(#clip-3-76eb1670)">
<path fill="none" stroke-width="1" stroke-linecap="butt" stroke-linejoin="miter" stroke="rgb(0%, 0%, 0%)" stroke-opacity="1" stroke-miterlimit="1.154701" d="M 43.75 108.554688 L 16 87.148438 "/>
</g>
<g clip-path="url(#clip-4-76eb1670)">
<path fill="none" stroke-width="1" stroke-linecap="butt" stroke-linejoin="miter" stroke="rgb(0%, 0%, 0%)" stroke-opacity="1" stroke-miterlimit="1.154701" d="M 1173.117188 16 L 1319.921875 261.710938 "/>
</g>
<g clip-path="url(#clip-5-76eb1670)">
<path fill="none" stroke-width="1" stroke-linecap="butt" stroke-linejoin="miter" stroke="rgb(0%, 0%, 0%)" stroke-opacity="1" stroke-miterlimit="1.154701" d="M 1319.921875 261.710938 L 1384 257.785156 "/>
</g>
<g clip-path="url(#clip-6-76eb1670)">
<path fill="none" stroke-width="1" stroke-linecap="butt" stroke-linejoin="miter" stroke="rgb(0%, 0%, 0%)" stroke-opacity="1" stroke-miterlimit="1.154701" d="M 480.8125 16 L 43.75 108.554688 "/>
</g>
<path fill="none" stroke-width="1" stroke-linecap="butt" stroke-linejoin="miter" stroke="rgb(0%, 0%, 0%)" stroke-opacity="1" stroke-miterlimit="1.154701" d="M 43.75 108.554688 L 250.949219 332.144531 "/>
<path fill="none" stroke-width="1" stroke-linecap="butt" stroke-linejoin="miter" stroke="rgb(0%, 0%, 0%)" stroke-opacity="1" stroke-miterlimit="1.154701" d="M 250.949219 332.144531 L 1319.921875 261.710938 "/>
<g clip-path="url(#clip-7-76eb1670)">
<path fill="none" stroke-width="1" stroke-linecap="butt" stroke-linejoin="miter" stroke="rgb(0%, 0%, 0%)" stroke-opacity="1" stroke-miterlimit="1.154701" d="M 1319.921875 261.710938 L 1173.117188 16 "/>
</g>
<g clip-path="url(#clip-8-76eb1670)">
<path fill="none" stroke-width="1" stroke-linecap="butt" stroke-linejoin="miter" stroke="rgb(0%, 0%, 0%)" stroke-opacity="1" stroke-miterlimit="1.154701" d="M 43.75 108.554688 L 16 115.90625 "/>
</g>
<g clip-path="url(#clip-9-76eb1670)">
<path fill="none" stroke-width="1" stroke-linecap="butt" stroke-linejoin="miter" stroke="rgb(0%, 0%, 0%)" stroke-opacity="1" stroke-miterlimit="1.154701" d="M 16 350.703125 L 250.949219 332.144531 "/>
</g>
<path fill="none" stroke-width="1" stroke-linecap="butt" stroke-linejoin="miter" stroke="rgb(0%, 0%, 0%)" stroke-opacity="1" stroke-miterlimit="1.154701" d="M 250.949219 332.144531 L 43.75 108.554688 "/>
<g clip-path="url(#clip-10-76eb1670)">
<path fill="none" stroke-width="1" stroke-linecap="butt" stroke-linejoin="miter" stroke="rgb(0%, 0%, 0%)" stroke-opacity="1" stroke-miterlimit="1.154701" d="M 1384 257.785156 L 1319.921875 261.710938 "/>
</g>
<g clip-path="url(#clip-11-76eb1670)">
<path fill="none" stroke-width="1" stroke-linecap="butt" stroke-linejoin="miter" stroke="rgb(0%, 0%, 0%)" stroke-opacity="1" stroke-miterlimit="1.154701" d="M 1319.921875 261.710938 L 1384 394.859375 "/>
</g>
<path fill="none" stroke-width="1" stroke-linecap="butt" stroke-linejoin="miter" stroke="rgb(0%, 0%, 0%)" stroke-opacity="1" stroke-miterlimit="1.154701" d="M 1319.921875 261.710938 L 250.949219 332.144531 "/>
<path fill="none" stroke-width="1" stroke-linecap="butt" stroke-linejoin="miter" stroke="rgb(0%, 0%, 0%)" stroke-opacity="1" stroke-miterlimit="1.154701" d="M 250.949219 332.144531 L 370.113281 572.664062 "/>
<g clip-path="url(#clip-12-76eb1670)">
<path fill="none" stroke-width="1" stroke-linecap="butt" stroke-linejoin="miter" stroke="rgb(0%, 0%, 0%)" stroke-opacity="1" stroke-miterlimit="1.154701" d="M 370.113281 572.664062 L 1384 640.210938 "/>
</g>
<g clip-path="url(#clip-13-76eb1670)">
<path fill="none" stroke-width="1" stroke-linecap="butt" stroke-linejoin="miter" stroke="rgb(0%, 0%, 0%)" stroke-opacity="1" stroke-miterlimit="1.154701" d="M 1384 394.859375 L 1319.921875 261.710938 "/>
</g>
<g clip-path="url(#clip-14-76eb1670)">
<path fill="none" stroke-width="1" stroke-linecap="butt" stroke-linejoin="miter" stroke="rgb(0%, 0%, 0%)" stroke-opacity="1" stroke-miterlimit="1.154701" d="M 250.949219 332.144531 L 16 350.703125 "/>
</g>
<g clip-path="url(#clip-15-76eb1670)">
<path fill="none" stroke-width="1" stroke-linecap="butt" stroke-linejoin="miter" stroke="rgb(0%, 0%, 0%)" stroke-opacity="1" stroke-miterlimit="1.154701" d="M 16 545.457031 L 370.113281 572.664062 "/>
</g>
<path fill="none" stroke-width="1" stroke-linecap="butt" stroke-linejoin="miter" stroke="rgb(0%, 0%, 0%)" stroke-opacity="1" stroke-miterlimit="1.154701" d="M 370.113281 572.664062 L 250.949219 332.144531 "/>
<g clip-path="url(#clip-16-76eb1670)">
<path fill="none" stroke-width="1" stroke-linecap="butt" stroke-linejoin="miter" stroke="rgb(0%, 0%, 0%)" stroke-opacity="1" stroke-miterlimit="1.154701" d="M 1384 640.210938 L 370.113281 572.664062 "/>
</g>
<path fill="none" stroke-width="1" stroke-linecap="butt" stroke-linejoin="miter" stroke="rgb(0%, 0%, 0%)" stroke-opacity="1" stroke-miterlimit="1.154701" d="M 370.113281 572.664062 L 388.691406 836.335938 "/>
<g clip-path="url(#clip-17-76eb1670)">
<path fill="none" stroke-width="1" stroke-linecap="butt" stroke-linejoin="miter" stroke="rgb(0%, 0%, 0%)" stroke-opacity="1" stroke-miterlimit="1.154701" d="M 388.691406 836.335938 L 608.320312 884 "/>
</g>
<g clip-path="url(#clip-18-76eb1670)">
<path fill="none" stroke-width="1" stroke-linecap="butt" stroke-linejoin="miter" stroke="rgb(0%, 0%, 0%)" stroke-opacity="1" stroke-miterlimit="1.154701" d="M 370.113281 572.664062 L 16 545.457031 "/>
</g>
<g clip-path="url(#clip-19-76eb1670)">
<path fill="none" stroke-width="1" stroke-linecap="butt" stroke-linejoin="miter" stroke="rgb(0%, 0%, 0%)" stroke-opacity="1" stroke-miterlimit="1.154701" d="M 16 746.042969 L 388.691406 836.335938 "/>
</g>
<path fill="none" stroke-width="1" stroke-linecap="butt" stroke-linejoin="miter" stroke="rgb(0%, 0%, 0%)" stroke-opacity="1" stroke-miterlimit="1.154701" d="M 388.691406 836.335938 L 370.113281 572.664062 "/>
<g clip-path="url(#clip-20-76eb1670)">
<path fill="none" stroke-width="1" stroke-linecap="butt" stroke-linejoin="miter" stroke="rgb(0%, 0%, 0%)" stroke-opacity="1" stroke-miterlimit="1.154701" d="M 608.320312 884 L 388.691406 836.335938 "/>
</g>
<g clip-path="url(#clip-21-76eb1670)">
<path fill="none" stroke-width="1" stroke-linecap="butt" stroke-linejoin="miter" stroke="rgb(0%, 0%, 0%)" stroke-opacity="1" stroke-miterlimit="1.154701" d="M 388.691406 836.335938 L 372.558594 884 "/>
</g>
<g clip-path="url(#clip-22-76eb1670)">
<path fill="none" stroke-width="1" stroke-linecap="butt" stroke-linejoin="miter" stroke="rgb(0%, 0%, 0%)" stroke-opacity="1" stroke-miterlimit="1.154701" d="M 388.691406 836.335938 L 16 746.042969 "/>
</g>
<g clip-path="url(#clip-23-76eb1670)">
<path fill="none" stroke-width="1" stroke-linecap="butt" stroke-linejoin="miter" stroke="rgb(0%, 0%, 0%)" stroke-opacity="1" stroke-miterlimit="1.154701" d="M 372.558594 884 L 388.691406 836.335938 "/>
</g>
</svg>
