<?xml version="1.0" encoding="UTF-8"?>
<svg xmlns="http://www.w3.org/2000/svg" xmlns:xlink="http://www.w3.org/1999/xlink" width="1400" height="900" viewBox="0 0 1400 900">
<defs>
<clipPath id="clip-0-9c26e617">
<path clip-rule="nonzero" d="M 416 16 L 1384 16 L 1384 110 L 416 110 Z M 416 16 "/>
</clipPath>
<clipPath id="clip-1-9c26e617">
<path clip-rule="nonzero" d="M 16 301 L 1384 301 L 1384 346 L 16 346 Z M 16 301 "/>
</clipPath>
<clipPath id="clip-2-9c26e617">
<path clip-rule="nonzero" d="M 16 383 L 125 383 L 125 593 L 16 593 Z M 16 383 "/>
</clipPath>
<clipPath id="clip-3-9c26e617">
<path clip-rule="nonzero" d="M 121 552 L 1384 552 L 1384 593 L 121 593 Z M 121 552 "/>
</clipPath>
<clipPath id="clip-4-9c26e617">
<path clip-rule="nonzero" d="M 16 589 L 125 589 L 125 596 L 16 596 Z M 16 589 "/>
</clipPath>
<clipPath id="clip-5-9c26e617">
<path clip-rule="nonzero" d="M 16 383 L 125 383 L 125 593 L 16 593 Z M 16 383 "/>
</clipPath>
<clipPath id="clip-6-9c26e617">
<path clip-rule="nonzero" d="M 121 552 L 1384 552 L 1384 593 L 121 593 Z M 121 552 "/>
</clipPath>
<clipPath id="clip-7-9c26e617">
<path clip-rule="nonzero" d="M 176 768 L 1384 768 L 1384 882 L 176 882 Z M 176 768 "/>
</clipPath>
<clipPath id="clip-8-9c26e617">
<path clip-rule="nonzero" d="M 16 589 L 125 589 L 125 596 L 16 596 Z M 16 589 "/>
</clipPath>
<clipPath id="clip-9-9c26e617">
<path clip-rule="nonzero" d="M 121 877 L 180 877 L 180 884 L 121 884 Z M 121 877 "/>
</clipPath>
<clipPath id="clip-10-9c26e617">
<path clip-rule="nonzero" d="M 176 768 L 1384 768 L 1384 882 L 176 882 Z M 176 768 "/>
</clipPath>
<clipPath id="clip-11-9c26e617">
<path clip-rule="nonzero" d="M 176 877 L 180 877 L 180 884 L 176 884 Z M 176 877 "/>
</clipPath>
<clipPath id="clip-12-9c26e617">
<path clip-rule="nonzero" d="M 121 877 L 180 877 L 180 884 L 121 884 Z M 121 877 "/>
</clipPath>
<clipPath id="clip-13-9c26e617">
<path clip-rule="nonzero" d="M 176 877 L 180 877 L 180 884 L 176 884 Z M 176 877 "/>
</clipPath>
</defs>
<g clip-path="url(#clip-0-9c26e617)">
<path fill="none" stroke-width="1" stroke-linecap="butt" stroke-linejoin="miter" stroke="rgb(0%, 0%, 0%)" stroke-opacity="1" stroke-miterlimit="1.154701" d="M 417.75 16 L 1384 107.6875 "/>
<path fill="none" stroke-width="1" stroke-linecap="butt" stroke-linejoin="miter" stroke="rgb(0%, 0%, 0%)" stroke-opacity="1" stroke-miterlimit="1.154701" d="M 1384 107.6875 L 417.75 16 "/>
</g>
<g clip-path="url(#clip-1-9c26e617)">
<path fill="none" stroke-width="1" stroke-linecap="butt" stroke-linejoin="miter" stroke="rgb(0%, 0%, 0%)" stroke-opacity="1" stroke-miterlimit="1.154701" d="M 16 303.058594 L 1384 343.527344 "/>
<path fill="none" stroke-width="1" stroke-linecap="butt" stroke-linejoin="miter" stroke="rgb(0%, 0%, 0%)" stroke-opacity="1" stroke-miterlimit="1.154701" d="M 1384 343.527344 L 16 303.058594 "/>
</g>
<g clip-path="url(#clip-2-9c26e617)">
<path fill="none" stroke-width="1" stroke-linecap="butt" stroke-linejoin="miter" stroke="rgb(0%, 0%, 0%)" stroke-opacity="1" stroke-miterlimit="1.154701" d="M 16 384.832031 L 123.109375 590.90625 "/>
</g>
<g clip-path="url(#clip-3-9c26e617)">
<path fill="none" stroke-width="1" stroke-linecap="butt" stroke-linejoin="miter" stroke="rgb(0%, 0%, 0%)" stroke-opacity="1" stroke-miterlimit="1.154701" d="M 123.109375 590.90625 L 1384 554.136719 "/>
</g>
<g clip-path="url(#clip-4-9c26e617)">
<path fill="none" stroke-width="1" stroke-linecap="butt" stroke-linejoin="miter" stroke="rgb(0%, 0%, 0%)" stroke-opacity="1" stroke-miterlimit="1.154701" d="M 16 593.722656 L 123.109375 590.90625 "/>
</g>
<g clip-path="url(#clip-5-9c26e617)">
<path fill="none" stroke-width="1" stroke-linecap="butt" stroke-linejoin="miter" stroke="rgb(0%, 0%, 0%)" stroke-opacity="1" stroke-miterlimit="1.154701" d="M 123.109375 590.90625 L 16 384.832031 "/>
</g>
<g clip-path="url(#clip-6-9c26e617)">
<path fill="none" stroke-width="1" stroke-linecap="butt" stroke-linejoin="miter" stroke="rgb(0%, 0%, 0%)" stroke-opacity="1" stroke-miterlimit="1.154701" d="M 1384 554.136719 L 123.109375 590.90625 "/>
</g>
<path fill="none" stroke-width="1" stroke-linecap="butt" stroke-linejoin="miter" stroke="rgb(0%, 0%, 0%)" stroke-opacity="1" stroke-miterlimit="1.154701" d="M 123.109375 590.90625 L 178.347656 879.375 "/>
<g clip-path="url(#clip-7-9c26e617)">
<path fill="none" stroke-width="1" stroke-linecap="butt" stroke-linejoin="miter" stroke="rgb(0%, 0%, 0%)" stroke-opacity="1" stroke-miterlimit="1.154701" d="M 178.347656 879.375 L 1384 770.125 "/>
</g>
<g clip-path="url(#clip-8-9c26e617)">
<path fill="none" stroke-width="1" stroke-linecap="butt" stroke-linejoin="miter" stroke="rgb(0%, 0%, 0%)" stroke-opacity="1" stroke-miterlimit="1.154701" d="M 123.109375 590.90625 L 16 593.722656 "/>
</g>
<g clip-path="url(#clip-9-9c26e617)">
<path fill="none" stroke-width="1" stroke-linecap="butt" stroke-linejoin="miter" stroke="rgb(0%, 0%, 0%)" stroke-opacity="1" stroke-miterlimit="1.154701" d="M 122.839844 884 L 178.347656 879.375 "/>
</g>
<path fill="none" stroke-width="1" stroke-linecap="butt" stroke-linejoin="miter" stroke="rgb(0%, 0%, 0%)" stroke-opacity="1" stroke-miterlimit="1.154701" d="M 178.347656 879.375 L 123.109375 590.90625 "/>
<g clip-path="url(#clip-10-9c26e617)">
<path fill="none" stroke-width="1" stroke-linecap="butt" stroke-linejoin="miter" stroke="rgb(0%, 0%, 0%)" stroke-opacity="1" stroke-miterlimit="1.154701" d="M 1384 770.125 L 178.347656 879.375 "/>
</g>
<g clip-path="url(#clip-11-9c26e617)">
<path fill="none" stroke-width="1" stroke-linecap="butt" stroke-linejoin="miter" stroke="rgb(0%, 0%, 0%)" stroke-opacity="1" stroke-miterlimit="1.154701" d="M 178.347656 879.375 L 177.921875 884 "/>
</g>
<g clip-path="url(#clip-12-9c26e617)">
<path fill="none" stroke-width="1" stroke-linecap="butt" stroke-linejoin="miter" stroke="rgb(0%, 0%, 0%)" stroke-opacity="1" stroke-miterlimit="1.154701" d="M 178.347656 879.375 L 122.839844 884 "/>
</g>
<g clip-path="url(#clip-13-9c26e617)">
<path fill="none" stroke-width="1" stroke-linecap="butt" stroke-linejoin="miter" stroke="rgb(0%, 0%, 0%)" stroke-opacity="1" stroke-miterlimit="1.154701" d="M 177.921875 884 L 178.347656 879.375 "/>
</g>
<path fill="none" stroke-width="1" stroke-linecap="butt" stroke-linejoin="miter" stroke="rgb(0%, 0%, 0%)" stroke-opacity="1" stroke-miterlimit="1.154701" d="M 307.28125 304.886719 L 307.28125 304.886719 "/>
<path fill="none" stroke-width="1" stroke-linecap="butt" stroke-linejoin="miter" stroke="rgb(0%, 0%, 0%)" stroke-opacity="1" stroke-miterlimit="1.154701" d="M 307.28125 304.886719 L 307.28125 304.886719 "/>
<path fill="none" stroke-width="1" stroke-linecap="butt" stroke-linejoin="miter" stroke="rgb(0%, 0%, 0%)" stroke-opacity="1" stroke-miterlimit="1.154701" d="M 54.050781 601.191406 L 54.050781 601.191406 "/>
<path fill="none" stroke-width="1" stroke-linecap="butt" stroke-linejoin="miter" stroke="rgb(0%, 0%, 0%)" stroke-opacity="1" stroke-miterlimit="1.154701" d="M 537.457031 589.589844 L 537.457031 589.589844 "/>
<path fill="none" stroke-width="1" stroke-linecap="butt" stroke-linejoin="miter" stroke="rgb(0%, 0%, 0%)" stroke-opacity="1" stroke-miterlimit="1.154701" d="M 453.425781 591.605469 L 453.425781 591.605469 "/>
<path fill="none" stroke-width="1" stroke-linecap="butt" stroke-linejoin="miter" stroke="rgb(0%, 0%, 0%)" stroke-opacity="1" stroke-miterlimit="1.154701" d="M 54.050781 601.191406 L 54.050781 601.191406 "/>
<path fill="none" stroke-width="1" stroke-linecap="butt" stroke-linejoin="miter" stroke="rgb(0%, 0%, 0%)" stroke-opacity="1" stroke-miterlimit="1.154701" d="M 537.457031 589.589844 L 537.457031 589.589844 "/>
<path fill="none" stroke-width="1" stroke-linecap="butt" stroke-linejoin="miter" stroke="rgb(0%, 0%, 0%)" stroke-opacity="1" stroke-miterlimit="1.154701" d="M 453.425781 591.605469 L 453.425781 591.605469 "/>
</svg>
