<?xml version="1.0" encoding="UTF-8"?>
<svg xmlns="http://www.w3.org/2000/svg" xmlns:xlink="http://www.w3.org/1999/xlink" width="1400" height="900" viewBox="0 0 1400 900">
<defs>
<clipPath id="clip-0-a48afae7">
<path clip-rule="nonzero" d="M 729 16 L 1384 16 L 1384 107 L 729 107 Z M 729 16 "/>
</clipPath>
<clipPath id="clip-1-a48afae7">
<path clip-rule="nonzero" d="M 414 16 L 538 16 L 538 311 L 414 311 Z M 414 16 "/>
</clipPath>
<clipPath id="clip-2-a48afae7">
<path clip-rule="nonzero" d="M 534 307 L 1384 307 L 1384 346 L 534 346 Z M 534 307 "/>
</clipPath>
<clipPath id="clip-3-a48afae7">
<path clip-rule="nonzero" d="M 16 287 L 538 287 L 538 311 L 16 311 Z M 16 287 "/>
</clipPath>
<clipPath id="clip-4-a48afae7">
<path clip-rule="nonzero" d="M 414 16 L 538 16 L 538 311 L 414 311 Z M 414 16 "/>
</clipPath>
<clipPath id="clip-5-a48afae7">
<path clip-rule="nonzero" d="M 534 307 L 1384 307 L 1384 346 L 534 346 Z M 534 307 "/>
</clipPath>
<clipPath id="clip-6-a48afae7">
<path clip-rule="nonzero" d="M 616 551 L 1384 551 L 1384 586 L 616 586 Z M 616 551 "/>
</clipPath>
<clipPath id="clip-7-a48afae7">
<path clip-rule="nonzero" d="M 16 287 L 538 287 L 538 311 L 16 311 Z M 16 287 "/>
</clipPath>
<clipPath id="clip-8-a48afae7">
<path clip-rule="nonzero" d="M 16 582 L 620 582 L 620 608 L 16 608 Z M 16 582 "/>
</clipPath>
<clipPath id="clip-9-a48afae7">
<path clip-rule="nonzero" d="M 616 551 L 1384 551 L 1384 586 L 616 586 Z M 616 551 "/>
</clipPath>
<clipPath id="clip-10-a48afae7">
<path clip-rule="nonzero" d="M 672 765 L 1384 765 L 1384 859 L 672 859 Z M 672 765 "/>
</clipPath>
<clipPath id="clip-11-a48afae7">
<path clip-rule="nonzero" d="M 16 582 L 620 582 L 620 608 L 16 608 Z M 16 582 "/>
</clipPath>
<clipPath id="clip-12-a48afae7">
<path clip-rule="nonzero" d="M 440 855 L 677 855 L 677 884 L 440 884 Z M 440 855 "/>
</clipPath>
<clipPath id="clip-13-a48afae7">
<path clip-rule="nonzero" d="M 672 765 L 1384 765 L 1384 859 L 672 859 Z M 672 765 "/>
</clipPath>
<clipPath id="clip-14-a48afae7">
<path clip-rule="nonzero" d="M 672 855 L 680 855 L 680 884 L 672 884 Z M 672 855 "/>
</clipPath>
<clipPath id="clip-15-a48afae7">
<path clip-rule="nonzero" d="M 440 855 L 677 855 L 677 884 L 440 884 Z M 440 855 "/>
</clipPath>
<clipPath id="clip-16-a48afae7">
<path clip-rule="nonzero" d="M 672 855 L 680 855 L 680 884 L 672 884 Z M 672 855 "/>
</clipPath>
</defs>
<g clip-path="url(#clip-0-a48afae7)">
<path fill="none" stroke-width="1" stroke-linecap="butt" stroke-linejoin="miter" stroke="rgb(0%, 0%, 0%)" stroke-opacity="1" stroke-miterlimit="1.154701" d="M 731.230469 16 L 1384 104.496094 "/>
<path fill="none" stroke-width="1" stroke-linecap="butt" stroke-linejoin="miter" stroke="rgb(0%, 0%, 0%)" stroke-opacity="1" stroke-miterlimit="1.154701" d="M 1384 104.496094 L 731.230469 16 "/>
</g>
<g clip-path="url(#clip-1-a48afae7)">
<path fill="none" stroke-width="1" stroke-linecap="butt" stroke-linejoin="miter" stroke="rgb(0%, 0%, 0%)" stroke-opacity="1" stroke-miterlimit="1.154701" d="M 415.808594 16 L 535.664062 308.8125 "/>
</g>
<g clip-path="url(#clip-2-a48afae7)">
<path fill="none" stroke-width="1" stroke-linecap="butt" stroke-linejoin="miter" stroke="rgb(0%, 0%, 0%)" stroke-opacity="1" stroke-miterlimit="1.154701" d="M 535.664062 308.8125 L 1384 344.132812 "/>
</g>
<g clip-path="url(#clip-3-a48afae7)">
<path fill="none" stroke-width="1" stroke-linecap="butt" stroke-linejoin="miter" stroke="rgb(0%, 0%, 0%)" stroke-opacity="1" stroke-miterlimit="1.154701" d="M 16 289.601562 L 535.664062 308.8125 "/>
</g>
<g clip-path="url(#clip-4-a48afae7)">
<path fill="none" stroke-width="1" stroke-linecap="butt" stroke-linejoin="miter" stroke="rgb(0%, 0%, 0%)" stroke-opacity="1" stroke-miterlimit="1.154701" d="M 535.664062 308.8125 L 415.808594 16 "/>
</g>
<g clip-path="url(#clip-5-a48afae7)">
<path fill="none" stroke-width="1" stroke-linecap="butt" stroke-linejoin="miter" stroke="rgb(0%, 0%, 0%)" stroke-opacity="1" stroke-miterlimit="1.154701" d="M 1384 344.132812 L 535.664062 308.8125 "/>
</g>
<path fill="none" stroke-width="1" stroke-linecap="butt" stroke-linejoin="miter" stroke="rgb(0%, 0%, 0%)" stroke-opacity="1" stroke-miterlimit="1.154701" d="M 535.664062 308.8125 L 617.789062 584.15625 "/>
<g clip-path="url(#clip-6-a48afae7)">
<path fill="none" stroke-width="1" stroke-linecap="butt" stroke-linejoin="miter" stroke="rgb(0%, 0%, 0%)" stroke-opacity="1" stroke-miterlimit="1.154701" d="M 617.789062 584.15625 L 1384 552.902344 "/>
</g>
<g clip-path="url(#clip-7-a48afae7)">
<path fill="none" stroke-width="1" stroke-linecap="butt" stroke-linejoin="miter" stroke="rgb(0%, 0%, 0%)" stroke-opacity="1" stroke-miterlimit="1.154701" d="M 535.664062 308.8125 L 16 289.601562 "/>
</g>
<g clip-path="url(#clip-8-a48afae7)">
<path fill="none" stroke-width="1" stroke-linecap="butt" stroke-linejoin="miter" stroke="rgb(0%, 0%, 0%)" stroke-opacity="1" stroke-miterlimit="1.154701" d="M 16 606.328125 L 617.789062 584.15625 "/>
</g>
<path fill="none" stroke-width="1" stroke-linecap="butt" stroke-linejoin="miter" stroke="rgb(0%, 0%, 0%)" stroke-opacity="1" stroke-miterlimit="1.154701" d="M 617.789062 584.15625 L 535.664062 308.8125 "/>
<g clip-path="url(#clip-9-a48afae7)">
<path fill="none" stroke-width="1" stroke-linecap="butt" stroke-linejoin="miter" stroke="rgb(0%, 0%, 0%)" stroke-opacity="1" stroke-miterlimit="1.154701" d="M 1384 552.902344 L 617.789062 584.15625 "/>
</g>
<path fill="none" stroke-width="1" stroke-linecap="butt" stroke-linejoin="miter" stroke="rgb(0%, 0%, 0%)" stroke-opacity="1" stroke-miterlimit="1.154701" d="M 617.789062 584.15625 L 674.550781 856.898438 "/>
<g clip-path="url(#clip-10-a48afae7)">
<path fill="none" stroke-width="1" stroke-linecap="butt" stroke-linejoin="miter" stroke="rgb(0%, 0%, 0%)" stroke-opacity="1" stroke-miterlimit="1.154701" d="M 674.550781 856.898438 L 1384 766.839844 "/>
</g>
<g clip-path="url(#clip-11-a48afae7)">
<path fill="none" stroke-width="1" stroke-linecap="butt" stroke-linejoin="miter" stroke="rgb(0%, 0%, 0%)" stroke-opacity="1" stroke-miterlimit="1.154701" d="M 617.789062 584.15625 L 16 606.328125 "/>
</g>
<g clip-path="url(#clip-12-a48afae7)">
<path fill="none" stroke-width="1" stroke-linecap="butt" stroke-linejoin="miter" stroke="rgb(0%, 0%, 0%)" stroke-opacity="1" stroke-miterlimit="1.154701" d="M 442.28125 884 L 674.550781 856.898438 "/>
</g>
<path fill="none" stroke-width="1" stroke-linecap="butt" stroke-linejoin="miter" stroke="rgb(0%, 0%, 0%)" stroke-opacity="1" stroke-miterlimit="1.154701" d="M 674.550781 856.898438 L 617.789062 584.15625 "/>
<path fill="none" stroke-width="1" stroke-linecap="butt" stroke-linejoin="miter" stroke="rgb(0%, 0%, 0%)" stroke-opacity="1" stroke-miterlimit="1.154701" d="M 1355.6875 834.71875 L 1355.6875 834.71875 "/>
<g clip-path="url(#clip-13-a48afae7)">
<path fill="none" stroke-width="1" stroke-linecap="butt" stroke-linejoin="miter" stroke="rgb(0%, 0%, 0%)" stroke-opacity="1" stroke-miterlimit="1.154701" d="M 1384 766.839844 L 674.550781 856.898438 "/>
</g>
<g clip-path="url(#clip-14-a48afae7)">
<path fill="none" stroke-width="1" stroke-linecap="butt" stroke-linejoin="miter" stroke="rgb(0%, 0%, 0%)" stroke-opacity="1" stroke-miterlimit="1.154701" d="M 674.550781 856.898438 L 678.300781 884 "/>
</g>
<g clip-path="url(#clip-15-a48afae7)">
<path fill="none" stroke-width="1" stroke-linecap="butt" stroke-linejoin="miter" stroke="rgb(0%, 0%, 0%)" stroke-opacity="1" stroke-miterlimit="1.154701" d="M 674.550781 856.898438 L 442.28125 884 "/>
</g>
<g clip-path="url(#clip-16-a48afae7)">
<path fill="none" stroke-width="1" stroke-linecap="butt" stroke-linejoin="miter" stroke="rgb(0%, 0%, 0%)" stroke-opacity="1" stroke-miterlimit="1.154701" d="M 678.300781 884 L 674.550781 856.898438 "/>
</g>
<path fill="none" stroke-width="1" stroke-linecap="butt" stroke-linejoin="miter" stroke="rgb(0%, 0%, 0%)" stroke-opacity="1" stroke-miterlimit="1.154701" d="M 1355.6875 834.71875 L 1355.6875 834.71875 "/>
<path fill="none" stroke-width="1" stroke-linecap="butt" stroke-linejoin="miter" stroke="rgb(0%, 0%, 0%)" stroke-opacity="1" stroke-miterlimit="1.154701" d="M 537.445312 299.351562 L 537.445312 299.351562 "/>
<path fill="none" stroke-width="1" stroke-linecap="butt" stroke-linejoin="miter" stroke="rgb(0%, 0%, 0%)" stroke-opacity="1" stroke-miterlimit="1.154701" d="M 537.445312 299.351562 L 537.445312 299.351562 "/>
<path fill="none" stroke-width="1" stroke-linecap="butt" stroke-linejoin="miter" stroke="rgb(0%, 0%, 0%)" stroke-opacity="1" stroke-miterlimit="1.154701" d="M 1076.863281 583.933594 L 1076.863281 583.933594 "/>
<path fill="none" stroke-width="1" stroke-linecap="butt" stroke-linejoin="miter" stroke="rgb(0%, 0%, 0%)" stroke-opacity="1" stroke-miterlimit="1.154701" d="M 302.136719 607.941406 L 302.136719 607.941406 "/>
<path fill="none" stroke-width="1" stroke-linecap="butt" stroke-linejoin="miter" stroke="rgb(0%, 0%, 0%)" stroke-opacity="1" stroke-miterlimit="1.154701" d="M 1001.632812 586.265625 L 1001.632812 586.265625 "/>
<path fill="none" stroke-width="1" stroke-linecap="butt" stroke-linejoin="miter" stroke="rgb(0%, 0%, 0%)" stroke-opacity="1" stroke-miterlimit="1.154701" d="M 1076.863281 583.933594 L 1076.863281 583.933594 "/>
<path fill="none" stroke-width="1" stroke-linecap="butt" stroke-linejoin="miter" stroke="rgb(0%, 0%, 0%)" stroke-opacity="1" stroke-miterlimit="1.154701" d="M 302.136719 607.941406 L 302.136719 607.941406 "/>
<path fill="none" stroke-width="1" stroke-linecap="butt" stroke-linejoin="miter" stroke="rgb(0%, 0%, 0%)" stroke-opacity="1" stroke-miterlimit="1.154701" d="M 1001.632812 586.265625 L 1001.632812 586.265625 "/>
</svg>
