<?xml version="1.0" encoding="UTF-8"?>
<svg xmlns="http://www.w3.org/2000/svg" xmlns:xlink="http://www.w3.org/1999/xlink" width="1400" height="900" viewBox="0 0 1400 900">
<defs>
<clipPath id="clip-0-138e719c">
<path clip-rule="nonzero" d="M 16 59 L 1384 59 L 1384 122 L 16 122 Z M 16 59 "/>
</clipPath>
<clipPath id="clip-1-138e719c">
<path clip-rule="nonzero" d="M 16 324 L 1384 324 L 1384 347 L 16 347 Z M 16 324 "/>
</clipPath>
<clipPath id="clip-2-138e719c">
<path clip-rule="nonzero" d="M 16 365 L 118 365 L 118 557 L 16 557 Z M 16 365 "/>
</clipPath>
<clipPath id="clip-3-138e719c">
<path clip-rule="nonzero" d="M 114 553 L 1384 553 L 1384 575 L 114 575 Z M 114 553 "/>
</clipPath>
<clipPath id="clip-4-138e719c">
<path clip-rule="nonzero" d="M 16 551 L 118 551 L 118 557 L 16 557 Z M 16 551 "/>
</clipPath>
<clipPath id="clip-5-138e719c">
<path clip-rule="nonzero" d="M 16 365 L 118 365 L 118 557 L 16 557 Z M 16 365 "/>
</clipPath>
<clipPath id="clip-6-138e719c">
<path clip-rule="nonzero" d="M 114 553 L 1384 553 L 1384 575 L 114 575 Z M 114 553 "/>
</clipPath>
<clipPath id="clip-7-138e719c">
<path clip-rule="nonzero" d="M 125 771 L 1384 771 L 1384 829 L 125 829 Z M 125 771 "/>
</clipPath>
<clipPath id="clip-8-138e719c">
<path clip-rule="nonzero" d="M 16 551 L 118 551 L 118 557 L 16 557 Z M 16 551 "/>
</clipPath>
<clipPath id="clip-9-138e719c">
<path clip-rule="nonzero" d="M 16 765 L 130 765 L 130 775 L 16 775 Z M 16 765 "/>
</clipPath>
<clipPath id="clip-10-138e719c">
<path clip-rule="nonzero" d="M 125 771 L 1384 771 L 1384 829 L 125 829 Z M 125 771 "/>
</clipPath>
<clipPath id="clip-11-138e719c">
<path clip-rule="nonzero" d="M 82 771 L 130 771 L 130 884 L 82 884 Z M 82 771 "/>
</clipPath>
<clipPath id="clip-12-138e719c">
<path clip-rule="nonzero" d="M 16 765 L 130 765 L 130 775 L 16 775 Z M 16 765 "/>
</clipPath>
<clipPath id="clip-13-138e719c">
<path clip-rule="nonzero" d="M 82 771 L 130 771 L 130 884 L 82 884 Z M 82 771 "/>
</clipPath>
</defs>
<g clip-path="url(#clip-0-138e719c)">
<path fill="none" stroke-width="1" stroke-linecap="butt" stroke-linejoin="miter" stroke="rgb(0%, 0%, 0%)" stroke-opacity="1" stroke-miterlimit="1.154701" d="M 16 120.03125 L 1384 61.15625 "/>
<path fill="none" stroke-width="1" stroke-linecap="butt" stroke-linejoin="miter" stroke="rgb(0%, 0%, 0%)" stroke-opacity="1" stroke-miterlimit="1.154701" d="M 1384 61.15625 L 16 120.03125 "/>
</g>
<g clip-path="url(#clip-1-138e719c)">
<path fill="none" stroke-width="1" stroke-linecap="butt" stroke-linejoin="miter" stroke="rgb(0%, 0%, 0%)" stroke-opacity="1" stroke-miterlimit="1.154701" d="M 16 344.871094 L 1384 326.050781 "/>
<path fill="none" stroke-width="1" stroke-linecap="butt" stroke-linejoin="miter" stroke="rgb(0%, 0%, 0%)" stroke-opacity="1" stroke-miterlimit="1.154701" d="M 1384 326.050781 L 16 344.871094 "/>
</g>
<g clip-path="url(#clip-2-138e719c)">
<path fill="none" stroke-width="1" stroke-linecap="butt" stroke-linejoin="miter" stroke="rgb(0%, 0%, 0%)" stroke-opacity="1" stroke-miterlimit="1.154701" d="M 16 367.359375 L 115.675781 555.238281 "/>
</g>
<g clip-path="url(#clip-3-138e719c)">
<path fill="none" stroke-width="1" stroke-linecap="butt" stroke-linejoin="miter" stroke="rgb(0%, 0%, 0%)" stroke-opacity="1" stroke-miterlimit="1.154701" d="M 115.675781 555.238281 L 1384 572.683594 "/>
</g>
<g clip-path="url(#clip-4-138e719c)">
<path fill="none" stroke-width="1" stroke-linecap="butt" stroke-linejoin="miter" stroke="rgb(0%, 0%, 0%)" stroke-opacity="1" stroke-miterlimit="1.154701" d="M 16 553.535156 L 115.675781 555.238281 "/>
</g>
<g clip-path="url(#clip-5-138e719c)">
<path fill="none" stroke-width="1" stroke-linecap="butt" stroke-linejoin="miter" stroke="rgb(0%, 0%, 0%)" stroke-opacity="1" stroke-miterlimit="1.154701" d="M 115.675781 555.238281 L 16 367.359375 "/>
</g>
<g clip-path="url(#clip-6-138e719c)">
<path fill="none" stroke-width="1" stroke-linecap="butt" stroke-linejoin="miter" stroke="rgb(0%, 0%, 0%)" stroke-opacity="1" stroke-miterlimit="1.154701" d="M 1384 572.683594 L 115.675781 555.238281 "/>
</g>
<path fill="none" stroke-width="1" stroke-linecap="butt" stroke-linejoin="miter" stroke="rgb(0%, 0%, 0%)" stroke-opacity="1" stroke-miterlimit="1.154701" d="M 115.675781 555.238281 L 127.578125 773.335938 "/>
<g clip-path="url(#clip-7-138e719c)">
<path fill="none" stroke-width="1" stroke-linecap="butt" stroke-linejoin="miter" stroke="rgb(0%, 0%, 0%)" stroke-opacity="1" stroke-miterlimit="1.154701" d="M 127.578125 773.335938 L 1384 827.1875 "/>
</g>
<g clip-path="url(#clip-8-138e719c)">
<path fill="none" stroke-width="1" stroke-linecap="butt" stroke-linejoin="miter" stroke="rgb(0%, 0%, 0%)" stroke-opacity="1" stroke-miterlimit="1.154701" d="M 115.675781 555.238281 L 16 553.535156 "/>
</g>
<g clip-path="url(#clip-9-138e719c)">
<path fill="none" stroke-width="1" stroke-linecap="butt" stroke-linejoin="miter" stroke="rgb(0%, 0%, 0%)" stroke-opacity="1" stroke-miterlimit="1.154701" d="M 16 767.5625 L 127.578125 773.335938 "/>
</g>
<path fill="none" stroke-width="1" stroke-linecap="butt" stroke-linejoin="miter" stroke="rgb(0%, 0%, 0%)" stroke-opacity="1" stroke-miterlimit="1.154701" d="M 127.578125 773.335938 L 115.675781 555.238281 "/>
<g clip-path="url(#clip-10-138e719c)">
<path fill="none" stroke-width="1" stroke-linecap="butt" stroke-linejoin="miter" stroke="rgb(0%, 0%, 0%)" stroke-opacity="1" stroke-miterlimit="1.154701" d="M 1384 827.1875 L 127.578125 773.335938 "/>
</g>
<g clip-path="url(#clip-11-138e719c)">
<path fill="none" stroke-width="1" stroke-linecap="butt" stroke-linejoin="miter" stroke="rgb(0%, 0%, 0%)" stroke-opacity="1" stroke-miterlimit="1.154701" d="M 127.578125 773.335938 L 84.035156 884 "/>
</g>
<g clip-path="url(#clip-12-138e719c)">
<path fill="none" stroke-width="1" stroke-linecap="butt" stroke-linejoin="miter" stroke="rgb(0%, 0%, 0%)" stroke-opacity="1" stroke-miterlimit="1.154701" d="M 127.578125 773.335938 L 16 767.5625 "/>
</g>
<g clip-path="url(#clip-13-138e719c)">
<path fill="none" stroke-width="1" stroke-linecap="butt" stroke-linejoin="miter" stroke="rgb(0%, 0%, 0%)" stroke-opacity="1" stroke-miterlimit="1.154701" d="M 84.035156 884 L 127.578125 773.335938 "/>
</g>
<path fill="none" stroke-width="1" stroke-linecap="butt" stroke-linejoin="miter" stroke="rgb(0%, 0%, 0%)" stroke-opacity="1" stroke-miterlimit="1.154701" d="M 417.707031 96.738281 L 417.707031 96.738281 "/>
<path fill="none" stroke-width="1" stroke-linecap="butt" stroke-linejoin="miter" stroke="rgb(0%, 0%, 0%)" stroke-opacity="1" stroke-miterlimit="1.154701" d="M 692.792969 85.832031 L 692.792969 85.832031 "/>
<path fill="none" stroke-width="1" stroke-linecap="butt" stroke-linejoin="miter" stroke="rgb(0%, 0%, 0%)" stroke-opacity="1" stroke-miterlimit="1.154701" d="M 417.707031 96.738281 L 417.707031 96.738281 "/>
<path fill="none" stroke-width="1" stroke-linecap="butt" stroke-linejoin="miter" stroke="rgb(0%, 0%, 0%)" stroke-opacity="1" stroke-miterlimit="1.154701" d="M 802.609375 329.980469 L 802.609375 329.980469 "/>
<path fill="none" stroke-width="1" stroke-linecap="butt" stroke-linejoin="miter" stroke="rgb(0%, 0%, 0%)" stroke-opacity="1" stroke-miterlimit="1.154701" d="M 1347.640625 322.941406 L 1347.640625 322.941406 "/>
<path fill="none" stroke-width="1" stroke-linecap="butt" stroke-linejoin="miter" stroke="rgb(0%, 0%, 0%)" stroke-opacity="1" stroke-miterlimit="1.154701" d="M 692.792969 85.832031 L 692.792969 85.832031 "/>
<path fill="none" stroke-width="1" stroke-linecap="butt" stroke-linejoin="miter" stroke="rgb(0%, 0%, 0%)" stroke-opacity="1" stroke-miterlimit="1.154701" d="M 1193.761719 324.929688 L 1193.761719 324.929688 "/>
<path fill="none" stroke-width="1" stroke-linecap="butt" stroke-linejoin="miter" stroke="rgb(0%, 0%, 0%)" stroke-opacity="1" stroke-miterlimit="1.154701" d="M 604.464844 332.539062 L 604.464844 332.539062 "/>
<path fill="none" stroke-width="1" stroke-linecap="butt" stroke-linejoin="miter" stroke="rgb(0%, 0%, 0%)" stroke-opacity="1" stroke-miterlimit="1.154701" d="M 323.285156 336.171875 L 323.285156 336.171875 "/>
<path fill="none" stroke-width="1" stroke-linecap="butt" stroke-linejoin="miter" stroke="rgb(0%, 0%, 0%)" stroke-opacity="1" stroke-miterlimit="1.154701" d="M 802.609375 329.980469 L 802.609375 329.980469 "/>
<path fill="none" stroke-width="1" stroke-linecap="butt" stroke-linejoin="miter" stroke="rgb(0%, 0%, 0%)" stroke-opacity="1" stroke-miterlimit="1.154701" d="M 1347.640625 322.941406 L 1347.640625 322.941406 "/>
<path fill="none" stroke-width="1" stroke-linecap="butt" stroke-linejoin="miter" stroke="rgb(0%, 0%, 0%)" stroke-opacity="1" stroke-miterlimit="1.154701" d="M 954.234375 571.976562 L 954.234375 571.976562 "/>
<path fill="none" stroke-width="1" stroke-linecap="butt" stroke-linejoin="miter" stroke="rgb(0%, 0%, 0%)" stroke-opacity="1" stroke-miterlimit="1.154701" d="M 1193.761719 324.929688 L 1193.761719 324.929688 "/>
<path fill="none" stroke-width="1" stroke-linecap="butt" stroke-linejoin="miter" stroke="rgb(0%, 0%, 0%)" stroke-opacity="1" stroke-miterlimit="1.154701" d="M 604.464844 332.539062 L 604.464844 332.539062 "/>
<path fill="none" stroke-width="1" stroke-linecap="butt" stroke-linejoin="miter" stroke="rgb(0%, 0%, 0%)" stroke-opacity="1" stroke-miterlimit="1.154701" d="M 1074.816406 573.535156 L 1074.816406 573.535156 "/>
<path fill="none" stroke-width="1" stroke-linecap="butt" stroke-linejoin="miter" stroke="rgb(0%, 0%, 0%)" stroke-opacity="1" stroke-miterlimit="1.154701" d="M 100.261719 560.949219 L 100.261719 560.949219 "/>
<path fill="none" stroke-width="1" stroke-linecap="butt" stroke-linejoin="miter" stroke="rgb(0%, 0%, 0%)" stroke-opacity="1" stroke-miterlimit="1.154701" d="M 323.285156 336.171875 L 323.285156 336.171875 "/>
<path fill="none" stroke-width="1" stroke-linecap="butt" stroke-linejoin="miter" stroke="rgb(0%, 0%, 0%)" stroke-opacity="1" stroke-miterlimit="1.154701" d="M 869.421875 570.882812 L 869.421875 570.882812 "/>
<path fill="none" stroke-width="1" stroke-linecap="butt" stroke-linejoin="miter" stroke="rgb(0%, 0%, 0%)" stroke-opacity="1" stroke-miterlimit="1.154701" d="M 954.234375 571.976562 L 954.234375 571.976562 "/>
<path fill="none" stroke-width="1" stroke-linecap="butt" stroke-linejoin="miter" stroke="rgb(0%, 0%, 0%)" stroke-opacity="1" stroke-miterlimit="1.154701" d="M 941.890625 824.046875 L 941.890625 824.046875 "/>
<path fill="none" stroke-width="1" stroke-linecap="butt" stroke-linejoin="miter" stroke="rgb(0%, 0%, 0%)" stroke-opacity="1" stroke-miterlimit="1.154701" d="M 1074.816406 573.535156 L 1074.816406 573.535156 "/>
<path fill="none" stroke-width="1" stroke-linecap="butt" stroke-linejoin="miter" stroke="rgb(0%, 0%, 0%)" stroke-opacity="1" stroke-miterlimit="1.154701" d="M 100.261719 560.949219 L 100.261719 560.949219 "/>
<path fill="none" stroke-width="1" stroke-linecap="butt" stroke-linejoin="miter" stroke="rgb(0%, 0%, 0%)" stroke-opacity="1" stroke-miterlimit="1.154701" d="M 766.921875 817.109375 L 766.921875 817.109375 "/>
<path fill="none" stroke-width="1" stroke-linecap="butt" stroke-linejoin="miter" stroke="rgb(0%, 0%, 0%)" stroke-opacity="1" stroke-miterlimit="1.154701" d="M 869.421875 570.882812 L 869.421875 570.882812 "/>
<path fill="none" stroke-width="1" stroke-linecap="butt" stroke-linejoin="miter" stroke="rgb(0%, 0%, 0%)" stroke-opacity="1" stroke-miterlimit="1.154701" d="M 941.890625 824.046875 L 941.890625 824.046875 "/>
<path fill="none" stroke-width="1" stroke-linecap="butt" stroke-linejoin="miter" stroke="rgb(0%, 0%, 0%)" stroke-opacity="1" stroke-miterlimit="1.154701" d="M 766.921875 817.109375 L 766.921875 817.109375 "/>
</svg>
