<?xml version="1.0" encoding="UTF-8"?>
<svg xmlns="http://www.w3.org/2000/svg" xmlns:xlink="http://www.w3.org/1999/xlink" width="1400" height="900" viewBox="0 0 1400 900">
<defs>
<clipPath id="clip-0-830523b0">
<path clip-rule="nonzero" d="M 847 16 L 927 16 L 927 154 L 847 154 Z M 847 16 "/>
</clipPath>
<clipPath id="clip-1-830523b0">
<path clip-rule="nonzero" d="M 923 151 L 1384 151 L 1384 153 L 923 153 Z M 923 151 "/>
</clipPath>
<clipPath id="clip-2-830523b0">
<path clip-rule="nonzero" d="M 16 151 L 925 151 L 925 153 L 16 153 Z M 16 151 "/>
</clipPath>
<clipPath id="clip-3-830523b0">
<path clip-rule="nonzero" d="M 847 16 L 927 16 L 927 154 L 847 154 Z M 847 16 "/>
</clipPath>
<clipPath id="clip-4-830523b0">
<path clip-rule="nonzero" d="M 923 151 L 1384 151 L 1384 153 L 923 153 Z M 923 151 "/>
</clipPath>
<clipPath id="clip-5-830523b0">
<path clip-rule="nonzero" d="M 993 352 L 1384 352 L 1384 354 L 993 354 Z M 993 352 "/>
</clipPath>
<clipPath id="clip-6-830523b0">
<path clip-rule="nonzero" d="M 16 151 L 925 151 L 925 153 L 16 153 Z M 16 151 "/>
</clipPath>
<clipPath id="clip-7-830523b0">
<path clip-rule="nonzero" d="M 16 352 L 995 352 L 995 354 L 16 354 Z M 16 352 "/>
</clipPath>
<clipPath id="clip-8-830523b0">
<path clip-rule="nonzero" d="M 993 352 L 1384 352 L 1384 354 L 993 354 Z M 993 352 "/>
</clipPath>
<clipPath id="clip-9-830523b0">
<path clip-rule="nonzero" d="M 1025 546 L 1384 546 L 1384 548 L 1025 548 Z M 1025 546 "/>
</clipPath>
<clipPath id="clip-10-830523b0">
<path clip-rule="nonzero" d="M 16 352 L 995 352 L 995 354 L 16 354 Z M 16 352 "/>
</clipPath>
<clipPath id="clip-11-830523b0">
<path clip-rule="nonzero" d="M 16 546 L 1027 546 L 1027 548 L 16 548 Z M 16 546 "/>
</clipPath>
<clipPath id="clip-12-830523b0">
<path clip-rule="nonzero" d="M 1025 546 L 1384 546 L 1384 548 L 1025 548 Z M 1025 546 "/>
</clipPath>
<clipPath id="clip-13-830523b0">
<path clip-rule="nonzero" d="M 1030 747 L 1384 747 L 1384 749 L 1030 749 Z M 1030 747 "/>
</clipPath>
<clipPath id="clip-14-830523b0">
<path clip-rule="nonzero" d="M 16 546 L 1027 546 L 1027 548 L 16 548 Z M 16 546 "/>
</clipPath>
<clipPath id="clip-15-830523b0">
<path clip-rule="nonzero" d="M 16 747 L 1032 747 L 1032 749 L 16 749 Z M 16 747 "/>
</clipPath>
<clipPath id="clip-16-830523b0">
<path clip-rule="nonzero" d="M 1030 747 L 1384 747 L 1384 749 L 1030 749 Z M 1030 747 "/>
</clipPath>
<clipPath id="clip-17-830523b0">
<path clip-rule="nonzero" d="M 1019 746 L 1033 746 L 1033 884 L 1019 884 Z M 1019 746 "/>
</clipPath>
<clipPath id="clip-18-830523b0">
<path clip-rule="nonzero" d="M 16 747 L 1032 747 L 1032 749 L 16 749 Z M 16 747 "/>
</clipPath>
<clipPath id="clip-19-830523b0">
<path clip-rule="nonzero" d="M 1019 746 L 1033 746 L 1033 884 L 1019 884 Z M 1019 746 "/>
</clipPath>
</defs>
<g clip-path="url(#clip-0-830523b0)">
<path fill="none" stroke-width="1" stroke-linecap="butt" stroke-linejoin="miter" stroke="rgb(0%, 0%, 0%)" stroke-opacity="1" stroke-miterlimit="1.154701" d="M 849.296875 16 L 924.417969 151.882812 "/>
</g>
<g clip-path="url(#clip-1-830523b0)">
<path fill="none" stroke-width="1" stroke-linecap="butt" stroke-linejoin="miter" stroke="rgb(0%, 0%, 0%)" stroke-opacity="1" stroke-miterlimit="1.154701" d="M 924.417969 151.882812 L 1384 151.882812 "/>
</g>
<g clip-path="url(#clip-2-830523b0)">
<path fill="none" stroke-width="1" stroke-linecap="butt" stroke-linejoin="miter" stroke="rgb(0%, 0%, 0%)" stroke-opacity="1" stroke-miterlimit="1.154701" d="M 16 151.882812 L 924.417969 151.882812 "/>
</g>
<g clip-path="url(#clip-3-830523b0)">
<path fill="none" stroke-width="1" stroke-linecap="butt" stroke-linejoin="miter" stroke="rgb(0%, 0%, 0%)" stroke-opacity="1" stroke-miterlimit="1.154701" d="M 924.417969 151.882812 L 849.296875 16 "/>
</g>
<g clip-path="url(#clip-4-830523b0)">
<path fill="none" stroke-width="1" stroke-linecap="butt" stroke-linejoin="miter" stroke="rgb(0%, 0%, 0%)" stroke-opacity="1" stroke-miterlimit="1.154701" d="M 1384 151.882812 L 924.417969 151.882812 "/>
</g>
<path fill="none" stroke-width="1" stroke-linecap="butt" stroke-linejoin="miter" stroke="rgb(0%, 0%, 0%)" stroke-opacity="1" stroke-miterlimit="1.154701" d="M 924.417969 151.882812 L 994.335938 352.910156 "/>
<g clip-path="url(#clip-5-830523b0)">
<path fill="none" stroke-width="1" stroke-linecap="butt" stroke-linejoin="miter" stroke="rgb(0%, 0%, 0%)" stroke-opacity="1" stroke-miterlimit="1.154701" d="M 994.335938 352.910156 L 1384 352.910156 "/>
</g>
<g clip-path="url(#clip-6-830523b0)">
<path fill="none" stroke-width="1" stroke-linecap="butt" stroke-linejoin="miter" stroke="rgb(0%, 0%, 0%)" stroke-opacity="1" stroke-miterlimit="1.154701" d="M 924.417969 151.882812 L 16 151.882812 "/>
</g>
<g clip-path="url(#clip-7-830523b0)">
<path fill="none" stroke-width="1" stroke-linecap="butt" stroke-linejoin="miter" stroke="rgb(0%, 0%, 0%)" stroke-opacity="1" stroke-miterlimit="1.154701" d="M 16 352.910156 L 994.335938 352.910156 "/>
</g>
<path fill="none" stroke-width="1" stroke-linecap="butt" stroke-linejoin="miter" stroke="rgb(0%, 0%, 0%)" stroke-opacity="1" stroke-miterlimit="1.154701" d="M 994.335938 352.910156 L 924.417969 151.882812 "/>
<g clip-path="url(#clip-8-830523b0)">
<path fill="none" stroke-width="1" stroke-linecap="butt" stroke-linejoin="miter" stroke="rgb(0%, 0%, 0%)" stroke-opacity="1" stroke-miterlimit="1.154701" d="M 1384 352.910156 L 994.335938 352.910156 "/>
</g>
<path fill="none" stroke-width="1" stroke-linecap="butt" stroke-linejoin="miter" stroke="rgb(0%, 0%, 0%)" stroke-opacity="1" stroke-miterlimit="1.154701" d="M 994.335938 352.910156 L 1025.640625 547.089844 "/>
<g clip-path="url(#clip-9-830523b0)">
<path fill="none" stroke-width="1" stroke-linecap="butt" stroke-linejoin="miter" stroke="rgb(0%, 0%, 0%)" stroke-opacity="1" stroke-miterlimit="1.154701" d="M 1025.640625 547.089844 L 1384 547.089844 "/>
</g>
<g clip-path="url(#clip-10-830523b0)">
<path fill="none" stroke-width="1" stroke-linecap="butt" stroke-linejoin="miter" stroke="rgb(0%, 0%, 0%)" stroke-opacity="1" stroke-miterlimit="1.154701" d="M 994.335938 352.910156 L 16 352.910156 "/>
</g>
<g clip-path="url(#clip-11-830523b0)">
<path fill="none" stroke-width="1" stroke-linecap="butt" stroke-linejoin="miter" stroke="rgb(0%, 0%, 0%)" stroke-opacity="1" stroke-miterlimit="1.154701" d="M 16 547.089844 L 1025.640625 547.089844 "/>
</g>
<path fill="none" stroke-width="1" stroke-linecap="butt" stroke-linejoin="miter" stroke="rgb(0%, 0%, 0%)" stroke-opacity="1" stroke-miterlimit="1.154701" d="M 1025.640625 547.089844 L 994.335938 352.910156 "/>
<g clip-path="url(#clip-12-830523b0)">
<path fill="none" stroke-width="1" stroke-linecap="butt" stroke-linejoin="miter" stroke="rgb(0%, 0%, 0%)" stroke-opacity="1" stroke-miterlimit="1.154701" d="M 1384 547.089844 L 1025.640625 547.089844 "/>
</g>
<path fill="none" stroke-width="1" stroke-linecap="butt" stroke-linejoin="miter" stroke="rgb(0%, 0%, 0%)" stroke-opacity="1" stroke-miterlimit="1.154701" d="M 1025.640625 547.089844 L 1031.003906 748.117188 "/>
<g clip-path="url(#clip-13-830523b0)">
<path fill="none" stroke-width="1" stroke-linecap="butt" stroke-linejoin="miter" stroke="rgb(0%, 0%, 0%)" stroke-opacity="1" stroke-miterlimit="1.154701" d="M 1031.003906 748.117188 L 1384 748.117188 "/>
</g>
<g clip-path="url(#clip-14-830523b0)">
<path fill="none" stroke-width="1" stroke-linecap="butt" stroke-linejoin="miter" stroke="rgb(0%, 0%, 0%)" stroke-opacity="1" stroke-miterlimit="1.154701" d="M 1025.640625 547.089844 L 16 547.089844 "/>
</g>
<g clip-path="url(#clip-15-830523b0)">
<path fill="none" stroke-width="1" stroke-linecap="butt" stroke-linejoin="miter" stroke="rgb(0%, 0%, 0%)" stroke-opacity="1" stroke-miterlimit="1.154701" d="M 16 748.117188 L 1031.003906 748.117188 "/>
</g>
<path fill="none" stroke-width="1" stroke-linecap="butt" stroke-linejoin="miter" stroke="rgb(0%, 0%, 0%)" stroke-opacity="1" stroke-miterlimit="1.154701" d="M 1031.003906 748.117188 L 1025.640625 547.089844 "/>
<g clip-path="url(#clip-16-830523b0)">
<path fill="none" stroke-width="1" stroke-linecap="butt" stroke-linejoin="miter" stroke="rgb(0%, 0%, 0%)" stroke-opacity="1" stroke-miterlimit="1.154701" d="M 1384 748.117188 L 1031.003906 748.117188 "/>
</g>
<g clip-path="url(#clip-17-830523b0)">
<path fill="none" stroke-width="1" stroke-linecap="butt" stroke-linejoin="miter" stroke="rgb(0%, 0%, 0%)" stroke-opacity="1" stroke-miterlimit="1.154701" d="M 1031.003906 748.117188 L 1021.113281 884 "/>
</g>
<g clip-path="url(#clip-18-830523b0)">
<path fill="none" stroke-width="1" stroke-linecap="butt" stroke-linejoin="miter" stroke="rgb(0%, 0%, 0%)" stroke-opacity="1" stroke-miterlimit="1.154701" d="M 1031.003906 748.117188 L 16 748.117188 "/>
</g>
<g clip-path="url(#clip-19-830523b0)">
<path fill="none" stroke-width="1" stroke-linecap="butt" stroke-linejoin="miter" stroke="rgb(0%, 0%, 0%)" stroke-opacity="1" stroke-miterlimit="1.154701" d="M 1021.113281 884 L 1031.003906 748.117188 "/>
</g>
<path fill="none" stroke-width="1" stroke-linecap="butt" stroke-linejoin="miter" stroke="rgb(0%, 0%, 0%)" stroke-opacity="1" stroke-miterlimit="1.154701" d="M 1065.074219 151.882812 L 1065.074219 151.882812 "/>
<path fill="none" stroke-width="1" stroke-linecap="butt" stroke-linejoin="miter" stroke="rgb(0%, 0%, 0%)" stroke-opacity="1" stroke-miterlimit="1.154701" d="M 55.824219 151.882812 L 55.824219 151.882812 "/>
<path fill="none" stroke-width="1" stroke-linecap="butt" stroke-linejoin="miter" stroke="rgb(0%, 0%, 0%)" stroke-opacity="1" stroke-miterlimit="1.154701" d="M 1133.019531 352.910156 L 1133.019531 352.910156 "/>
<path fill="none" stroke-width="1" stroke-linecap="butt" stroke-linejoin="miter" stroke="rgb(0%, 0%, 0%)" stroke-opacity="1" stroke-miterlimit="1.154701" d="M 1065.074219 151.882812 L 1065.074219 151.882812 "/>
<path fill="none" stroke-width="1" stroke-linecap="butt" stroke-linejoin="miter" stroke="rgb(0%, 0%, 0%)" stroke-opacity="1" stroke-miterlimit="1.154701" d="M 1015.609375 352.910156 L 1015.609375 352.910156 "/>
<path fill="none" stroke-width="1" stroke-linecap="butt" stroke-linejoin="miter" stroke="rgb(0%, 0%, 0%)" stroke-opacity="1" stroke-miterlimit="1.154701" d="M 1323.824219 352.910156 L 1323.824219 352.910156 "/>
<path fill="none" stroke-width="1" stroke-linecap="butt" stroke-linejoin="miter" stroke="rgb(0%, 0%, 0%)" stroke-opacity="1" stroke-miterlimit="1.154701" d="M 55.824219 151.882812 L 55.824219 151.882812 "/>
<path fill="none" stroke-width="1" stroke-linecap="butt" stroke-linejoin="miter" stroke="rgb(0%, 0%, 0%)" stroke-opacity="1" stroke-miterlimit="1.154701" d="M 1133.019531 352.910156 L 1133.019531 352.910156 "/>
<path fill="none" stroke-width="1" stroke-linecap="butt" stroke-linejoin="miter" stroke="rgb(0%, 0%, 0%)" stroke-opacity="1" stroke-miterlimit="1.154701" d="M 1167.261719 547.089844 L 1167.261719 547.089844 "/>
<path fill="none" stroke-width="1" stroke-linecap="butt" stroke-linejoin="miter" stroke="rgb(0%, 0%, 0%)" stroke-opacity="1" stroke-miterlimit="1.154701" d="M 1015.609375 352.910156 L 1015.609375 352.910156 "/>
<path fill="none" stroke-width="1" stroke-linecap="butt" stroke-linejoin="miter" stroke="rgb(0%, 0%, 0%)" stroke-opacity="1" stroke-miterlimit="1.154701" d="M 1323.824219 352.910156 L 1323.824219 352.910156 "/>
<path fill="none" stroke-width="1" stroke-linecap="butt" stroke-linejoin="miter" stroke="rgb(0%, 0%, 0%)" stroke-opacity="1" stroke-miterlimit="1.154701" d="M 683.777344 547.089844 L 683.777344 547.089844 "/>
<path fill="none" stroke-width="1" stroke-linecap="butt" stroke-linejoin="miter" stroke="rgb(0%, 0%, 0%)" stroke-opacity="1" stroke-miterlimit="1.154701" d="M 1167.261719 547.089844 L 1167.261719 547.089844 "/>
<path fill="none" stroke-width="1" stroke-linecap="butt" stroke-linejoin="miter" stroke="rgb(0%, 0%, 0%)" stroke-opacity="1" stroke-miterlimit="1.154701" d="M 782.5 748.117188 L 782.5 748.117188 "/>
<path fill="none" stroke-width="1" stroke-linecap="butt" stroke-linejoin="miter" stroke="rgb(0%, 0%, 0%)" stroke-opacity="1" stroke-miterlimit="1.154701" d="M 817.738281 748.117188 L 817.738281 748.117188 "/>
<path fill="none" stroke-width="1" stroke-linecap="butt" stroke-linejoin="miter" stroke="rgb(0%, 0%, 0%)" stroke-opacity="1" stroke-miterlimit="1.154701" d="M 683.777344 547.089844 L 683.777344 547.089844 "/>
<path fill="none" stroke-width="1" stroke-linecap="butt" stroke-linejoin="miter" stroke="rgb(0%, 0%, 0%)" stroke-opacity="1" stroke-miterlimit="1.154701" d="M 1089.863281 748.113281 L 1089.863281 748.113281 "/>
<path fill="none" stroke-width="1" stroke-linecap="butt" stroke-linejoin="miter" stroke="rgb(0%, 0%, 0%)" stroke-opacity="1" stroke-miterlimit="1.154701" d="M 202.800781 748.117188 L 202.800781 748.117188 "/>
<path fill="none" stroke-width="1" stroke-linecap="butt" stroke-linejoin="miter" stroke="rgb(0%, 0%, 0%)" stroke-opacity="1" stroke-miterlimit="1.154701" d="M 254.25 748.117188 L 254.25 748.117188 "/>
<path fill="none" stroke-width="1" stroke-linecap="butt" stroke-linejoin="miter" stroke="rgb(0%, 0%, 0%)" stroke-opacity="1" stroke-miterlimit="1.154701" d="M 782.5 748.117188 L 782.5 748.117188 "/>
<path fill="none" stroke-width="1" stroke-linecap="butt" stroke-linejoin="miter" stroke="rgb(0%, 0%, 0%)" stroke-opacity="1" stroke-miterlimit="1.154701" d="M 817.738281 748.117188 L 817.738281 748.117188 "/>
<path fill="none" stroke-width="1" stroke-linecap="butt" stroke-linejoin="miter" stroke="rgb(0%, 0%, 0%)" stroke-opacity="1" stroke-miterlimit="1.154701" d="M 1089.863281 748.113281 L 1089.863281 748.113281 "/>
<path fill="none" stroke-width="1" stroke-linecap="butt" stroke-linejoin="miter" stroke="rgb(0%, 0%, 0%)" stroke-opacity="1" stroke-miterlimit="1.154701" d="M 202.800781 748.117188 L 202.800781 748.117188 "/>
<path fill="none" stroke-width="1" stroke-linecap="butt" stroke-linejoin="miter" stroke="rgb(0%, 0%, 0%)" stroke-opacity="1" stroke-miterlimit="1.154701" d="M 254.25 748.117188 L 254.25 748.117188 "/>
</svg>
