<?xml version="1.0" encoding="UTF-8"?>
<svg xmlns="http://www.w3.org/2000/svg" xmlns:xlink="http://www.w3.org/1999/xlink" width="1400" height="900" viewBox="0 0 1400 900">
<defs>
<clipPath id="clip-0-3911a2c8">
<path clip-rule="nonzero" d="M 561 16 L 589 16 L 589 43 L 561 43 Z M 561 16 "/>
</clipPath>
<clipPath id="clip-1-3911a2c8">
<path clip-rule="nonzero" d="M 585 16 L 677 16 L 677 43 L 585 43 Z M 585 16 "/>
</clipPath>
<clipPath id="clip-2-3911a2c8">
<path clip-rule="nonzero" d="M 16 62 L 152 62 L 152 175 L 16 175 Z M 16 62 "/>
</clipPath>
<clipPath id="clip-3-3911a2c8">
<path clip-rule="nonzero" d="M 561 16 L 589 16 L 589 43 L 561 43 Z M 561 16 "/>
</clipPath>
<clipPath id="clip-4-3911a2c8">
<path clip-rule="nonzero" d="M 16 171 L 152 171 L 152 221 L 16 221 Z M 16 171 "/>
</clipPath>
<clipPath id="clip-5-3911a2c8">
<path clip-rule="nonzero" d="M 16 62 L 152 62 L 152 175 L 16 175 Z M 16 62 "/>
</clipPath>
<clipPath id="clip-6-3911a2c8">
<path clip-rule="nonzero" d="M 1267 16 L 1384 16 L 1384 251 L 1267 251 Z M 1267 16 "/>
</clipPath>
<clipPath id="clip-7-3911a2c8">
<path clip-rule="nonzero" d="M 1381 246 L 1384 246 L 1384 251 L 1381 251 Z M 1381 246 "/>
</clipPath>
<clipPath id="clip-8-3911a2c8">
<path clip-rule="nonzero" d="M 585 16 L 677 16 L 677 43 L 585 43 Z M 585 16 "/>
</clipPath>
<clipPath id="clip-9-3911a2c8">
<path clip-rule="nonzero" d="M 759 247 L 1384 247 L 1384 308 L 759 308 Z M 759 247 "/>
</clipPath>
<clipPath id="clip-10-3911a2c8">
<path clip-rule="nonzero" d="M 1267 16 L 1384 16 L 1384 251 L 1267 251 Z M 1267 16 "/>
</clipPath>
<clipPath id="clip-11-3911a2c8">
<path clip-rule="nonzero" d="M 16 171 L 152 171 L 152 221 L 16 221 Z M 16 171 "/>
</clipPath>
<clipPath id="clip-12-3911a2c8">
<path clip-rule="nonzero" d="M 16 349 L 296 349 L 296 382 L 16 382 Z M 16 349 "/>
</clipPath>
<clipPath id="clip-13-3911a2c8">
<path clip-rule="nonzero" d="M 1381 246 L 1384 246 L 1384 251 L 1381 251 Z M 1381 246 "/>
</clipPath>
<clipPath id="clip-14-3911a2c8">
<path clip-rule="nonzero" d="M 1381 247 L 1384 247 L 1384 253 L 1381 253 Z M 1381 247 "/>
</clipPath>
<clipPath id="clip-15-3911a2c8">
<path clip-rule="nonzero" d="M 759 247 L 1384 247 L 1384 308 L 759 308 Z M 759 247 "/>
</clipPath>
<clipPath id="clip-16-3911a2c8">
<path clip-rule="nonzero" d="M 869 604 L 1384 604 L 1384 658 L 869 658 Z M 869 604 "/>
</clipPath>
<clipPath id="clip-17-3911a2c8">
<path clip-rule="nonzero" d="M 1381 247 L 1384 247 L 1384 253 L 1381 253 Z M 1381 247 "/>
</clipPath>
<clipPath id="clip-18-3911a2c8">
<path clip-rule="nonzero" d="M 16 349 L 296 349 L 296 382 L 16 382 Z M 16 349 "/>
</clipPath>
<clipPath id="clip-19-3911a2c8">
<path clip-rule="nonzero" d="M 16 516 L 373 516 L 373 558 L 16 558 Z M 16 516 "/>
</clipPath>
<clipPath id="clip-20-3911a2c8">
<path clip-rule="nonzero" d="M 16 473 L 21 473 L 21 484 L 16 484 Z M 16 473 "/>
</clipPath>
<clipPath id="clip-21-3911a2c8">
<path clip-rule="nonzero" d="M 16 480 L 21 480 L 21 484 L 16 484 Z M 16 480 "/>
</clipPath>
<clipPath id="clip-22-3911a2c8">
<path clip-rule="nonzero" d="M 869 604 L 1384 604 L 1384 658 L 869 658 Z M 869 604 "/>
</clipPath>
<clipPath id="clip-23-3911a2c8">
<path clip-rule="nonzero" d="M 869 604 L 903 604 L 903 884 L 869 884 Z M 869 604 "/>
</clipPath>
<clipPath id="clip-24-3911a2c8">
<path clip-rule="nonzero" d="M 361 784 L 652 784 L 652 884 L 361 884 Z M 361 784 "/>
</clipPath>
<clipPath id="clip-25-3911a2c8">
<path clip-rule="nonzero" d="M 869 604 L 903 604 L 903 884 L 869 884 Z M 869 604 "/>
</clipPath>
<clipPath id="clip-26-3911a2c8">
<path clip-rule="nonzero" d="M 16 516 L 373 516 L 373 558 L 16 558 Z M 16 516 "/>
</clipPath>
<clipPath id="clip-27-3911a2c8">
<path clip-rule="nonzero" d="M 16 661 L 365 661 L 365 788 L 16 788 Z M 16 661 "/>
</clipPath>
<clipPath id="clip-28-3911a2c8">
<path clip-rule="nonzero" d="M 16 480 L 21 480 L 21 484 L 16 484 Z M 16 480 "/>
</clipPath>
<clipPath id="clip-29-3911a2c8">
<path clip-rule="nonzero" d="M 16 546 L 30 546 L 30 552 L 16 552 Z M 16 546 "/>
</clipPath>
<clipPath id="clip-30-3911a2c8">
<path clip-rule="nonzero" d="M 361 784 L 652 784 L 652 884 L 361 884 Z M 361 784 "/>
</clipPath>
<clipPath id="clip-31-3911a2c8">
<path clip-rule="nonzero" d="M 317 784 L 365 784 L 365 884 L 317 884 Z M 317 784 "/>
</clipPath>
<clipPath id="clip-32-3911a2c8">
<path clip-rule="nonzero" d="M 16 661 L 365 661 L 365 788 L 16 788 Z M 16 661 "/>
</clipPath>
<clipPath id="clip-33-3911a2c8">
<path clip-rule="nonzero" d="M 16 864 L 43 864 L 43 884 L 16 884 Z M 16 864 "/>
</clipPath>
<clipPath id="clip-34-3911a2c8">
<path clip-rule="nonzero" d="M 317 784 L 365 784 L 365 884 L 317 884 Z M 317 784 "/>
</clipPath>
<clipPath id="clip-35-3911a2c8">
<path clip-rule="nonzero" d="M 16 546 L 30 546 L 30 552 L 16 552 Z M 16 546 "/>
</clipPath>
<clipPath id="clip-36-3911a2c8">
<path clip-rule="nonzero" d="M 16 548 L 30 548 L 30 590 L 16 590 Z M 16 548 "/>
</clipPath>
<clipPath id="clip-37-3911a2c8">
<path clip-rule="nonzero" d="M 16 864 L 43 864 L 43 884 L 16 884 Z M 16 864 "/>
</clipPath>
</defs>
<g clip-path="url(#clip-0-3911a2c8)">
<path fill="none" stroke-width="1" stroke-linecap="butt" stroke-linejoin="miter" stroke="rgb(0%, 0%, 0%)" stroke-opacity="1" stroke-miterlimit="1.154701" d="M 563.628906 16 L 587 41.074219 "/>
</g>
<g clip-path="url(#clip-1-3911a2c8)">
<path fill="none" stroke-width="1" stroke-linecap="butt" stroke-linejoin="miter" stroke="rgb(0%, 0%, 0%)" stroke-opacity="1" stroke-miterlimit="1.154701" d="M 587 41.074219 L 674.804688 16 "/>
</g>
<g clip-path="url(#clip-2-3911a2c8)">
<path fill="none" stroke-width="1" stroke-linecap="butt" stroke-linejoin="miter" stroke="rgb(0%, 0%, 0%)" stroke-opacity="1" stroke-miterlimit="1.154701" d="M 16 64.445312 L 150.054688 173.023438 "/>
</g>
<path fill="none" stroke-width="1" stroke-linecap="butt" stroke-linejoin="miter" stroke="rgb(0%, 0%, 0%)" stroke-opacity="1" stroke-miterlimit="1.154701" d="M 150.054688 173.023438 L 587 41.074219 "/>
<g clip-path="url(#clip-3-3911a2c8)">
<path fill="none" stroke-width="1" stroke-linecap="butt" stroke-linejoin="miter" stroke="rgb(0%, 0%, 0%)" stroke-opacity="1" stroke-miterlimit="1.154701" d="M 587 41.074219 L 563.628906 16 "/>
</g>
<g clip-path="url(#clip-4-3911a2c8)">
<path fill="none" stroke-width="1" stroke-linecap="butt" stroke-linejoin="miter" stroke="rgb(0%, 0%, 0%)" stroke-opacity="1" stroke-miterlimit="1.154701" d="M 16 218.472656 L 150.054688 173.023438 "/>
</g>
<g clip-path="url(#clip-5-3911a2c8)">
<path fill="none" stroke-width="1" stroke-linecap="butt" stroke-linejoin="miter" stroke="rgb(0%, 0%, 0%)" stroke-opacity="1" stroke-miterlimit="1.154701" d="M 150.054688 173.023438 L 16 64.445312 "/>
</g>
<path fill="none" stroke-width="1" stroke-linecap="butt" stroke-linejoin="miter" stroke="rgb(0%, 0%, 0%)" stroke-opacity="1" stroke-miterlimit="1.154701" d="M 237.011719 297.527344 L 237.011719 297.527344 "/>
<g clip-path="url(#clip-6-3911a2c8)">
<path fill="none" stroke-width="1" stroke-linecap="butt" stroke-linejoin="miter" stroke="rgb(0%, 0%, 0%)" stroke-opacity="1" stroke-miterlimit="1.154701" d="M 1269.113281 16 L 1383.21875 248.652344 "/>
</g>
<g clip-path="url(#clip-7-3911a2c8)">
<path fill="none" stroke-width="1" stroke-linecap="butt" stroke-linejoin="miter" stroke="rgb(0%, 0%, 0%)" stroke-opacity="1" stroke-miterlimit="1.154701" d="M 1383.21875 248.652344 L 1384 248.578125 "/>
</g>
<g clip-path="url(#clip-8-3911a2c8)">
<path fill="none" stroke-width="1" stroke-linecap="butt" stroke-linejoin="miter" stroke="rgb(0%, 0%, 0%)" stroke-opacity="1" stroke-miterlimit="1.154701" d="M 674.804688 16 L 587 41.074219 "/>
</g>
<path fill="none" stroke-width="1" stroke-linecap="butt" stroke-linejoin="miter" stroke="rgb(0%, 0%, 0%)" stroke-opacity="1" stroke-miterlimit="1.154701" d="M 587 41.074219 L 760.992188 306.203125 "/>
<g clip-path="url(#clip-9-3911a2c8)">
<path fill="none" stroke-width="1" stroke-linecap="butt" stroke-linejoin="miter" stroke="rgb(0%, 0%, 0%)" stroke-opacity="1" stroke-miterlimit="1.154701" d="M 760.992188 306.203125 L 1383.21875 248.652344 "/>
</g>
<g clip-path="url(#clip-10-3911a2c8)">
<path fill="none" stroke-width="1" stroke-linecap="butt" stroke-linejoin="miter" stroke="rgb(0%, 0%, 0%)" stroke-opacity="1" stroke-miterlimit="1.154701" d="M 1383.21875 248.652344 L 1269.113281 16 "/>
</g>
<path fill="none" stroke-width="1" stroke-linecap="butt" stroke-linejoin="miter" stroke="rgb(0%, 0%, 0%)" stroke-opacity="1" stroke-miterlimit="1.154701" d="M 587 41.074219 L 150.054688 173.023438 "/>
<path fill="none" stroke-width="1" stroke-linecap="butt" stroke-linejoin="miter" stroke="rgb(0%, 0%, 0%)" stroke-opacity="1" stroke-miterlimit="1.154701" d="M 150.054688 173.023438 L 294.148438 350.980469 "/>
<path fill="none" stroke-width="1" stroke-linecap="butt" stroke-linejoin="miter" stroke="rgb(0%, 0%, 0%)" stroke-opacity="1" stroke-miterlimit="1.154701" d="M 294.148438 350.980469 L 760.992188 306.203125 "/>
<path fill="none" stroke-width="1" stroke-linecap="butt" stroke-linejoin="miter" stroke="rgb(0%, 0%, 0%)" stroke-opacity="1" stroke-miterlimit="1.154701" d="M 760.992188 306.203125 L 587 41.074219 "/>
<g clip-path="url(#clip-11-3911a2c8)">
<path fill="none" stroke-width="1" stroke-linecap="butt" stroke-linejoin="miter" stroke="rgb(0%, 0%, 0%)" stroke-opacity="1" stroke-miterlimit="1.154701" d="M 150.054688 173.023438 L 16 218.472656 "/>
</g>
<g clip-path="url(#clip-12-3911a2c8)">
<path fill="none" stroke-width="1" stroke-linecap="butt" stroke-linejoin="miter" stroke="rgb(0%, 0%, 0%)" stroke-opacity="1" stroke-miterlimit="1.154701" d="M 16 380.042969 L 294.148438 350.980469 "/>
</g>
<path fill="none" stroke-width="1" stroke-linecap="butt" stroke-linejoin="miter" stroke="rgb(0%, 0%, 0%)" stroke-opacity="1" stroke-miterlimit="1.154701" d="M 294.148438 350.980469 L 150.054688 173.023438 "/>
<path fill="none" stroke-width="1" stroke-linecap="butt" stroke-linejoin="miter" stroke="rgb(0%, 0%, 0%)" stroke-opacity="1" stroke-miterlimit="1.154701" d="M 237.011719 297.527344 L 237.011719 297.527344 "/>
<path fill="none" stroke-width="1" stroke-linecap="butt" stroke-linejoin="miter" stroke="rgb(0%, 0%, 0%)" stroke-opacity="1" stroke-miterlimit="1.154701" d="M 954.628906 648.734375 L 954.628906 648.734375 "/>
<g clip-path="url(#clip-13-3911a2c8)">
<path fill="none" stroke-width="1" stroke-linecap="butt" stroke-linejoin="miter" stroke="rgb(0%, 0%, 0%)" stroke-opacity="1" stroke-miterlimit="1.154701" d="M 1384 248.578125 L 1383.21875 248.652344 "/>
</g>
<g clip-path="url(#clip-14-3911a2c8)">
<path fill="none" stroke-width="1" stroke-linecap="butt" stroke-linejoin="miter" stroke="rgb(0%, 0%, 0%)" stroke-opacity="1" stroke-miterlimit="1.154701" d="M 1383.21875 248.652344 L 1384 250.390625 "/>
</g>
<g clip-path="url(#clip-15-3911a2c8)">
<path fill="none" stroke-width="1" stroke-linecap="butt" stroke-linejoin="miter" stroke="rgb(0%, 0%, 0%)" stroke-opacity="1" stroke-miterlimit="1.154701" d="M 1383.21875 248.652344 L 760.992188 306.203125 "/>
</g>
<path fill="none" stroke-width="1" stroke-linecap="butt" stroke-linejoin="miter" stroke="rgb(0%, 0%, 0%)" stroke-opacity="1" stroke-miterlimit="1.154701" d="M 760.992188 306.203125 L 871.511719 605.660156 "/>
<g clip-path="url(#clip-16-3911a2c8)">
<path fill="none" stroke-width="1" stroke-linecap="butt" stroke-linejoin="miter" stroke="rgb(0%, 0%, 0%)" stroke-opacity="1" stroke-miterlimit="1.154701" d="M 871.511719 605.660156 L 1384 655.980469 "/>
</g>
<g clip-path="url(#clip-17-3911a2c8)">
<path fill="none" stroke-width="1" stroke-linecap="butt" stroke-linejoin="miter" stroke="rgb(0%, 0%, 0%)" stroke-opacity="1" stroke-miterlimit="1.154701" d="M 1384 250.390625 L 1383.21875 248.652344 "/>
</g>
<path fill="none" stroke-width="1" stroke-linecap="butt" stroke-linejoin="miter" stroke="rgb(0%, 0%, 0%)" stroke-opacity="1" stroke-miterlimit="1.154701" d="M 760.992188 306.203125 L 294.148438 350.980469 "/>
<path fill="none" stroke-width="1" stroke-linecap="butt" stroke-linejoin="miter" stroke="rgb(0%, 0%, 0%)" stroke-opacity="1" stroke-miterlimit="1.154701" d="M 294.148438 350.980469 L 371.21875 555.609375 "/>
<path fill="none" stroke-width="1" stroke-linecap="butt" stroke-linejoin="miter" stroke="rgb(0%, 0%, 0%)" stroke-opacity="1" stroke-miterlimit="1.154701" d="M 371.21875 555.609375 L 871.511719 605.660156 "/>
<path fill="none" stroke-width="1" stroke-linecap="butt" stroke-linejoin="miter" stroke="rgb(0%, 0%, 0%)" stroke-opacity="1" stroke-miterlimit="1.154701" d="M 871.511719 605.660156 L 760.992188 306.203125 "/>
<g clip-path="url(#clip-18-3911a2c8)">
<path fill="none" stroke-width="1" stroke-linecap="butt" stroke-linejoin="miter" stroke="rgb(0%, 0%, 0%)" stroke-opacity="1" stroke-miterlimit="1.154701" d="M 294.148438 350.980469 L 16 380.042969 "/>
</g>
<g clip-path="url(#clip-19-3911a2c8)">
<path fill="none" stroke-width="1" stroke-linecap="butt" stroke-linejoin="miter" stroke="rgb(0%, 0%, 0%)" stroke-opacity="1" stroke-miterlimit="1.154701" d="M 16 517.886719 L 371.21875 555.609375 "/>
</g>
<path fill="none" stroke-width="1" stroke-linecap="butt" stroke-linejoin="miter" stroke="rgb(0%, 0%, 0%)" stroke-opacity="1" stroke-miterlimit="1.154701" d="M 371.21875 555.609375 L 294.148438 350.980469 "/>
<g clip-path="url(#clip-20-3911a2c8)">
<path fill="none" stroke-width="1" stroke-linecap="butt" stroke-linejoin="miter" stroke="rgb(0%, 0%, 0%)" stroke-opacity="1" stroke-miterlimit="1.154701" d="M 16 475.457031 L 19.339844 482.003906 "/>
</g>
<g clip-path="url(#clip-21-3911a2c8)">
<path fill="none" stroke-width="1" stroke-linecap="butt" stroke-linejoin="miter" stroke="rgb(0%, 0%, 0%)" stroke-opacity="1" stroke-miterlimit="1.154701" d="M 19.339844 482.003906 L 16 481.8125 "/>
</g>
<path fill="none" stroke-width="1" stroke-linecap="butt" stroke-linejoin="miter" stroke="rgb(0%, 0%, 0%)" stroke-opacity="1" stroke-miterlimit="1.154701" d="M 954.628906 648.734375 L 954.628906 648.734375 "/>
<g clip-path="url(#clip-22-3911a2c8)">
<path fill="none" stroke-width="1" stroke-linecap="butt" stroke-linejoin="miter" stroke="rgb(0%, 0%, 0%)" stroke-opacity="1" stroke-miterlimit="1.154701" d="M 1384 655.980469 L 871.511719 605.660156 "/>
</g>
<g clip-path="url(#clip-23-3911a2c8)">
<path fill="none" stroke-width="1" stroke-linecap="butt" stroke-linejoin="miter" stroke="rgb(0%, 0%, 0%)" stroke-opacity="1" stroke-miterlimit="1.154701" d="M 871.511719 605.660156 L 900.945312 884 "/>
</g>
<path fill="none" stroke-width="1" stroke-linecap="butt" stroke-linejoin="miter" stroke="rgb(0%, 0%, 0%)" stroke-opacity="1" stroke-miterlimit="1.154701" d="M 871.511719 605.660156 L 371.21875 555.609375 "/>
<path fill="none" stroke-width="1" stroke-linecap="butt" stroke-linejoin="miter" stroke="rgb(0%, 0%, 0%)" stroke-opacity="1" stroke-miterlimit="1.154701" d="M 371.21875 555.609375 L 362.773438 785.851562 "/>
<g clip-path="url(#clip-24-3911a2c8)">
<path fill="none" stroke-width="1" stroke-linecap="butt" stroke-linejoin="miter" stroke="rgb(0%, 0%, 0%)" stroke-opacity="1" stroke-miterlimit="1.154701" d="M 362.773438 785.851562 L 650.261719 884 "/>
</g>
<g clip-path="url(#clip-25-3911a2c8)">
<path fill="none" stroke-width="1" stroke-linecap="butt" stroke-linejoin="miter" stroke="rgb(0%, 0%, 0%)" stroke-opacity="1" stroke-miterlimit="1.154701" d="M 900.945312 884 L 871.511719 605.660156 "/>
</g>
<g clip-path="url(#clip-26-3911a2c8)">
<path fill="none" stroke-width="1" stroke-linecap="butt" stroke-linejoin="miter" stroke="rgb(0%, 0%, 0%)" stroke-opacity="1" stroke-miterlimit="1.154701" d="M 371.21875 555.609375 L 16 517.886719 "/>
</g>
<g clip-path="url(#clip-27-3911a2c8)">
<path fill="none" stroke-width="1" stroke-linecap="butt" stroke-linejoin="miter" stroke="rgb(0%, 0%, 0%)" stroke-opacity="1" stroke-miterlimit="1.154701" d="M 16 662.867188 L 362.773438 785.851562 "/>
</g>
<path fill="none" stroke-width="1" stroke-linecap="butt" stroke-linejoin="miter" stroke="rgb(0%, 0%, 0%)" stroke-opacity="1" stroke-miterlimit="1.154701" d="M 362.773438 785.851562 L 371.21875 555.609375 "/>
<g clip-path="url(#clip-28-3911a2c8)">
<path fill="none" stroke-width="1" stroke-linecap="butt" stroke-linejoin="miter" stroke="rgb(0%, 0%, 0%)" stroke-opacity="1" stroke-miterlimit="1.154701" d="M 16 481.8125 L 19.339844 482.003906 "/>
</g>
<path fill="none" stroke-width="1" stroke-linecap="butt" stroke-linejoin="miter" stroke="rgb(0%, 0%, 0%)" stroke-opacity="1" stroke-miterlimit="1.154701" d="M 19.339844 482.003906 L 27.917969 549.835938 "/>
<g clip-path="url(#clip-29-3911a2c8)">
<path fill="none" stroke-width="1" stroke-linecap="butt" stroke-linejoin="miter" stroke="rgb(0%, 0%, 0%)" stroke-opacity="1" stroke-miterlimit="1.154701" d="M 27.917969 549.835938 L 16 547.753906 "/>
</g>
<g clip-path="url(#clip-30-3911a2c8)">
<path fill="none" stroke-width="1" stroke-linecap="butt" stroke-linejoin="miter" stroke="rgb(0%, 0%, 0%)" stroke-opacity="1" stroke-miterlimit="1.154701" d="M 650.261719 884 L 362.773438 785.851562 "/>
</g>
<g clip-path="url(#clip-31-3911a2c8)">
<path fill="none" stroke-width="1" stroke-linecap="butt" stroke-linejoin="miter" stroke="rgb(0%, 0%, 0%)" stroke-opacity="1" stroke-miterlimit="1.154701" d="M 362.773438 785.851562 L 318.960938 884 "/>
</g>
<g clip-path="url(#clip-32-3911a2c8)">
<path fill="none" stroke-width="1" stroke-linecap="butt" stroke-linejoin="miter" stroke="rgb(0%, 0%, 0%)" stroke-opacity="1" stroke-miterlimit="1.154701" d="M 362.773438 785.851562 L 16 662.867188 "/>
</g>
<g clip-path="url(#clip-33-3911a2c8)">
<path fill="none" stroke-width="1" stroke-linecap="butt" stroke-linejoin="miter" stroke="rgb(0%, 0%, 0%)" stroke-opacity="1" stroke-miterlimit="1.154701" d="M 16 865.75 L 40.65625 884 "/>
</g>
<g clip-path="url(#clip-34-3911a2c8)">
<path fill="none" stroke-width="1" stroke-linecap="butt" stroke-linejoin="miter" stroke="rgb(0%, 0%, 0%)" stroke-opacity="1" stroke-miterlimit="1.154701" d="M 318.960938 884 L 362.773438 785.851562 "/>
</g>
<g clip-path="url(#clip-35-3911a2c8)">
<path fill="none" stroke-width="1" stroke-linecap="butt" stroke-linejoin="miter" stroke="rgb(0%, 0%, 0%)" stroke-opacity="1" stroke-miterlimit="1.154701" d="M 16 547.753906 L 27.917969 549.835938 "/>
</g>
<g clip-path="url(#clip-36-3911a2c8)">
<path fill="none" stroke-width="1" stroke-linecap="butt" stroke-linejoin="miter" stroke="rgb(0%, 0%, 0%)" stroke-opacity="1" stroke-miterlimit="1.154701" d="M 27.917969 549.835938 L 16 587.734375 "/>
</g>
<g clip-path="url(#clip-37-3911a2c8)">
<path fill="none" stroke-width="1" stroke-linecap="butt" stroke-linejoin="miter" stroke="rgb(0%, 0%, 0%)" stroke-opacity="1" stroke-miterlimit="1.154701" d="M 40.65625 884 L 16 865.75 "/>
</g>
</svg>
