<?xml version="1.0" encoding="UTF-8"?>
<svg xmlns="http://www.w3.org/2000/svg" xmlns:xlink="http://www.w3.org/1999/xlink" width="1400" height="900" viewBox="0 0 1400 900">
<defs>
<clipPath id="clip-0-da3e042e">
<path clip-rule="nonzero" d="M 16 18 L 136 18 L 136 128 L 16 128 Z M 16 18 "/>
</clipPath>
<clipPath id="clip-1-da3e042e">
<path clip-rule="nonzero" d="M 132 89 L 1384 89 L 1384 128 L 132 128 Z M 132 89 "/>
</clipPath>
<clipPath id="clip-2-da3e042e">
<path clip-rule="nonzero" d="M 16 123 L 136 123 L 136 132 L 16 132 Z M 16 123 "/>
</clipPath>
<clipPath id="clip-3-da3e042e">
<path clip-rule="nonzero" d="M 16 18 L 136 18 L 136 128 L 16 128 Z M 16 18 "/>
</clipPath>
<clipPath id="clip-4-da3e042e">
<path clip-rule="nonzero" d="M 132 89 L 1384 89 L 1384 128 L 132 128 Z M 132 89 "/>
</clipPath>
<clipPath id="clip-5-da3e042e">
<path clip-rule="nonzero" d="M 309 333 L 1384 333 L 1384 346 L 309 346 Z M 309 333 "/>
</clipPath>
<clipPath id="clip-6-da3e042e">
<path clip-rule="nonzero" d="M 16 123 L 136 123 L 136 132 L 16 132 Z M 16 123 "/>
</clipPath>
<clipPath id="clip-7-da3e042e">
<path clip-rule="nonzero" d="M 16 342 L 314 342 L 314 350 L 16 350 Z M 16 342 "/>
</clipPath>
<clipPath id="clip-8-da3e042e">
<path clip-rule="nonzero" d="M 309 333 L 1384 333 L 1384 346 L 309 346 Z M 309 333 "/>
</clipPath>
<clipPath id="clip-9-da3e042e">
<path clip-rule="nonzero" d="M 399 553 L 1384 553 L 1384 566 L 399 566 Z M 399 553 "/>
</clipPath>
<clipPath id="clip-10-da3e042e">
<path clip-rule="nonzero" d="M 16 342 L 314 342 L 314 350 L 16 350 Z M 16 342 "/>
</clipPath>
<clipPath id="clip-11-da3e042e">
<path clip-rule="nonzero" d="M 16 549 L 403 549 L 403 558 L 16 558 Z M 16 549 "/>
</clipPath>
<clipPath id="clip-12-da3e042e">
<path clip-rule="nonzero" d="M 399 553 L 1384 553 L 1384 566 L 399 566 Z M 399 553 "/>
</clipPath>
<clipPath id="clip-13-da3e042e">
<path clip-rule="nonzero" d="M 409 772 L 1384 772 L 1384 803 L 409 803 Z M 409 772 "/>
</clipPath>
<clipPath id="clip-14-da3e042e">
<path clip-rule="nonzero" d="M 16 549 L 403 549 L 403 558 L 16 558 Z M 16 549 "/>
</clipPath>
<clipPath id="clip-15-da3e042e">
<path clip-rule="nonzero" d="M 16 759 L 414 759 L 414 777 L 16 777 Z M 16 759 "/>
</clipPath>
<clipPath id="clip-16-da3e042e">
<path clip-rule="nonzero" d="M 409 772 L 1384 772 L 1384 803 L 409 803 Z M 409 772 "/>
</clipPath>
<clipPath id="clip-17-da3e042e">
<path clip-rule="nonzero" d="M 377 772 L 414 772 L 414 884 L 377 884 Z M 377 772 "/>
</clipPath>
<clipPath id="clip-18-da3e042e">
<path clip-rule="nonzero" d="M 16 759 L 414 759 L 414 777 L 16 777 Z M 16 759 "/>
</clipPath>
<clipPath id="clip-19-da3e042e">
<path clip-rule="nonzero" d="M 377 772 L 414 772 L 414 884 L 377 884 Z M 377 772 "/>
</clipPath>
</defs>
<g clip-path="url(#clip-0-da3e042e)">
<path fill="none" stroke-width="1" stroke-linecap="butt" stroke-linejoin="miter" stroke="rgb(0%, 0%, 0%)" stroke-opacity="1" stroke-miterlimit="1.154701" d="M 16 20.445312 L 133.996094 125.480469 "/>
</g>
<g clip-path="url(#clip-1-da3e042e)">
<path fill="none" stroke-width="1" stroke-linecap="butt" stroke-linejoin="miter" stroke="rgb(0%, 0%, 0%)" stroke-opacity="1" stroke-miterlimit="1.154701" d="M 133.996094 125.480469 L 1384 91.230469 "/>
</g>
<g clip-path="url(#clip-2-da3e042e)">
<path fill="none" stroke-width="1" stroke-linecap="butt" stroke-linejoin="miter" stroke="rgb(0%, 0%, 0%)" stroke-opacity="1" stroke-miterlimit="1.154701" d="M 16 129.597656 L 133.996094 125.480469 "/>
</g>
<g clip-path="url(#clip-3-da3e042e)">
<path fill="none" stroke-width="1" stroke-linecap="butt" stroke-linejoin="miter" stroke="rgb(0%, 0%, 0%)" stroke-opacity="1" stroke-miterlimit="1.154701" d="M 133.996094 125.480469 L 16 20.445312 "/>
</g>
<g clip-path="url(#clip-4-da3e042e)">
<path fill="none" stroke-width="1" stroke-linecap="butt" stroke-linejoin="miter" stroke="rgb(0%, 0%, 0%)" stroke-opacity="1" stroke-miterlimit="1.154701" d="M 1384 91.230469 L 133.996094 125.480469 "/>
</g>
<path fill="none" stroke-width="1" stroke-linecap="butt" stroke-linejoin="miter" stroke="rgb(0%, 0%, 0%)" stroke-opacity="1" stroke-miterlimit="1.154701" d="M 133.996094 125.480469 L 311.554688 344.304688 "/>
<g clip-path="url(#clip-5-da3e042e)">
<path fill="none" stroke-width="1" stroke-linecap="butt" stroke-linejoin="miter" stroke="rgb(0%, 0%, 0%)" stroke-opacity="1" stroke-miterlimit="1.154701" d="M 311.554688 344.304688 L 1384 334.84375 "/>
</g>
<g clip-path="url(#clip-6-da3e042e)">
<path fill="none" stroke-width="1" stroke-linecap="butt" stroke-linejoin="miter" stroke="rgb(0%, 0%, 0%)" stroke-opacity="1" stroke-miterlimit="1.154701" d="M 133.996094 125.480469 L 16 129.597656 "/>
</g>
<g clip-path="url(#clip-7-da3e042e)">
<path fill="none" stroke-width="1" stroke-linecap="butt" stroke-linejoin="miter" stroke="rgb(0%, 0%, 0%)" stroke-opacity="1" stroke-miterlimit="1.154701" d="M 16 347.59375 L 311.554688 344.304688 "/>
</g>
<path fill="none" stroke-width="1" stroke-linecap="butt" stroke-linejoin="miter" stroke="rgb(0%, 0%, 0%)" stroke-opacity="1" stroke-miterlimit="1.154701" d="M 311.554688 344.304688 L 133.996094 125.480469 "/>
<g clip-path="url(#clip-8-da3e042e)">
<path fill="none" stroke-width="1" stroke-linecap="butt" stroke-linejoin="miter" stroke="rgb(0%, 0%, 0%)" stroke-opacity="1" stroke-miterlimit="1.154701" d="M 1384 334.84375 L 311.554688 344.304688 "/>
</g>
<path fill="none" stroke-width="1" stroke-linecap="butt" stroke-linejoin="miter" stroke="rgb(0%, 0%, 0%)" stroke-opacity="1" stroke-miterlimit="1.154701" d="M 311.554688 344.304688 L 401.152344 555.628906 "/>
<g clip-path="url(#clip-9-da3e042e)">
<path fill="none" stroke-width="1" stroke-linecap="butt" stroke-linejoin="miter" stroke="rgb(0%, 0%, 0%)" stroke-opacity="1" stroke-miterlimit="1.154701" d="M 401.152344 555.628906 L 1384 564.332031 "/>
</g>
<g clip-path="url(#clip-10-da3e042e)">
<path fill="none" stroke-width="1" stroke-linecap="butt" stroke-linejoin="miter" stroke="rgb(0%, 0%, 0%)" stroke-opacity="1" stroke-miterlimit="1.154701" d="M 311.554688 344.304688 L 16 347.59375 "/>
</g>
<g clip-path="url(#clip-11-da3e042e)">
<path fill="none" stroke-width="1" stroke-linecap="butt" stroke-linejoin="miter" stroke="rgb(0%, 0%, 0%)" stroke-opacity="1" stroke-miterlimit="1.154701" d="M 16 551.421875 L 401.152344 555.628906 "/>
</g>
<path fill="none" stroke-width="1" stroke-linecap="butt" stroke-linejoin="miter" stroke="rgb(0%, 0%, 0%)" stroke-opacity="1" stroke-miterlimit="1.154701" d="M 401.152344 555.628906 L 311.554688 344.304688 "/>
<g clip-path="url(#clip-12-da3e042e)">
<path fill="none" stroke-width="1" stroke-linecap="butt" stroke-linejoin="miter" stroke="rgb(0%, 0%, 0%)" stroke-opacity="1" stroke-miterlimit="1.154701" d="M 1384 564.332031 L 401.152344 555.628906 "/>
</g>
<path fill="none" stroke-width="1" stroke-linecap="butt" stroke-linejoin="miter" stroke="rgb(0%, 0%, 0%)" stroke-opacity="1" stroke-miterlimit="1.154701" d="M 401.152344 555.628906 L 411.417969 774.402344 "/>
<g clip-path="url(#clip-13-da3e042e)">
<path fill="none" stroke-width="1" stroke-linecap="butt" stroke-linejoin="miter" stroke="rgb(0%, 0%, 0%)" stroke-opacity="1" stroke-miterlimit="1.154701" d="M 411.417969 774.402344 L 1384 801.261719 "/>
</g>
<g clip-path="url(#clip-14-da3e042e)">
<path fill="none" stroke-width="1" stroke-linecap="butt" stroke-linejoin="miter" stroke="rgb(0%, 0%, 0%)" stroke-opacity="1" stroke-miterlimit="1.154701" d="M 401.152344 555.628906 L 16 551.421875 "/>
</g>
<g clip-path="url(#clip-15-da3e042e)">
<path fill="none" stroke-width="1" stroke-linecap="butt" stroke-linejoin="miter" stroke="rgb(0%, 0%, 0%)" stroke-opacity="1" stroke-miterlimit="1.154701" d="M 16 761.316406 L 411.417969 774.402344 "/>
</g>
<path fill="none" stroke-width="1" stroke-linecap="butt" stroke-linejoin="miter" stroke="rgb(0%, 0%, 0%)" stroke-opacity="1" stroke-miterlimit="1.154701" d="M 411.417969 774.402344 L 401.152344 555.628906 "/>
<g clip-path="url(#clip-16-da3e042e)">
<path fill="none" stroke-width="1" stroke-linecap="butt" stroke-linejoin="miter" stroke="rgb(0%, 0%, 0%)" stroke-opacity="1" stroke-miterlimit="1.154701" d="M 1384 801.261719 L 411.417969 774.402344 "/>
</g>
<g clip-path="url(#clip-17-da3e042e)">
<path fill="none" stroke-width="1" stroke-linecap="butt" stroke-linejoin="miter" stroke="rgb(0%, 0%, 0%)" stroke-opacity="1" stroke-miterlimit="1.154701" d="M 411.417969 774.402344 L 378.824219 884 "/>
</g>
<g clip-path="url(#clip-18-da3e042e)">
<path fill="none" stroke-width="1" stroke-linecap="butt" stroke-linejoin="miter" stroke="rgb(0%, 0%, 0%)" stroke-opacity="1" stroke-miterlimit="1.154701" d="M 411.417969 774.402344 L 16 761.316406 "/>
</g>
<g clip-path="url(#clip-19-da3e042e)">
<path fill="none" stroke-width="1" stroke-linecap="butt" stroke-linejoin="miter" stroke="rgb(0%, 0%, 0%)" stroke-opacity="1" stroke-miterlimit="1.154701" d="M 378.824219 884 L 411.417969 774.402344 "/>
</g>
<path fill="none" stroke-width="1" stroke-linecap="butt" stroke-linejoin="miter" stroke="rgb(0%, 0%, 0%)" stroke-opacity="1" stroke-miterlimit="1.154701" d="M 813.9375 103.046875 L 813.9375 103.046875 "/>
<path fill="none" stroke-width="1" stroke-linecap="butt" stroke-linejoin="miter" stroke="rgb(0%, 0%, 0%)" stroke-opacity="1" stroke-miterlimit="1.154701" d="M 1102.097656 95.273438 L 1102.097656 95.273438 "/>
<path fill="none" stroke-width="1" stroke-linecap="butt" stroke-linejoin="miter" stroke="rgb(0%, 0%, 0%)" stroke-opacity="1" stroke-miterlimit="1.154701" d="M 82.445312 122.777344 L 82.445312 122.777344 "/>
<path fill="none" stroke-width="1" stroke-linecap="butt" stroke-linejoin="miter" stroke="rgb(0%, 0%, 0%)" stroke-opacity="1" stroke-miterlimit="1.154701" d="M 813.9375 103.046875 L 813.9375 103.046875 "/>
<path fill="none" stroke-width="1" stroke-linecap="butt" stroke-linejoin="miter" stroke="rgb(0%, 0%, 0%)" stroke-opacity="1" stroke-miterlimit="1.154701" d="M 155.992188 342.785156 L 155.992188 342.785156 "/>
<path fill="none" stroke-width="1" stroke-linecap="butt" stroke-linejoin="miter" stroke="rgb(0%, 0%, 0%)" stroke-opacity="1" stroke-miterlimit="1.154701" d="M 1214.917969 333.480469 L 1214.917969 333.480469 "/>
<path fill="none" stroke-width="1" stroke-linecap="butt" stroke-linejoin="miter" stroke="rgb(0%, 0%, 0%)" stroke-opacity="1" stroke-miterlimit="1.154701" d="M 1102.097656 95.273438 L 1102.097656 95.273438 "/>
<path fill="none" stroke-width="1" stroke-linecap="butt" stroke-linejoin="miter" stroke="rgb(0%, 0%, 0%)" stroke-opacity="1" stroke-miterlimit="1.154701" d="M 82.445312 122.777344 L 82.445312 122.777344 "/>
<path fill="none" stroke-width="1" stroke-linecap="butt" stroke-linejoin="miter" stroke="rgb(0%, 0%, 0%)" stroke-opacity="1" stroke-miterlimit="1.154701" d="M 1009.078125 335.289062 L 1009.078125 335.289062 "/>
<path fill="none" stroke-width="1" stroke-linecap="butt" stroke-linejoin="miter" stroke="rgb(0%, 0%, 0%)" stroke-opacity="1" stroke-miterlimit="1.154701" d="M 44.03125 343.769531 L 44.03125 343.769531 "/>
<path fill="none" stroke-width="1" stroke-linecap="butt" stroke-linejoin="miter" stroke="rgb(0%, 0%, 0%)" stroke-opacity="1" stroke-miterlimit="1.154701" d="M 756.566406 337.507812 L 756.566406 337.507812 "/>
<path fill="none" stroke-width="1" stroke-linecap="butt" stroke-linejoin="miter" stroke="rgb(0%, 0%, 0%)" stroke-opacity="1" stroke-miterlimit="1.154701" d="M 155.992188 342.785156 L 155.992188 342.785156 "/>
<path fill="none" stroke-width="1" stroke-linecap="butt" stroke-linejoin="miter" stroke="rgb(0%, 0%, 0%)" stroke-opacity="1" stroke-miterlimit="1.154701" d="M 1214.917969 333.480469 L 1214.917969 333.480469 "/>
<path fill="none" stroke-width="1" stroke-linecap="butt" stroke-linejoin="miter" stroke="rgb(0%, 0%, 0%)" stroke-opacity="1" stroke-miterlimit="1.154701" d="M 190.113281 557.515625 L 190.113281 557.515625 "/>
<path fill="none" stroke-width="1" stroke-linecap="butt" stroke-linejoin="miter" stroke="rgb(0%, 0%, 0%)" stroke-opacity="1" stroke-miterlimit="1.154701" d="M 1370.941406 567.886719 L 1370.941406 567.886719 "/>
<path fill="none" stroke-width="1" stroke-linecap="butt" stroke-linejoin="miter" stroke="rgb(0%, 0%, 0%)" stroke-opacity="1" stroke-miterlimit="1.154701" d="M 1009.078125 335.289062 L 1009.078125 335.289062 "/>
<path fill="none" stroke-width="1" stroke-linecap="butt" stroke-linejoin="miter" stroke="rgb(0%, 0%, 0%)" stroke-opacity="1" stroke-miterlimit="1.154701" d="M 44.03125 343.769531 L 44.03125 343.769531 "/>
<path fill="none" stroke-width="1" stroke-linecap="butt" stroke-linejoin="miter" stroke="rgb(0%, 0%, 0%)" stroke-opacity="1" stroke-miterlimit="1.154701" d="M 481.398438 560.074219 L 481.398438 560.074219 "/>
<path fill="none" stroke-width="1" stroke-linecap="butt" stroke-linejoin="miter" stroke="rgb(0%, 0%, 0%)" stroke-opacity="1" stroke-miterlimit="1.154701" d="M 756.566406 337.507812 L 756.566406 337.507812 "/>
<path fill="none" stroke-width="1" stroke-linecap="butt" stroke-linejoin="miter" stroke="rgb(0%, 0%, 0%)" stroke-opacity="1" stroke-miterlimit="1.154701" d="M 1215.351562 566.523438 L 1215.351562 566.523438 "/>
<path fill="none" stroke-width="1" stroke-linecap="butt" stroke-linejoin="miter" stroke="rgb(0%, 0%, 0%)" stroke-opacity="1" stroke-miterlimit="1.154701" d="M 190.113281 557.515625 L 190.113281 557.515625 "/>
<path fill="none" stroke-width="1" stroke-linecap="butt" stroke-linejoin="miter" stroke="rgb(0%, 0%, 0%)" stroke-opacity="1" stroke-miterlimit="1.154701" d="M 1370.941406 567.886719 L 1370.941406 567.886719 "/>
<path fill="none" stroke-width="1" stroke-linecap="butt" stroke-linejoin="miter" stroke="rgb(0%, 0%, 0%)" stroke-opacity="1" stroke-miterlimit="1.154701" d="M 1358.0625 811.632812 L 1358.0625 811.632812 "/>
<path fill="none" stroke-width="1" stroke-linecap="butt" stroke-linejoin="miter" stroke="rgb(0%, 0%, 0%)" stroke-opacity="1" stroke-miterlimit="1.154701" d="M 481.398438 560.074219 L 481.398438 560.074219 "/>
<path fill="none" stroke-width="1" stroke-linecap="butt" stroke-linejoin="miter" stroke="rgb(0%, 0%, 0%)" stroke-opacity="1" stroke-miterlimit="1.154701" d="M 1177.585938 806.761719 L 1177.585938 806.761719 "/>
<path fill="none" stroke-width="1" stroke-linecap="butt" stroke-linejoin="miter" stroke="rgb(0%, 0%, 0%)" stroke-opacity="1" stroke-miterlimit="1.154701" d="M 390.296875 785.523438 L 390.296875 785.523438 "/>
<path fill="none" stroke-width="1" stroke-linecap="butt" stroke-linejoin="miter" stroke="rgb(0%, 0%, 0%)" stroke-opacity="1" stroke-miterlimit="1.154701" d="M 1215.351562 566.523438 L 1215.351562 566.523438 "/>
<path fill="none" stroke-width="1" stroke-linecap="butt" stroke-linejoin="miter" stroke="rgb(0%, 0%, 0%)" stroke-opacity="1" stroke-miterlimit="1.154701" d="M 1358.0625 811.632812 L 1358.0625 811.632812 "/>
<path fill="none" stroke-width="1" stroke-linecap="butt" stroke-linejoin="miter" stroke="rgb(0%, 0%, 0%)" stroke-opacity="1" stroke-miterlimit="1.154701" d="M 1177.585938 806.761719 L 1177.585938 806.761719 "/>
<path fill="none" stroke-width="1" stroke-linecap="butt" stroke-linejoin="miter" stroke="rgb(0%, 0%, 0%)" stroke-opacity="1" stroke-miterlimit="1.154701" d="M 390.296875 785.523438 L 390.296875 785.523438 "/>
</svg>
