<?xml version="1.0" encoding="UTF-8"?>
<svg xmlns="http://www.w3.org/2000/svg" xmlns:xlink="http://www.w3.org/1999/xlink" width="1400" height="900" viewBox="0 0 1400 900">
<defs>
<clipPath id="clip-0-383f2d24">
<path clip-rule="nonzero" d="M 16 16 L 475 16 L 475 105 L 16 105 Z M 16 16 "/>
</clipPath>
<clipPath id="clip-1-383f2d24">
<path clip-rule="nonzero" d="M 557 16 L 773 16 L 773 303 L 557 303 Z M 557 16 "/>
</clipPath>
<clipPath id="clip-2-383f2d24">
<path clip-rule="nonzero" d="M 769 269 L 1384 269 L 1384 303 L 769 303 Z M 769 269 "/>
</clipPath>
<clipPath id="clip-3-383f2d24">
<path clip-rule="nonzero" d="M 16 16 L 475 16 L 475 105 L 16 105 Z M 16 16 "/>
</clipPath>
<clipPath id="clip-4-383f2d24">
<path clip-rule="nonzero" d="M 16 299 L 773 299 L 773 347 L 16 347 Z M 16 299 "/>
</clipPath>
<clipPath id="clip-5-383f2d24">
<path clip-rule="nonzero" d="M 557 16 L 773 16 L 773 303 L 557 303 Z M 557 16 "/>
</clipPath>
<clipPath id="clip-6-383f2d24">
<path clip-rule="nonzero" d="M 769 269 L 1384 269 L 1384 303 L 769 303 Z M 769 269 "/>
</clipPath>
<clipPath id="clip-7-383f2d24">
<path clip-rule="nonzero" d="M 904 600 L 1384 600 L 1384 628 L 904 628 Z M 904 600 "/>
</clipPath>
<clipPath id="clip-8-383f2d24">
<path clip-rule="nonzero" d="M 16 299 L 773 299 L 773 347 L 16 347 Z M 16 299 "/>
</clipPath>
<clipPath id="clip-9-383f2d24">
<path clip-rule="nonzero" d="M 16 550 L 908 550 L 908 605 L 16 605 Z M 16 550 "/>
</clipPath>
<clipPath id="clip-10-383f2d24">
<path clip-rule="nonzero" d="M 904 600 L 1384 600 L 1384 628 L 904 628 Z M 904 600 "/>
</clipPath>
<clipPath id="clip-11-383f2d24">
<path clip-rule="nonzero" d="M 904 600 L 955 600 L 955 884 L 904 884 Z M 904 600 "/>
</clipPath>
<clipPath id="clip-12-383f2d24">
<path clip-rule="nonzero" d="M 16 550 L 908 550 L 908 605 L 16 605 Z M 16 550 "/>
</clipPath>
<clipPath id="clip-13-383f2d24">
<path clip-rule="nonzero" d="M 16 762 L 690 762 L 690 884 L 16 884 Z M 16 762 "/>
</clipPath>
<clipPath id="clip-14-383f2d24">
<path clip-rule="nonzero" d="M 904 600 L 955 600 L 955 884 L 904 884 Z M 904 600 "/>
</clipPath>
<clipPath id="clip-15-383f2d24">
<path clip-rule="nonzero" d="M 16 762 L 690 762 L 690 884 L 16 884 Z M 16 762 "/>
</clipPath>
</defs>
<g clip-path="url(#clip-0-383f2d24)">
<path fill="none" stroke-width="1" stroke-linecap="butt" stroke-linejoin="miter" stroke="rgb(0%, 0%, 0%)" stroke-opacity="1" stroke-miterlimit="1.154701" d="M 16 103.125 L 472.84375 16 "/>
</g>
<g clip-path="url(#clip-1-383f2d24)">
<path fill="none" stroke-width="1" stroke-linecap="butt" stroke-linejoin="miter" stroke="rgb(0%, 0%, 0%)" stroke-opacity="1" stroke-miterlimit="1.154701" d="M 559.460938 16 L 771.234375 300.964844 "/>
</g>
<g clip-path="url(#clip-2-383f2d24)">
<path fill="none" stroke-width="1" stroke-linecap="butt" stroke-linejoin="miter" stroke="rgb(0%, 0%, 0%)" stroke-opacity="1" stroke-miterlimit="1.154701" d="M 771.234375 300.964844 L 1384 270.640625 "/>
</g>
<g clip-path="url(#clip-3-383f2d24)">
<path fill="none" stroke-width="1" stroke-linecap="butt" stroke-linejoin="miter" stroke="rgb(0%, 0%, 0%)" stroke-opacity="1" stroke-miterlimit="1.154701" d="M 472.84375 16 L 16 103.125 "/>
</g>
<g clip-path="url(#clip-4-383f2d24)">
<path fill="none" stroke-width="1" stroke-linecap="butt" stroke-linejoin="miter" stroke="rgb(0%, 0%, 0%)" stroke-opacity="1" stroke-miterlimit="1.154701" d="M 16 344.785156 L 771.234375 300.964844 "/>
</g>
<g clip-path="url(#clip-5-383f2d24)">
<path fill="none" stroke-width="1" stroke-linecap="butt" stroke-linejoin="miter" stroke="rgb(0%, 0%, 0%)" stroke-opacity="1" stroke-miterlimit="1.154701" d="M 771.234375 300.964844 L 559.460938 16 "/>
</g>
<g clip-path="url(#clip-6-383f2d24)">
<path fill="none" stroke-width="1" stroke-linecap="butt" stroke-linejoin="miter" stroke="rgb(0%, 0%, 0%)" stroke-opacity="1" stroke-miterlimit="1.154701" d="M 1384 270.640625 L 771.234375 300.964844 "/>
</g>
<path fill="none" stroke-width="1" stroke-linecap="butt" stroke-linejoin="miter" stroke="rgb(0%, 0%, 0%)" stroke-opacity="1" stroke-miterlimit="1.154701" d="M 771.234375 300.964844 L 905.945312 602.398438 "/>
<g clip-path="url(#clip-7-383f2d24)">
<path fill="none" stroke-width="1" stroke-linecap="butt" stroke-linejoin="miter" stroke="rgb(0%, 0%, 0%)" stroke-opacity="1" stroke-miterlimit="1.154701" d="M 905.945312 602.398438 L 1384 626.367188 "/>
</g>
<g clip-path="url(#clip-8-383f2d24)">
<path fill="none" stroke-width="1" stroke-linecap="butt" stroke-linejoin="miter" stroke="rgb(0%, 0%, 0%)" stroke-opacity="1" stroke-miterlimit="1.154701" d="M 771.234375 300.964844 L 16 344.785156 "/>
</g>
<g clip-path="url(#clip-9-383f2d24)">
<path fill="none" stroke-width="1" stroke-linecap="butt" stroke-linejoin="miter" stroke="rgb(0%, 0%, 0%)" stroke-opacity="1" stroke-miterlimit="1.154701" d="M 16 551.859375 L 905.945312 602.398438 "/>
</g>
<path fill="none" stroke-width="1" stroke-linecap="butt" stroke-linejoin="miter" stroke="rgb(0%, 0%, 0%)" stroke-opacity="1" stroke-miterlimit="1.154701" d="M 905.945312 602.398438 L 771.234375 300.964844 "/>
<g clip-path="url(#clip-10-383f2d24)">
<path fill="none" stroke-width="1" stroke-linecap="butt" stroke-linejoin="miter" stroke="rgb(0%, 0%, 0%)" stroke-opacity="1" stroke-miterlimit="1.154701" d="M 1384 626.367188 L 905.945312 602.398438 "/>
</g>
<g clip-path="url(#clip-11-383f2d24)">
<path fill="none" stroke-width="1" stroke-linecap="butt" stroke-linejoin="miter" stroke="rgb(0%, 0%, 0%)" stroke-opacity="1" stroke-miterlimit="1.154701" d="M 905.945312 602.398438 L 953.3125 884 "/>
</g>
<g clip-path="url(#clip-12-383f2d24)">
<path fill="none" stroke-width="1" stroke-linecap="butt" stroke-linejoin="miter" stroke="rgb(0%, 0%, 0%)" stroke-opacity="1" stroke-miterlimit="1.154701" d="M 905.945312 602.398438 L 16 551.859375 "/>
</g>
<g clip-path="url(#clip-13-383f2d24)">
<path fill="none" stroke-width="1" stroke-linecap="butt" stroke-linejoin="miter" stroke="rgb(0%, 0%, 0%)" stroke-opacity="1" stroke-miterlimit="1.154701" d="M 16 764.460938 L 687.398438 884 "/>
</g>
<g clip-path="url(#clip-14-383f2d24)">
<path fill="none" stroke-width="1" stroke-linecap="butt" stroke-linejoin="miter" stroke="rgb(0%, 0%, 0%)" stroke-opacity="1" stroke-miterlimit="1.154701" d="M 953.3125 884 L 905.945312 602.398438 "/>
</g>
<g clip-path="url(#clip-15-383f2d24)">
<path fill="none" stroke-width="1" stroke-linecap="butt" stroke-linejoin="miter" stroke="rgb(0%, 0%, 0%)" stroke-opacity="1" stroke-miterlimit="1.154701" d="M 687.398438 884 L 16 764.460938 "/>
</g>
<path fill="none" stroke-width="1" stroke-linecap="butt" stroke-linejoin="miter" stroke="rgb(0%, 0%, 0%)" stroke-opacity="1" stroke-miterlimit="1.154701" d="M 173.9375 33.835938 L 173.9375 33.835938 "/>
<path fill="none" stroke-width="1" stroke-linecap="butt" stroke-linejoin="miter" stroke="rgb(0%, 0%, 0%)" stroke-opacity="1" stroke-miterlimit="1.154701" d="M 289.769531 20.023438 L 289.769531 20.023438 "/>
<path fill="none" stroke-width="1" stroke-linecap="butt" stroke-linejoin="miter" stroke="rgb(0%, 0%, 0%)" stroke-opacity="1" stroke-miterlimit="1.154701" d="M 171.457031 34.128906 L 171.457031 34.128906 "/>
<path fill="none" stroke-width="1" stroke-linecap="butt" stroke-linejoin="miter" stroke="rgb(0%, 0%, 0%)" stroke-opacity="1" stroke-miterlimit="1.154701" d="M 173.9375 33.835938 L 173.9375 33.835938 "/>
<path fill="none" stroke-width="1" stroke-linecap="butt" stroke-linejoin="miter" stroke="rgb(0%, 0%, 0%)" stroke-opacity="1" stroke-miterlimit="1.154701" d="M 289.769531 20.023438 L 289.769531 20.023438 "/>
<path fill="none" stroke-width="1" stroke-linecap="butt" stroke-linejoin="miter" stroke="rgb(0%, 0%, 0%)" stroke-opacity="1" stroke-miterlimit="1.154701" d="M 171.457031 34.128906 L 171.457031 34.128906 "/>
</svg>
