<?xml version="1.0" encoding="UTF-8"?>
<svg xmlns="http://www.w3.org/2000/svg" xmlns:xlink="http://www.w3.org/1999/xlink" width="1400" height="900" viewBox="0 0 1400 900">
<defs>
<clipPath id="clip-0-0918101e">
<path clip-rule="nonzero" d="M 654 16 L 673 16 L 673 111 L 654 111 Z M 654 16 "/>
</clipPath>
<clipPath id="clip-1-0918101e">
<path clip-rule="nonzero" d="M 1055 16 L 1061 16 L 1061 47 L 1055 47 Z M 1055 16 "/>
</clipPath>
<clipPath id="clip-2-0918101e">
<path clip-rule="nonzero" d="M 1055 43 L 1384 43 L 1384 110 L 1055 110 Z M 1055 43 "/>
</clipPath>
<clipPath id="clip-3-0918101e">
<path clip-rule="nonzero" d="M 879 16 L 1059 16 L 1059 47 L 879 47 Z M 879 16 "/>
</clipPath>
<clipPath id="clip-4-0918101e">
<path clip-rule="nonzero" d="M 1055 16 L 1061 16 L 1061 47 L 1055 47 Z M 1055 16 "/>
</clipPath>
<clipPath id="clip-5-0918101e">
<path clip-rule="nonzero" d="M 1055 43 L 1384 43 L 1384 110 L 1055 110 Z M 1055 43 "/>
</clipPath>
<clipPath id="clip-6-0918101e">
<path clip-rule="nonzero" d="M 1047 326 L 1384 326 L 1384 349 L 1047 349 Z M 1047 326 "/>
</clipPath>
<clipPath id="clip-7-0918101e">
<path clip-rule="nonzero" d="M 879 16 L 1059 16 L 1059 47 L 879 47 Z M 879 16 "/>
</clipPath>
<clipPath id="clip-8-0918101e">
<path clip-rule="nonzero" d="M 16 273 L 1051 273 L 1051 330 L 16 330 Z M 16 273 "/>
</clipPath>
<clipPath id="clip-9-0918101e">
<path clip-rule="nonzero" d="M 1047 326 L 1384 326 L 1384 349 L 1047 349 Z M 1047 326 "/>
</clipPath>
<clipPath id="clip-10-0918101e">
<path clip-rule="nonzero" d="M 1063 547 L 1384 547 L 1384 569 L 1063 569 Z M 1063 547 "/>
</clipPath>
<clipPath id="clip-11-0918101e">
<path clip-rule="nonzero" d="M 16 273 L 1051 273 L 1051 330 L 16 330 Z M 16 273 "/>
</clipPath>
<clipPath id="clip-12-0918101e">
<path clip-rule="nonzero" d="M 16 565 L 1067 565 L 1067 622 L 16 622 Z M 16 565 "/>
</clipPath>
<clipPath id="clip-13-0918101e">
<path clip-rule="nonzero" d="M 1063 547 L 1384 547 L 1384 569 L 1063 569 Z M 1063 547 "/>
</clipPath>
<clipPath id="clip-14-0918101e">
<path clip-rule="nonzero" d="M 1112 755 L 1384 755 L 1384 806 L 1112 806 Z M 1112 755 "/>
</clipPath>
<clipPath id="clip-15-0918101e">
<path clip-rule="nonzero" d="M 16 565 L 1067 565 L 1067 622 L 16 622 Z M 16 565 "/>
</clipPath>
<clipPath id="clip-16-0918101e">
<path clip-rule="nonzero" d="M 609 802 L 1117 802 L 1117 884 L 609 884 Z M 609 802 "/>
</clipPath>
<clipPath id="clip-17-0918101e">
<path clip-rule="nonzero" d="M 1112 755 L 1384 755 L 1384 806 L 1112 806 Z M 1112 755 "/>
</clipPath>
<clipPath id="clip-18-0918101e">
<path clip-rule="nonzero" d="M 1112 802 L 1145 802 L 1145 884 L 1112 884 Z M 1112 802 "/>
</clipPath>
<clipPath id="clip-19-0918101e">
<path clip-rule="nonzero" d="M 609 802 L 1117 802 L 1117 884 L 609 884 Z M 609 802 "/>
</clipPath>
<clipPath id="clip-20-0918101e">
<path clip-rule="nonzero" d="M 1112 802 L 1145 802 L 1145 884 L 1112 884 Z M 1112 802 "/>
</clipPath>
</defs>
<g clip-path="url(#clip-0-0918101e)">
<path fill="none" stroke-width="1" stroke-linecap="butt" stroke-linejoin="miter" stroke="rgb(0%, 0%, 0%)" stroke-opacity="1" stroke-miterlimit="1.154701" d="M 656.542969 109.160156 L 671.367188 16 "/>
<path fill="none" stroke-width="1" stroke-linecap="butt" stroke-linejoin="miter" stroke="rgb(0%, 0%, 0%)" stroke-opacity="1" stroke-miterlimit="1.154701" d="M 671.367188 16 L 656.542969 109.160156 "/>
</g>
<g clip-path="url(#clip-1-0918101e)">
<path fill="none" stroke-width="1" stroke-linecap="butt" stroke-linejoin="miter" stroke="rgb(0%, 0%, 0%)" stroke-opacity="1" stroke-miterlimit="1.154701" d="M 1059.101562 16 L 1057.171875 45.105469 "/>
</g>
<g clip-path="url(#clip-2-0918101e)">
<path fill="none" stroke-width="1" stroke-linecap="butt" stroke-linejoin="miter" stroke="rgb(0%, 0%, 0%)" stroke-opacity="1" stroke-miterlimit="1.154701" d="M 1057.171875 45.105469 L 1384 107.4375 "/>
</g>
<g clip-path="url(#clip-3-0918101e)">
<path fill="none" stroke-width="1" stroke-linecap="butt" stroke-linejoin="miter" stroke="rgb(0%, 0%, 0%)" stroke-opacity="1" stroke-miterlimit="1.154701" d="M 880.851562 16 L 1057.171875 45.105469 "/>
</g>
<g clip-path="url(#clip-4-0918101e)">
<path fill="none" stroke-width="1" stroke-linecap="butt" stroke-linejoin="miter" stroke="rgb(0%, 0%, 0%)" stroke-opacity="1" stroke-miterlimit="1.154701" d="M 1057.171875 45.105469 L 1059.101562 16 "/>
</g>
<g clip-path="url(#clip-5-0918101e)">
<path fill="none" stroke-width="1" stroke-linecap="butt" stroke-linejoin="miter" stroke="rgb(0%, 0%, 0%)" stroke-opacity="1" stroke-miterlimit="1.154701" d="M 1384 107.4375 L 1057.171875 45.105469 "/>
</g>
<path fill="none" stroke-width="1" stroke-linecap="butt" stroke-linejoin="miter" stroke="rgb(0%, 0%, 0%)" stroke-opacity="1" stroke-miterlimit="1.154701" d="M 1057.171875 45.105469 L 1049.019531 327.714844 "/>
<g clip-path="url(#clip-6-0918101e)">
<path fill="none" stroke-width="1" stroke-linecap="butt" stroke-linejoin="miter" stroke="rgb(0%, 0%, 0%)" stroke-opacity="1" stroke-miterlimit="1.154701" d="M 1049.019531 327.714844 L 1384 346.972656 "/>
</g>
<g clip-path="url(#clip-7-0918101e)">
<path fill="none" stroke-width="1" stroke-linecap="butt" stroke-linejoin="miter" stroke="rgb(0%, 0%, 0%)" stroke-opacity="1" stroke-miterlimit="1.154701" d="M 1057.171875 45.105469 L 880.851562 16 "/>
</g>
<g clip-path="url(#clip-8-0918101e)">
<path fill="none" stroke-width="1" stroke-linecap="butt" stroke-linejoin="miter" stroke="rgb(0%, 0%, 0%)" stroke-opacity="1" stroke-miterlimit="1.154701" d="M 16 275.417969 L 1049.019531 327.714844 "/>
</g>
<path fill="none" stroke-width="1" stroke-linecap="butt" stroke-linejoin="miter" stroke="rgb(0%, 0%, 0%)" stroke-opacity="1" stroke-miterlimit="1.154701" d="M 1049.019531 327.714844 L 1057.171875 45.105469 "/>
<path fill="none" stroke-width="1" stroke-linecap="butt" stroke-linejoin="miter" stroke="rgb(0%, 0%, 0%)" stroke-opacity="1" stroke-miterlimit="1.154701" d="M 642.910156 291.816406 L 642.910156 291.816406 "/>
<g clip-path="url(#clip-9-0918101e)">
<path fill="none" stroke-width="1" stroke-linecap="butt" stroke-linejoin="miter" stroke="rgb(0%, 0%, 0%)" stroke-opacity="1" stroke-miterlimit="1.154701" d="M 1384 346.972656 L 1049.019531 327.714844 "/>
</g>
<path fill="none" stroke-width="1" stroke-linecap="butt" stroke-linejoin="miter" stroke="rgb(0%, 0%, 0%)" stroke-opacity="1" stroke-miterlimit="1.154701" d="M 1049.019531 327.714844 L 1065.367188 567.234375 "/>
<g clip-path="url(#clip-10-0918101e)">
<path fill="none" stroke-width="1" stroke-linecap="butt" stroke-linejoin="miter" stroke="rgb(0%, 0%, 0%)" stroke-opacity="1" stroke-miterlimit="1.154701" d="M 1065.367188 567.234375 L 1384 549.417969 "/>
</g>
<g clip-path="url(#clip-11-0918101e)">
<path fill="none" stroke-width="1" stroke-linecap="butt" stroke-linejoin="miter" stroke="rgb(0%, 0%, 0%)" stroke-opacity="1" stroke-miterlimit="1.154701" d="M 1049.019531 327.714844 L 16 275.417969 "/>
</g>
<g clip-path="url(#clip-12-0918101e)">
<path fill="none" stroke-width="1" stroke-linecap="butt" stroke-linejoin="miter" stroke="rgb(0%, 0%, 0%)" stroke-opacity="1" stroke-miterlimit="1.154701" d="M 16 619.859375 L 1065.367188 567.234375 "/>
</g>
<path fill="none" stroke-width="1" stroke-linecap="butt" stroke-linejoin="miter" stroke="rgb(0%, 0%, 0%)" stroke-opacity="1" stroke-miterlimit="1.154701" d="M 1065.367188 567.234375 L 1049.019531 327.714844 "/>
<path fill="none" stroke-width="1" stroke-linecap="butt" stroke-linejoin="miter" stroke="rgb(0%, 0%, 0%)" stroke-opacity="1" stroke-miterlimit="1.154701" d="M 642.910156 291.816406 L 642.910156 291.816406 "/>
<g clip-path="url(#clip-13-0918101e)">
<path fill="none" stroke-width="1" stroke-linecap="butt" stroke-linejoin="miter" stroke="rgb(0%, 0%, 0%)" stroke-opacity="1" stroke-miterlimit="1.154701" d="M 1384 549.417969 L 1065.367188 567.234375 "/>
</g>
<path fill="none" stroke-width="1" stroke-linecap="butt" stroke-linejoin="miter" stroke="rgb(0%, 0%, 0%)" stroke-opacity="1" stroke-miterlimit="1.154701" d="M 1065.367188 567.234375 L 1114.386719 803.90625 "/>
<g clip-path="url(#clip-14-0918101e)">
<path fill="none" stroke-width="1" stroke-linecap="butt" stroke-linejoin="miter" stroke="rgb(0%, 0%, 0%)" stroke-opacity="1" stroke-miterlimit="1.154701" d="M 1114.386719 803.90625 L 1384 756.851562 "/>
</g>
<g clip-path="url(#clip-15-0918101e)">
<path fill="none" stroke-width="1" stroke-linecap="butt" stroke-linejoin="miter" stroke="rgb(0%, 0%, 0%)" stroke-opacity="1" stroke-miterlimit="1.154701" d="M 1065.367188 567.234375 L 16 619.859375 "/>
</g>
<g clip-path="url(#clip-16-0918101e)">
<path fill="none" stroke-width="1" stroke-linecap="butt" stroke-linejoin="miter" stroke="rgb(0%, 0%, 0%)" stroke-opacity="1" stroke-miterlimit="1.154701" d="M 610.886719 884 L 1114.386719 803.90625 "/>
</g>
<path fill="none" stroke-width="1" stroke-linecap="butt" stroke-linejoin="miter" stroke="rgb(0%, 0%, 0%)" stroke-opacity="1" stroke-miterlimit="1.154701" d="M 1114.386719 803.90625 L 1065.367188 567.234375 "/>
<g clip-path="url(#clip-17-0918101e)">
<path fill="none" stroke-width="1" stroke-linecap="butt" stroke-linejoin="miter" stroke="rgb(0%, 0%, 0%)" stroke-opacity="1" stroke-miterlimit="1.154701" d="M 1384 756.851562 L 1114.386719 803.90625 "/>
</g>
<g clip-path="url(#clip-18-0918101e)">
<path fill="none" stroke-width="1" stroke-linecap="butt" stroke-linejoin="miter" stroke="rgb(0%, 0%, 0%)" stroke-opacity="1" stroke-miterlimit="1.154701" d="M 1114.386719 803.90625 L 1142.425781 884 "/>
</g>
<g clip-path="url(#clip-19-0918101e)">
<path fill="none" stroke-width="1" stroke-linecap="butt" stroke-linejoin="miter" stroke="rgb(0%, 0%, 0%)" stroke-opacity="1" stroke-miterlimit="1.154701" d="M 1114.386719 803.90625 L 610.886719 884 "/>
</g>
<g clip-path="url(#clip-20-0918101e)">
<path fill="none" stroke-width="1" stroke-linecap="butt" stroke-linejoin="miter" stroke="rgb(0%, 0%, 0%)" stroke-opacity="1" stroke-miterlimit="1.154701" d="M 1142.425781 884 L 1114.386719 803.90625 "/>
</g>
<path fill="none" stroke-width="1" stroke-linecap="butt" stroke-linejoin="miter" stroke="rgb(0%, 0%, 0%)" stroke-opacity="1" stroke-miterlimit="1.154701" d="M 1376.75 51.800781 L 1376.75 51.800781 "/>
<path fill="none" stroke-width="1" stroke-linecap="butt" stroke-linejoin="miter" stroke="rgb(0%, 0%, 0%)" stroke-opacity="1" stroke-miterlimit="1.154701" d="M 1376.75 51.800781 L 1376.75 51.800781 "/>
<path fill="none" stroke-width="1" stroke-linecap="butt" stroke-linejoin="miter" stroke="rgb(0%, 0%, 0%)" stroke-opacity="1" stroke-miterlimit="1.154701" d="M 1116.226562 310.199219 L 1116.226562 310.199219 "/>
<path fill="none" stroke-width="1" stroke-linecap="butt" stroke-linejoin="miter" stroke="rgb(0%, 0%, 0%)" stroke-opacity="1" stroke-miterlimit="1.154701" d="M 243.46875 276.308594 L 243.46875 276.308594 "/>
<path fill="none" stroke-width="1" stroke-linecap="butt" stroke-linejoin="miter" stroke="rgb(0%, 0%, 0%)" stroke-opacity="1" stroke-miterlimit="1.154701" d="M 1116.226562 310.199219 L 1116.226562 310.199219 "/>
<path fill="none" stroke-width="1" stroke-linecap="butt" stroke-linejoin="miter" stroke="rgb(0%, 0%, 0%)" stroke-opacity="1" stroke-miterlimit="1.154701" d="M 903.953125 598.042969 L 903.953125 598.042969 "/>
<path fill="none" stroke-width="1" stroke-linecap="butt" stroke-linejoin="miter" stroke="rgb(0%, 0%, 0%)" stroke-opacity="1" stroke-miterlimit="1.154701" d="M 380.890625 618.355469 L 380.890625 618.355469 "/>
<path fill="none" stroke-width="1" stroke-linecap="butt" stroke-linejoin="miter" stroke="rgb(0%, 0%, 0%)" stroke-opacity="1" stroke-miterlimit="1.154701" d="M 166.726562 626.671875 L 166.726562 626.671875 "/>
<path fill="none" stroke-width="1" stroke-linecap="butt" stroke-linejoin="miter" stroke="rgb(0%, 0%, 0%)" stroke-opacity="1" stroke-miterlimit="1.154701" d="M 449.84375 615.679688 L 449.84375 615.679688 "/>
<path fill="none" stroke-width="1" stroke-linecap="butt" stroke-linejoin="miter" stroke="rgb(0%, 0%, 0%)" stroke-opacity="1" stroke-miterlimit="1.154701" d="M 243.46875 276.308594 L 243.46875 276.308594 "/>
<path fill="none" stroke-width="1" stroke-linecap="butt" stroke-linejoin="miter" stroke="rgb(0%, 0%, 0%)" stroke-opacity="1" stroke-miterlimit="1.154701" d="M 903.953125 598.042969 L 903.953125 598.042969 "/>
<path fill="none" stroke-width="1" stroke-linecap="butt" stroke-linejoin="miter" stroke="rgb(0%, 0%, 0%)" stroke-opacity="1" stroke-miterlimit="1.154701" d="M 380.890625 618.355469 L 380.890625 618.355469 "/>
<path fill="none" stroke-width="1" stroke-linecap="butt" stroke-linejoin="miter" stroke="rgb(0%, 0%, 0%)" stroke-opacity="1" stroke-miterlimit="1.154701" d="M 166.726562 626.671875 L 166.726562 626.671875 "/>
<path fill="none" stroke-width="1" stroke-linecap="butt" stroke-linejoin="miter" stroke="rgb(0%, 0%, 0%)" stroke-opacity="1" stroke-miterlimit="1.154701" d="M 449.84375 615.679688 L 449.84375 615.679688 "/>
</svg>
