<?xml version="1.0" encoding="UTF-8"?>
<svg xmlns="http://www.w3.org/2000/svg" xmlns:xlink="http://www.w3.org/1999/xlink" width="1400" height="900" viewBox="0 0 1400 900">
<defs>
<clipPath id="clip-0-e4a65c37">
<path clip-rule="nonzero" d="M 1240 16 L 1340 16 L 1340 171 L 1240 171 Z M 1240 16 "/>
</clipPath>
<clipPath id="clip-1-e4a65c37">
<path clip-rule="nonzero" d="M 1240 167 L 1384 167 L 1384 223 L 1240 223 Z M 1240 167 "/>
</clipPath>
<clipPath id="clip-2-e4a65c37">
<path clip-rule="nonzero" d="M 782 16 L 1244 16 L 1244 171 L 782 171 Z M 782 16 "/>
</clipPath>
<clipPath id="clip-3-e4a65c37">
<path clip-rule="nonzero" d="M 1240 16 L 1340 16 L 1340 171 L 1240 171 Z M 1240 16 "/>
</clipPath>
<clipPath id="clip-4-e4a65c37">
<path clip-rule="nonzero" d="M 1240 167 L 1384 167 L 1384 223 L 1240 223 Z M 1240 167 "/>
</clipPath>
<clipPath id="clip-5-e4a65c37">
<path clip-rule="nonzero" d="M 1170 359 L 1384 359 L 1384 386 L 1170 386 Z M 1170 359 "/>
</clipPath>
<clipPath id="clip-6-e4a65c37">
<path clip-rule="nonzero" d="M 782 16 L 1244 16 L 1244 171 L 782 171 Z M 782 16 "/>
</clipPath>
<clipPath id="clip-7-e4a65c37">
<path clip-rule="nonzero" d="M 635 16 L 646 16 L 646 309 L 635 309 Z M 635 16 "/>
</clipPath>
<clipPath id="clip-8-e4a65c37">
<path clip-rule="nonzero" d="M 16 242 L 646 242 L 646 309 L 16 309 Z M 16 242 "/>
</clipPath>
<clipPath id="clip-9-e4a65c37">
<path clip-rule="nonzero" d="M 635 16 L 646 16 L 646 309 L 635 309 Z M 635 16 "/>
</clipPath>
<clipPath id="clip-10-e4a65c37">
<path clip-rule="nonzero" d="M 1170 359 L 1384 359 L 1384 386 L 1170 386 Z M 1170 359 "/>
</clipPath>
<clipPath id="clip-11-e4a65c37">
<path clip-rule="nonzero" d="M 1165 511 L 1384 511 L 1384 538 L 1165 538 Z M 1165 511 "/>
</clipPath>
<clipPath id="clip-12-e4a65c37">
<path clip-rule="nonzero" d="M 16 242 L 646 242 L 646 309 L 16 309 Z M 16 242 "/>
</clipPath>
<clipPath id="clip-13-e4a65c37">
<path clip-rule="nonzero" d="M 16 581 L 714 581 L 714 656 L 16 656 Z M 16 581 "/>
</clipPath>
<clipPath id="clip-14-e4a65c37">
<path clip-rule="nonzero" d="M 1165 511 L 1384 511 L 1384 538 L 1165 538 Z M 1165 511 "/>
</clipPath>
<clipPath id="clip-15-e4a65c37">
<path clip-rule="nonzero" d="M 1221 645 L 1384 645 L 1384 704 L 1221 704 Z M 1221 645 "/>
</clipPath>
<clipPath id="clip-16-e4a65c37">
<path clip-rule="nonzero" d="M 16 581 L 714 581 L 714 656 L 16 656 Z M 16 581 "/>
</clipPath>
<clipPath id="clip-17-e4a65c37">
<path clip-rule="nonzero" d="M 16 876 L 21 876 L 21 884 L 16 884 Z M 16 876 "/>
</clipPath>
<clipPath id="clip-18-e4a65c37">
<path clip-rule="nonzero" d="M 684 831 L 838 831 L 838 884 L 684 884 Z M 684 831 "/>
</clipPath>
<clipPath id="clip-19-e4a65c37">
<path clip-rule="nonzero" d="M 16 876 L 21 876 L 21 884 L 16 884 Z M 16 876 "/>
</clipPath>
<clipPath id="clip-20-e4a65c37">
<path clip-rule="nonzero" d="M 1221 645 L 1384 645 L 1384 704 L 1221 704 Z M 1221 645 "/>
</clipPath>
<clipPath id="clip-21-e4a65c37">
<path clip-rule="nonzero" d="M 1335 830 L 1384 830 L 1384 866 L 1335 866 Z M 1335 830 "/>
</clipPath>
<clipPath id="clip-22-e4a65c37">
<path clip-rule="nonzero" d="M 834 831 L 876 831 L 876 884 L 834 884 Z M 834 831 "/>
</clipPath>
<clipPath id="clip-23-e4a65c37">
<path clip-rule="nonzero" d="M 1307 862 L 1340 862 L 1340 884 L 1307 884 Z M 1307 862 "/>
</clipPath>
<clipPath id="clip-24-e4a65c37">
<path clip-rule="nonzero" d="M 684 831 L 838 831 L 838 884 L 684 884 Z M 684 831 "/>
</clipPath>
<clipPath id="clip-25-e4a65c37">
<path clip-rule="nonzero" d="M 834 831 L 876 831 L 876 884 L 834 884 Z M 834 831 "/>
</clipPath>
<clipPath id="clip-26-e4a65c37">
<path clip-rule="nonzero" d="M 1335 830 L 1384 830 L 1384 866 L 1335 866 Z M 1335 830 "/>
</clipPath>
<clipPath id="clip-27-e4a65c37">
<path clip-rule="nonzero" d="M 1335 862 L 1361 862 L 1361 884 L 1335 884 Z M 1335 862 "/>
</clipPath>
<clipPath id="clip-28-e4a65c37">
<path clip-rule="nonzero" d="M 1307 862 L 1340 862 L 1340 884 L 1307 884 Z M 1307 862 "/>
</clipPath>
<clipPath id="clip-29-e4a65c37">
<path clip-rule="nonzero" d="M 1335 862 L 1361 862 L 1361 884 L 1335 884 Z M 1335 862 "/>
</clipPath>
</defs>
<g clip-path="url(#clip-0-e4a65c37)">
<path fill="none" stroke-width="1" stroke-linecap="butt" stroke-linejoin="miter" stroke="rgb(0%, 0%, 0%)" stroke-opacity="1" stroke-miterlimit="1.154701" d="M 1338.003906 16 L 1241.65625 168.710938 "/>
</g>
<g clip-path="url(#clip-1-e4a65c37)">
<path fill="none" stroke-width="1" stroke-linecap="butt" stroke-linejoin="miter" stroke="rgb(0%, 0%, 0%)" stroke-opacity="1" stroke-miterlimit="1.154701" d="M 1241.65625 168.710938 L 1384 220.40625 "/>
</g>
<g clip-path="url(#clip-2-e4a65c37)">
<path fill="none" stroke-width="1" stroke-linecap="butt" stroke-linejoin="miter" stroke="rgb(0%, 0%, 0%)" stroke-opacity="1" stroke-miterlimit="1.154701" d="M 784.460938 16 L 1241.65625 168.710938 "/>
</g>
<g clip-path="url(#clip-3-e4a65c37)">
<path fill="none" stroke-width="1" stroke-linecap="butt" stroke-linejoin="miter" stroke="rgb(0%, 0%, 0%)" stroke-opacity="1" stroke-miterlimit="1.154701" d="M 1241.65625 168.710938 L 1338.003906 16 "/>
</g>
<g clip-path="url(#clip-4-e4a65c37)">
<path fill="none" stroke-width="1" stroke-linecap="butt" stroke-linejoin="miter" stroke="rgb(0%, 0%, 0%)" stroke-opacity="1" stroke-miterlimit="1.154701" d="M 1384 220.40625 L 1241.65625 168.710938 "/>
</g>
<path fill="none" stroke-width="1" stroke-linecap="butt" stroke-linejoin="miter" stroke="rgb(0%, 0%, 0%)" stroke-opacity="1" stroke-miterlimit="1.154701" d="M 1241.65625 168.710938 L 1172.582031 360.757812 "/>
<g clip-path="url(#clip-5-e4a65c37)">
<path fill="none" stroke-width="1" stroke-linecap="butt" stroke-linejoin="miter" stroke="rgb(0%, 0%, 0%)" stroke-opacity="1" stroke-miterlimit="1.154701" d="M 1172.582031 360.757812 L 1384 383.507812 "/>
</g>
<g clip-path="url(#clip-6-e4a65c37)">
<path fill="none" stroke-width="1" stroke-linecap="butt" stroke-linejoin="miter" stroke="rgb(0%, 0%, 0%)" stroke-opacity="1" stroke-miterlimit="1.154701" d="M 1241.65625 168.710938 L 784.460938 16 "/>
</g>
<g clip-path="url(#clip-7-e4a65c37)">
<path fill="none" stroke-width="1" stroke-linecap="butt" stroke-linejoin="miter" stroke="rgb(0%, 0%, 0%)" stroke-opacity="1" stroke-miterlimit="1.154701" d="M 637.527344 16 L 643.660156 306.789062 "/>
</g>
<path fill="none" stroke-width="1" stroke-linecap="butt" stroke-linejoin="miter" stroke="rgb(0%, 0%, 0%)" stroke-opacity="1" stroke-miterlimit="1.154701" d="M 643.660156 306.789062 L 1172.582031 360.757812 "/>
<path fill="none" stroke-width="1" stroke-linecap="butt" stroke-linejoin="miter" stroke="rgb(0%, 0%, 0%)" stroke-opacity="1" stroke-miterlimit="1.154701" d="M 1172.582031 360.757812 L 1241.65625 168.710938 "/>
<g clip-path="url(#clip-8-e4a65c37)">
<path fill="none" stroke-width="1" stroke-linecap="butt" stroke-linejoin="miter" stroke="rgb(0%, 0%, 0%)" stroke-opacity="1" stroke-miterlimit="1.154701" d="M 16 243.828125 L 643.660156 306.789062 "/>
</g>
<g clip-path="url(#clip-9-e4a65c37)">
<path fill="none" stroke-width="1" stroke-linecap="butt" stroke-linejoin="miter" stroke="rgb(0%, 0%, 0%)" stroke-opacity="1" stroke-miterlimit="1.154701" d="M 643.660156 306.789062 L 637.527344 16 "/>
</g>
<g clip-path="url(#clip-10-e4a65c37)">
<path fill="none" stroke-width="1" stroke-linecap="butt" stroke-linejoin="miter" stroke="rgb(0%, 0%, 0%)" stroke-opacity="1" stroke-miterlimit="1.154701" d="M 1384 383.507812 L 1172.582031 360.757812 "/>
</g>
<path fill="none" stroke-width="1" stroke-linecap="butt" stroke-linejoin="miter" stroke="rgb(0%, 0%, 0%)" stroke-opacity="1" stroke-miterlimit="1.154701" d="M 1172.582031 360.757812 L 1167.546875 536.148438 "/>
<g clip-path="url(#clip-11-e4a65c37)">
<path fill="none" stroke-width="1" stroke-linecap="butt" stroke-linejoin="miter" stroke="rgb(0%, 0%, 0%)" stroke-opacity="1" stroke-miterlimit="1.154701" d="M 1167.546875 536.148438 L 1384 513.234375 "/>
</g>
<path fill="none" stroke-width="1" stroke-linecap="butt" stroke-linejoin="miter" stroke="rgb(0%, 0%, 0%)" stroke-opacity="1" stroke-miterlimit="1.154701" d="M 1172.582031 360.757812 L 643.660156 306.789062 "/>
<path fill="none" stroke-width="1" stroke-linecap="butt" stroke-linejoin="miter" stroke="rgb(0%, 0%, 0%)" stroke-opacity="1" stroke-miterlimit="1.154701" d="M 643.660156 306.789062 L 711.769531 582.898438 "/>
<path fill="none" stroke-width="1" stroke-linecap="butt" stroke-linejoin="miter" stroke="rgb(0%, 0%, 0%)" stroke-opacity="1" stroke-miterlimit="1.154701" d="M 711.769531 582.898438 L 1167.546875 536.148438 "/>
<path fill="none" stroke-width="1" stroke-linecap="butt" stroke-linejoin="miter" stroke="rgb(0%, 0%, 0%)" stroke-opacity="1" stroke-miterlimit="1.154701" d="M 1167.546875 536.148438 L 1172.582031 360.757812 "/>
<g clip-path="url(#clip-12-e4a65c37)">
<path fill="none" stroke-width="1" stroke-linecap="butt" stroke-linejoin="miter" stroke="rgb(0%, 0%, 0%)" stroke-opacity="1" stroke-miterlimit="1.154701" d="M 643.660156 306.789062 L 16 243.828125 "/>
</g>
<g clip-path="url(#clip-13-e4a65c37)">
<path fill="none" stroke-width="1" stroke-linecap="butt" stroke-linejoin="miter" stroke="rgb(0%, 0%, 0%)" stroke-opacity="1" stroke-miterlimit="1.154701" d="M 16 654.253906 L 711.769531 582.898438 "/>
</g>
<path fill="none" stroke-width="1" stroke-linecap="butt" stroke-linejoin="miter" stroke="rgb(0%, 0%, 0%)" stroke-opacity="1" stroke-miterlimit="1.154701" d="M 711.769531 582.898438 L 643.660156 306.789062 "/>
<path fill="none" stroke-width="1" stroke-linecap="butt" stroke-linejoin="miter" stroke="rgb(0%, 0%, 0%)" stroke-opacity="1" stroke-miterlimit="1.154701" d="M 1143.984375 603.695312 L 1143.984375 603.695312 "/>
<g clip-path="url(#clip-14-e4a65c37)">
<path fill="none" stroke-width="1" stroke-linecap="butt" stroke-linejoin="miter" stroke="rgb(0%, 0%, 0%)" stroke-opacity="1" stroke-miterlimit="1.154701" d="M 1384 513.234375 L 1167.546875 536.148438 "/>
</g>
<path fill="none" stroke-width="1" stroke-linecap="butt" stroke-linejoin="miter" stroke="rgb(0%, 0%, 0%)" stroke-opacity="1" stroke-miterlimit="1.154701" d="M 1167.546875 536.148438 L 1222.773438 702.164062 "/>
<g clip-path="url(#clip-15-e4a65c37)">
<path fill="none" stroke-width="1" stroke-linecap="butt" stroke-linejoin="miter" stroke="rgb(0%, 0%, 0%)" stroke-opacity="1" stroke-miterlimit="1.154701" d="M 1222.773438 702.164062 L 1384 646.894531 "/>
</g>
<path fill="none" stroke-width="1" stroke-linecap="butt" stroke-linejoin="miter" stroke="rgb(0%, 0%, 0%)" stroke-opacity="1" stroke-miterlimit="1.154701" d="M 1167.546875 536.148438 L 711.769531 582.898438 "/>
<path fill="none" stroke-width="1" stroke-linecap="butt" stroke-linejoin="miter" stroke="rgb(0%, 0%, 0%)" stroke-opacity="1" stroke-miterlimit="1.154701" d="M 711.769531 582.898438 L 835.867188 832.726562 "/>
<path fill="none" stroke-width="1" stroke-linecap="butt" stroke-linejoin="miter" stroke="rgb(0%, 0%, 0%)" stroke-opacity="1" stroke-miterlimit="1.154701" d="M 835.867188 832.726562 L 1222.773438 702.164062 "/>
<path fill="none" stroke-width="1" stroke-linecap="butt" stroke-linejoin="miter" stroke="rgb(0%, 0%, 0%)" stroke-opacity="1" stroke-miterlimit="1.154701" d="M 1222.773438 702.164062 L 1167.546875 536.148438 "/>
<g clip-path="url(#clip-16-e4a65c37)">
<path fill="none" stroke-width="1" stroke-linecap="butt" stroke-linejoin="miter" stroke="rgb(0%, 0%, 0%)" stroke-opacity="1" stroke-miterlimit="1.154701" d="M 711.769531 582.898438 L 16 654.253906 "/>
</g>
<g clip-path="url(#clip-17-e4a65c37)">
<path fill="none" stroke-width="1" stroke-linecap="butt" stroke-linejoin="miter" stroke="rgb(0%, 0%, 0%)" stroke-opacity="1" stroke-miterlimit="1.154701" d="M 16 878.117188 L 19.28125 884 "/>
</g>
<g clip-path="url(#clip-18-e4a65c37)">
<path fill="none" stroke-width="1" stroke-linecap="butt" stroke-linejoin="miter" stroke="rgb(0%, 0%, 0%)" stroke-opacity="1" stroke-miterlimit="1.154701" d="M 685.660156 884 L 835.867188 832.726562 "/>
</g>
<path fill="none" stroke-width="1" stroke-linecap="butt" stroke-linejoin="miter" stroke="rgb(0%, 0%, 0%)" stroke-opacity="1" stroke-miterlimit="1.154701" d="M 835.867188 832.726562 L 711.769531 582.898438 "/>
<g clip-path="url(#clip-19-e4a65c37)">
<path fill="none" stroke-width="1" stroke-linecap="butt" stroke-linejoin="miter" stroke="rgb(0%, 0%, 0%)" stroke-opacity="1" stroke-miterlimit="1.154701" d="M 19.28125 884 L 16 878.117188 "/>
</g>
<path fill="none" stroke-width="1" stroke-linecap="butt" stroke-linejoin="miter" stroke="rgb(0%, 0%, 0%)" stroke-opacity="1" stroke-miterlimit="1.154701" d="M 1143.984375 603.695312 L 1143.984375 603.695312 "/>
<g clip-path="url(#clip-20-e4a65c37)">
<path fill="none" stroke-width="1" stroke-linecap="butt" stroke-linejoin="miter" stroke="rgb(0%, 0%, 0%)" stroke-opacity="1" stroke-miterlimit="1.154701" d="M 1384 646.894531 L 1222.773438 702.164062 "/>
</g>
<path fill="none" stroke-width="1" stroke-linecap="butt" stroke-linejoin="miter" stroke="rgb(0%, 0%, 0%)" stroke-opacity="1" stroke-miterlimit="1.154701" d="M 1222.773438 702.164062 L 1337.5625 864.160156 "/>
<g clip-path="url(#clip-21-e4a65c37)">
<path fill="none" stroke-width="1" stroke-linecap="butt" stroke-linejoin="miter" stroke="rgb(0%, 0%, 0%)" stroke-opacity="1" stroke-miterlimit="1.154701" d="M 1337.5625 864.160156 L 1384 832.039062 "/>
</g>
<path fill="none" stroke-width="1" stroke-linecap="butt" stroke-linejoin="miter" stroke="rgb(0%, 0%, 0%)" stroke-opacity="1" stroke-miterlimit="1.154701" d="M 1222.773438 702.164062 L 835.867188 832.726562 "/>
<g clip-path="url(#clip-22-e4a65c37)">
<path fill="none" stroke-width="1" stroke-linecap="butt" stroke-linejoin="miter" stroke="rgb(0%, 0%, 0%)" stroke-opacity="1" stroke-miterlimit="1.154701" d="M 835.867188 832.726562 L 873.871094 884 "/>
</g>
<g clip-path="url(#clip-23-e4a65c37)">
<path fill="none" stroke-width="1" stroke-linecap="butt" stroke-linejoin="miter" stroke="rgb(0%, 0%, 0%)" stroke-opacity="1" stroke-miterlimit="1.154701" d="M 1308.664062 884 L 1337.5625 864.160156 "/>
</g>
<path fill="none" stroke-width="1" stroke-linecap="butt" stroke-linejoin="miter" stroke="rgb(0%, 0%, 0%)" stroke-opacity="1" stroke-miterlimit="1.154701" d="M 1337.5625 864.160156 L 1222.773438 702.164062 "/>
<g clip-path="url(#clip-24-e4a65c37)">
<path fill="none" stroke-width="1" stroke-linecap="butt" stroke-linejoin="miter" stroke="rgb(0%, 0%, 0%)" stroke-opacity="1" stroke-miterlimit="1.154701" d="M 835.867188 832.726562 L 685.660156 884 "/>
</g>
<g clip-path="url(#clip-25-e4a65c37)">
<path fill="none" stroke-width="1" stroke-linecap="butt" stroke-linejoin="miter" stroke="rgb(0%, 0%, 0%)" stroke-opacity="1" stroke-miterlimit="1.154701" d="M 873.871094 884 L 835.867188 832.726562 "/>
</g>
<g clip-path="url(#clip-26-e4a65c37)">
<path fill="none" stroke-width="1" stroke-linecap="butt" stroke-linejoin="miter" stroke="rgb(0%, 0%, 0%)" stroke-opacity="1" stroke-miterlimit="1.154701" d="M 1384 832.039062 L 1337.5625 864.160156 "/>
</g>
<g clip-path="url(#clip-27-e4a65c37)">
<path fill="none" stroke-width="1" stroke-linecap="butt" stroke-linejoin="miter" stroke="rgb(0%, 0%, 0%)" stroke-opacity="1" stroke-miterlimit="1.154701" d="M 1337.5625 864.160156 L 1358.738281 884 "/>
</g>
<g clip-path="url(#clip-28-e4a65c37)">
<path fill="none" stroke-width="1" stroke-linecap="butt" stroke-linejoin="miter" stroke="rgb(0%, 0%, 0%)" stroke-opacity="1" stroke-miterlimit="1.154701" d="M 1337.5625 864.160156 L 1308.664062 884 "/>
</g>
<g clip-path="url(#clip-29-e4a65c37)">
<path fill="none" stroke-width="1" stroke-linecap="butt" stroke-linejoin="miter" stroke="rgb(0%, 0%, 0%)" stroke-opacity="1" stroke-miterlimit="1.154701" d="M 1358.738281 884 L 1337.5625 864.160156 "/>
</g>
<path fill="none" stroke-width="1" stroke-linecap="butt" stroke-linejoin="miter" stroke="rgb(0%, 0%, 0%)" stroke-opacity="1" stroke-miterlimit="1.154701" d="M 1330.117188 308.300781 L 1330.117188 308.300781 "/>
<path fill="none" stroke-width="1" stroke-linecap="butt" stroke-linejoin="miter" stroke="rgb(0%, 0%, 0%)" stroke-opacity="1" stroke-miterlimit="1.154701" d="M 848.945312 277.285156 L 848.945312 277.285156 "/>
<path fill="none" stroke-width="1" stroke-linecap="butt" stroke-linejoin="miter" stroke="rgb(0%, 0%, 0%)" stroke-opacity="1" stroke-miterlimit="1.154701" d="M 729.183594 269.5625 L 729.183594 269.5625 "/>
<path fill="none" stroke-width="1" stroke-linecap="butt" stroke-linejoin="miter" stroke="rgb(0%, 0%, 0%)" stroke-opacity="1" stroke-miterlimit="1.154701" d="M 1137.847656 295.90625 L 1137.847656 295.90625 "/>
<path fill="none" stroke-width="1" stroke-linecap="butt" stroke-linejoin="miter" stroke="rgb(0%, 0%, 0%)" stroke-opacity="1" stroke-miterlimit="1.154701" d="M 1330.117188 308.300781 L 1330.117188 308.300781 "/>
<path fill="none" stroke-width="1" stroke-linecap="butt" stroke-linejoin="miter" stroke="rgb(0%, 0%, 0%)" stroke-opacity="1" stroke-miterlimit="1.154701" d="M 848.945312 277.285156 L 848.945312 277.285156 "/>
<path fill="none" stroke-width="1" stroke-linecap="butt" stroke-linejoin="miter" stroke="rgb(0%, 0%, 0%)" stroke-opacity="1" stroke-miterlimit="1.154701" d="M 729.183594 269.5625 L 729.183594 269.5625 "/>
<path fill="none" stroke-width="1" stroke-linecap="butt" stroke-linejoin="miter" stroke="rgb(0%, 0%, 0%)" stroke-opacity="1" stroke-miterlimit="1.154701" d="M 1137.847656 295.90625 L 1137.847656 295.90625 "/>
</svg>
