<?xml version="1.0" encoding="UTF-8"?>
<svg xmlns="http://www.w3.org/2000/svg" xmlns:xlink="http://www.w3.org/1999/xlink" width="1400" height="900" viewBox="0 0 1400 900">
<defs>
<clipPath id="clip-0-c2f93c3a">
<path clip-rule="nonzero" d="M 723 16 L 811 16 L 811 147 L 723 147 Z M 723 16 "/>
</clipPath>
<clipPath id="clip-1-c2f93c3a">
<path clip-rule="nonzero" d="M 806 141 L 1384 141 L 1384 147 L 806 147 Z M 806 141 "/>
</clipPath>
<clipPath id="clip-2-c2f93c3a">
<path clip-rule="nonzero" d="M 16 143 L 811 143 L 811 151 L 16 151 Z M 16 143 "/>
</clipPath>
<clipPath id="clip-3-c2f93c3a">
<path clip-rule="nonzero" d="M 723 16 L 811 16 L 811 147 L 723 147 Z M 723 16 "/>
</clipPath>
<clipPath id="clip-4-c2f93c3a">
<path clip-rule="nonzero" d="M 806 141 L 1384 141 L 1384 147 L 806 147 Z M 806 141 "/>
</clipPath>
<clipPath id="clip-5-c2f93c3a">
<path clip-rule="nonzero" d="M 893 348 L 1384 348 L 1384 353 L 893 353 Z M 893 348 "/>
</clipPath>
<clipPath id="clip-6-c2f93c3a">
<path clip-rule="nonzero" d="M 16 143 L 811 143 L 811 151 L 16 151 Z M 16 143 "/>
</clipPath>
<clipPath id="clip-7-c2f93c3a">
<path clip-rule="nonzero" d="M 16 349 L 897 349 L 897 354 L 16 354 Z M 16 349 "/>
</clipPath>
<clipPath id="clip-8-c2f93c3a">
<path clip-rule="nonzero" d="M 893 348 L 1384 348 L 1384 353 L 893 353 Z M 893 348 "/>
</clipPath>
<clipPath id="clip-9-c2f93c3a">
<path clip-rule="nonzero" d="M 933 547 L 1384 547 L 1384 552 L 933 552 Z M 933 547 "/>
</clipPath>
<clipPath id="clip-10-c2f93c3a">
<path clip-rule="nonzero" d="M 16 349 L 897 349 L 897 354 L 16 354 Z M 16 349 "/>
</clipPath>
<clipPath id="clip-11-c2f93c3a">
<path clip-rule="nonzero" d="M 16 546 L 937 546 L 937 551 L 16 551 Z M 16 546 "/>
</clipPath>
<clipPath id="clip-12-c2f93c3a">
<path clip-rule="nonzero" d="M 933 547 L 1384 547 L 1384 552 L 933 552 Z M 933 547 "/>
</clipPath>
<clipPath id="clip-13-c2f93c3a">
<path clip-rule="nonzero" d="M 939 752 L 1384 752 L 1384 758 L 939 758 Z M 939 752 "/>
</clipPath>
<clipPath id="clip-14-c2f93c3a">
<path clip-rule="nonzero" d="M 16 546 L 937 546 L 937 551 L 16 551 Z M 16 546 "/>
</clipPath>
<clipPath id="clip-15-c2f93c3a">
<path clip-rule="nonzero" d="M 16 748 L 943 748 L 943 757 L 16 757 Z M 16 748 "/>
</clipPath>
<clipPath id="clip-16-c2f93c3a">
<path clip-rule="nonzero" d="M 939 752 L 1384 752 L 1384 758 L 939 758 Z M 939 752 "/>
</clipPath>
<clipPath id="clip-17-c2f93c3a">
<path clip-rule="nonzero" d="M 925 752 L 943 752 L 943 884 L 925 884 Z M 925 752 "/>
</clipPath>
<clipPath id="clip-18-c2f93c3a">
<path clip-rule="nonzero" d="M 16 748 L 943 748 L 943 757 L 16 757 Z M 16 748 "/>
</clipPath>
<clipPath id="clip-19-c2f93c3a">
<path clip-rule="nonzero" d="M 925 752 L 943 752 L 943 884 L 925 884 Z M 925 752 "/>
</clipPath>
</defs>
<g clip-path="url(#clip-0-c2f93c3a)">
<path fill="none" stroke-width="1" stroke-linecap="butt" stroke-linejoin="miter" stroke="rgb(0%, 0%, 0%)" stroke-opacity="1" stroke-miterlimit="1.154701" d="M 725.570312 16 L 808.429688 145 "/>
</g>
<g clip-path="url(#clip-1-c2f93c3a)">
<path fill="none" stroke-width="1" stroke-linecap="butt" stroke-linejoin="miter" stroke="rgb(0%, 0%, 0%)" stroke-opacity="1" stroke-miterlimit="1.154701" d="M 808.429688 145 L 1384 142.871094 "/>
</g>
<g clip-path="url(#clip-2-c2f93c3a)">
<path fill="none" stroke-width="1" stroke-linecap="butt" stroke-linejoin="miter" stroke="rgb(0%, 0%, 0%)" stroke-opacity="1" stroke-miterlimit="1.154701" d="M 16 148.722656 L 808.429688 145 "/>
</g>
<g clip-path="url(#clip-3-c2f93c3a)">
<path fill="none" stroke-width="1" stroke-linecap="butt" stroke-linejoin="miter" stroke="rgb(0%, 0%, 0%)" stroke-opacity="1" stroke-miterlimit="1.154701" d="M 808.429688 145 L 725.570312 16 "/>
</g>
<g clip-path="url(#clip-4-c2f93c3a)">
<path fill="none" stroke-width="1" stroke-linecap="butt" stroke-linejoin="miter" stroke="rgb(0%, 0%, 0%)" stroke-opacity="1" stroke-miterlimit="1.154701" d="M 1384 142.871094 L 808.429688 145 "/>
</g>
<path fill="none" stroke-width="1" stroke-linecap="butt" stroke-linejoin="miter" stroke="rgb(0%, 0%, 0%)" stroke-opacity="1" stroke-miterlimit="1.154701" d="M 808.429688 145 L 894.890625 350.789062 "/>
<g clip-path="url(#clip-5-c2f93c3a)">
<path fill="none" stroke-width="1" stroke-linecap="butt" stroke-linejoin="miter" stroke="rgb(0%, 0%, 0%)" stroke-opacity="1" stroke-miterlimit="1.154701" d="M 894.890625 350.789062 L 1384 350.199219 "/>
</g>
<g clip-path="url(#clip-6-c2f93c3a)">
<path fill="none" stroke-width="1" stroke-linecap="butt" stroke-linejoin="miter" stroke="rgb(0%, 0%, 0%)" stroke-opacity="1" stroke-miterlimit="1.154701" d="M 808.429688 145 L 16 148.722656 "/>
</g>
<g clip-path="url(#clip-7-c2f93c3a)">
<path fill="none" stroke-width="1" stroke-linecap="butt" stroke-linejoin="miter" stroke="rgb(0%, 0%, 0%)" stroke-opacity="1" stroke-miterlimit="1.154701" d="M 16 352.125 L 894.890625 350.789062 "/>
</g>
<path fill="none" stroke-width="1" stroke-linecap="butt" stroke-linejoin="miter" stroke="rgb(0%, 0%, 0%)" stroke-opacity="1" stroke-miterlimit="1.154701" d="M 894.890625 350.789062 L 808.429688 145 "/>
<g clip-path="url(#clip-8-c2f93c3a)">
<path fill="none" stroke-width="1" stroke-linecap="butt" stroke-linejoin="miter" stroke="rgb(0%, 0%, 0%)" stroke-opacity="1" stroke-miterlimit="1.154701" d="M 1384 350.199219 L 894.890625 350.789062 "/>
</g>
<path fill="none" stroke-width="1" stroke-linecap="butt" stroke-linejoin="miter" stroke="rgb(0%, 0%, 0%)" stroke-opacity="1" stroke-miterlimit="1.154701" d="M 894.890625 350.789062 L 934.957031 549.136719 "/>
<g clip-path="url(#clip-9-c2f93c3a)">
<path fill="none" stroke-width="1" stroke-linecap="butt" stroke-linejoin="miter" stroke="rgb(0%, 0%, 0%)" stroke-opacity="1" stroke-miterlimit="1.154701" d="M 934.957031 549.136719 L 1384 549.6875 "/>
</g>
<g clip-path="url(#clip-10-c2f93c3a)">
<path fill="none" stroke-width="1" stroke-linecap="butt" stroke-linejoin="miter" stroke="rgb(0%, 0%, 0%)" stroke-opacity="1" stroke-miterlimit="1.154701" d="M 894.890625 350.789062 L 16 352.125 "/>
</g>
<g clip-path="url(#clip-11-c2f93c3a)">
<path fill="none" stroke-width="1" stroke-linecap="butt" stroke-linejoin="miter" stroke="rgb(0%, 0%, 0%)" stroke-opacity="1" stroke-miterlimit="1.154701" d="M 16 547.75 L 934.957031 549.136719 "/>
</g>
<path fill="none" stroke-width="1" stroke-linecap="butt" stroke-linejoin="miter" stroke="rgb(0%, 0%, 0%)" stroke-opacity="1" stroke-miterlimit="1.154701" d="M 934.957031 549.136719 L 894.890625 350.789062 "/>
<g clip-path="url(#clip-12-c2f93c3a)">
<path fill="none" stroke-width="1" stroke-linecap="butt" stroke-linejoin="miter" stroke="rgb(0%, 0%, 0%)" stroke-opacity="1" stroke-miterlimit="1.154701" d="M 1384 549.6875 L 934.957031 549.136719 "/>
</g>
<path fill="none" stroke-width="1" stroke-linecap="butt" stroke-linejoin="miter" stroke="rgb(0%, 0%, 0%)" stroke-opacity="1" stroke-miterlimit="1.154701" d="M 934.957031 549.136719 L 941.105469 754.398438 "/>
<g clip-path="url(#clip-13-c2f93c3a)">
<path fill="none" stroke-width="1" stroke-linecap="butt" stroke-linejoin="miter" stroke="rgb(0%, 0%, 0%)" stroke-opacity="1" stroke-miterlimit="1.154701" d="M 941.105469 754.398438 L 1384 756.085938 "/>
</g>
<g clip-path="url(#clip-14-c2f93c3a)">
<path fill="none" stroke-width="1" stroke-linecap="butt" stroke-linejoin="miter" stroke="rgb(0%, 0%, 0%)" stroke-opacity="1" stroke-miterlimit="1.154701" d="M 934.957031 549.136719 L 16 547.75 "/>
</g>
<g clip-path="url(#clip-15-c2f93c3a)">
<path fill="none" stroke-width="1" stroke-linecap="butt" stroke-linejoin="miter" stroke="rgb(0%, 0%, 0%)" stroke-opacity="1" stroke-miterlimit="1.154701" d="M 16 750.15625 L 941.105469 754.398438 "/>
</g>
<path fill="none" stroke-width="1" stroke-linecap="butt" stroke-linejoin="miter" stroke="rgb(0%, 0%, 0%)" stroke-opacity="1" stroke-miterlimit="1.154701" d="M 941.105469 754.398438 L 934.957031 549.136719 "/>
<g clip-path="url(#clip-16-c2f93c3a)">
<path fill="none" stroke-width="1" stroke-linecap="butt" stroke-linejoin="miter" stroke="rgb(0%, 0%, 0%)" stroke-opacity="1" stroke-miterlimit="1.154701" d="M 1384 756.085938 L 941.105469 754.398438 "/>
</g>
<g clip-path="url(#clip-17-c2f93c3a)">
<path fill="none" stroke-width="1" stroke-linecap="butt" stroke-linejoin="miter" stroke="rgb(0%, 0%, 0%)" stroke-opacity="1" stroke-miterlimit="1.154701" d="M 941.105469 754.398438 L 927.226562 884 "/>
</g>
<g clip-path="url(#clip-18-c2f93c3a)">
<path fill="none" stroke-width="1" stroke-linecap="butt" stroke-linejoin="miter" stroke="rgb(0%, 0%, 0%)" stroke-opacity="1" stroke-miterlimit="1.154701" d="M 941.105469 754.398438 L 16 750.15625 "/>
</g>
<g clip-path="url(#clip-19-c2f93c3a)">
<path fill="none" stroke-width="1" stroke-linecap="butt" stroke-linejoin="miter" stroke="rgb(0%, 0%, 0%)" stroke-opacity="1" stroke-miterlimit="1.154701" d="M 927.226562 884 L 941.105469 754.398438 "/>
</g>
<path fill="none" stroke-width="1" stroke-linecap="butt" stroke-linejoin="miter" stroke="rgb(0%, 0%, 0%)" stroke-opacity="1" stroke-miterlimit="1.154701" d="M 888.550781 143.917969 L 888.550781 143.917969 "/>
<path fill="none" stroke-width="1" stroke-linecap="butt" stroke-linejoin="miter" stroke="rgb(0%, 0%, 0%)" stroke-opacity="1" stroke-miterlimit="1.154701" d="M 961.21875 350.21875 L 961.21875 350.21875 "/>
<path fill="none" stroke-width="1" stroke-linecap="butt" stroke-linejoin="miter" stroke="rgb(0%, 0%, 0%)" stroke-opacity="1" stroke-miterlimit="1.154701" d="M 888.550781 143.917969 L 888.550781 143.917969 "/>
<path fill="none" stroke-width="1" stroke-linecap="butt" stroke-linejoin="miter" stroke="rgb(0%, 0%, 0%)" stroke-opacity="1" stroke-miterlimit="1.154701" d="M 842.539062 350.378906 L 842.539062 350.378906 "/>
<path fill="none" stroke-width="1" stroke-linecap="butt" stroke-linejoin="miter" stroke="rgb(0%, 0%, 0%)" stroke-opacity="1" stroke-miterlimit="1.154701" d="M 1256.617188 349.820312 L 1256.617188 349.820312 "/>
<path fill="none" stroke-width="1" stroke-linecap="butt" stroke-linejoin="miter" stroke="rgb(0%, 0%, 0%)" stroke-opacity="1" stroke-miterlimit="1.154701" d="M 961.21875 350.21875 L 961.21875 350.21875 "/>
<path fill="none" stroke-width="1" stroke-linecap="butt" stroke-linejoin="miter" stroke="rgb(0%, 0%, 0%)" stroke-opacity="1" stroke-miterlimit="1.154701" d="M 996.285156 549.828125 L 996.285156 549.828125 "/>
<path fill="none" stroke-width="1" stroke-linecap="butt" stroke-linejoin="miter" stroke="rgb(0%, 0%, 0%)" stroke-opacity="1" stroke-miterlimit="1.154701" d="M 842.539062 350.378906 L 842.539062 350.378906 "/>
<path fill="none" stroke-width="1" stroke-linecap="butt" stroke-linejoin="miter" stroke="rgb(0%, 0%, 0%)" stroke-opacity="1" stroke-miterlimit="1.154701" d="M 1318.925781 550.261719 L 1318.925781 550.261719 "/>
<path fill="none" stroke-width="1" stroke-linecap="butt" stroke-linejoin="miter" stroke="rgb(0%, 0%, 0%)" stroke-opacity="1" stroke-miterlimit="1.154701" d="M 1256.617188 349.820312 L 1256.617188 349.820312 "/>
<path fill="none" stroke-width="1" stroke-linecap="butt" stroke-linejoin="miter" stroke="rgb(0%, 0%, 0%)" stroke-opacity="1" stroke-miterlimit="1.154701" d="M 579.910156 549.269531 L 579.910156 549.269531 "/>
<path fill="none" stroke-width="1" stroke-linecap="butt" stroke-linejoin="miter" stroke="rgb(0%, 0%, 0%)" stroke-opacity="1" stroke-miterlimit="1.154701" d="M 996.285156 549.828125 L 996.285156 549.828125 "/>
<path fill="none" stroke-width="1" stroke-linecap="butt" stroke-linejoin="miter" stroke="rgb(0%, 0%, 0%)" stroke-opacity="1" stroke-miterlimit="1.154701" d="M 617.101562 754.957031 L 617.101562 754.957031 "/>
<path fill="none" stroke-width="1" stroke-linecap="butt" stroke-linejoin="miter" stroke="rgb(0%, 0%, 0%)" stroke-opacity="1" stroke-miterlimit="1.154701" d="M 1318.925781 550.261719 L 1318.925781 550.261719 "/>
<path fill="none" stroke-width="1" stroke-linecap="butt" stroke-linejoin="miter" stroke="rgb(0%, 0%, 0%)" stroke-opacity="1" stroke-miterlimit="1.154701" d="M 648.679688 755.089844 L 648.679688 755.089844 "/>
<path fill="none" stroke-width="1" stroke-linecap="butt" stroke-linejoin="miter" stroke="rgb(0%, 0%, 0%)" stroke-opacity="1" stroke-miterlimit="1.154701" d="M 579.910156 549.269531 L 579.910156 549.269531 "/>
<path fill="none" stroke-width="1" stroke-linecap="butt" stroke-linejoin="miter" stroke="rgb(0%, 0%, 0%)" stroke-opacity="1" stroke-miterlimit="1.154701" d="M 1003.816406 756.558594 L 1003.816406 756.558594 "/>
<path fill="none" stroke-width="1" stroke-linecap="butt" stroke-linejoin="miter" stroke="rgb(0%, 0%, 0%)" stroke-opacity="1" stroke-miterlimit="1.154701" d="M 76.003906 752.722656 L 76.003906 752.722656 "/>
<path fill="none" stroke-width="1" stroke-linecap="butt" stroke-linejoin="miter" stroke="rgb(0%, 0%, 0%)" stroke-opacity="1" stroke-miterlimit="1.154701" d="M 129.371094 752.945312 L 129.371094 752.945312 "/>
<path fill="none" stroke-width="1" stroke-linecap="butt" stroke-linejoin="miter" stroke="rgb(0%, 0%, 0%)" stroke-opacity="1" stroke-miterlimit="1.154701" d="M 617.101562 754.957031 L 617.101562 754.957031 "/>
<path fill="none" stroke-width="1" stroke-linecap="butt" stroke-linejoin="miter" stroke="rgb(0%, 0%, 0%)" stroke-opacity="1" stroke-miterlimit="1.154701" d="M 648.679688 755.089844 L 648.679688 755.089844 "/>
<path fill="none" stroke-width="1" stroke-linecap="butt" stroke-linejoin="miter" stroke="rgb(0%, 0%, 0%)" stroke-opacity="1" stroke-miterlimit="1.154701" d="M 1003.816406 756.558594 L 1003.816406 756.558594 "/>
<path fill="none" stroke-width="1" stroke-linecap="butt" stroke-linejoin="miter" stroke="rgb(0%, 0%, 0%)" stroke-opacity="1" stroke-miterlimit="1.154701" d="M 76.003906 752.722656 L 76.003906 752.722656 "/>
<path fill="none" stroke-width="1" stroke-linecap="butt" stroke-linejoin="miter" stroke="rgb(0%, 0%, 0%)" stroke-opacity="1" stroke-miterlimit="1.154701" d="M 129.371094 752.945312 L 129.371094 752.945312 "/>
</svg>
