<?xml version="1.0" encoding="UTF-8"?>
<svg xmlns="http://www.w3.org/2000/svg" xmlns:xlink="http://www.w3.org/1999/xlink" width="1400" height="900" viewBox="0 0 1400 900">
<defs>
<clipPath id="clip-0-a850ce5e">
<path clip-rule="nonzero" d="M 561 16 L 658 16 L 658 140 L 561 140 Z M 561 16 "/>
</clipPath>
<clipPath id="clip-1-a850ce5e">
<path clip-rule="nonzero" d="M 653 129 L 1384 129 L 1384 140 L 653 140 Z M 653 129 "/>
</clipPath>
<clipPath id="clip-2-a850ce5e">
<path clip-rule="nonzero" d="M 16 135 L 658 135 L 658 147 L 16 147 Z M 16 135 "/>
</clipPath>
<clipPath id="clip-3-a850ce5e">
<path clip-rule="nonzero" d="M 561 16 L 658 16 L 658 140 L 561 140 Z M 561 16 "/>
</clipPath>
<clipPath id="clip-4-a850ce5e">
<path clip-rule="nonzero" d="M 653 129 L 1384 129 L 1384 140 L 653 140 Z M 653 129 "/>
</clipPath>
<clipPath id="clip-5-a850ce5e">
<path clip-rule="nonzero" d="M 761 345 L 1384 345 L 1384 351 L 761 351 Z M 761 345 "/>
</clipPath>
<clipPath id="clip-6-a850ce5e">
<path clip-rule="nonzero" d="M 16 135 L 658 135 L 658 147 L 16 147 Z M 16 135 "/>
</clipPath>
<clipPath id="clip-7-a850ce5e">
<path clip-rule="nonzero" d="M 16 346 L 766 346 L 766 353 L 16 353 Z M 16 346 "/>
</clipPath>
<clipPath id="clip-8-a850ce5e">
<path clip-rule="nonzero" d="M 761 345 L 1384 345 L 1384 351 L 761 351 Z M 761 345 "/>
</clipPath>
<clipPath id="clip-9-a850ce5e">
<path clip-rule="nonzero" d="M 813 549 L 1384 549 L 1384 555 L 813 555 Z M 813 549 "/>
</clipPath>
<clipPath id="clip-10-a850ce5e">
<path clip-rule="nonzero" d="M 16 346 L 766 346 L 766 353 L 16 353 Z M 16 346 "/>
</clipPath>
<clipPath id="clip-11-a850ce5e">
<path clip-rule="nonzero" d="M 16 546 L 817 546 L 817 554 L 16 554 Z M 16 546 "/>
</clipPath>
<clipPath id="clip-12-a850ce5e">
<path clip-rule="nonzero" d="M 813 549 L 1384 549 L 1384 555 L 813 555 Z M 813 549 "/>
</clipPath>
<clipPath id="clip-13-a850ce5e">
<path clip-rule="nonzero" d="M 820 759 L 1384 759 L 1384 768 L 820 768 Z M 820 759 "/>
</clipPath>
<clipPath id="clip-14-a850ce5e">
<path clip-rule="nonzero" d="M 16 546 L 817 546 L 817 554 L 16 554 Z M 16 546 "/>
</clipPath>
<clipPath id="clip-15-a850ce5e">
<path clip-rule="nonzero" d="M 16 751 L 824 751 L 824 763 L 16 763 Z M 16 751 "/>
</clipPath>
<clipPath id="clip-16-a850ce5e">
<path clip-rule="nonzero" d="M 820 759 L 1384 759 L 1384 768 L 820 768 Z M 820 759 "/>
</clipPath>
<clipPath id="clip-17-a850ce5e">
<path clip-rule="nonzero" d="M 802 759 L 824 759 L 824 884 L 802 884 Z M 802 759 "/>
</clipPath>
<clipPath id="clip-18-a850ce5e">
<path clip-rule="nonzero" d="M 16 751 L 824 751 L 824 763 L 16 763 Z M 16 751 "/>
</clipPath>
<clipPath id="clip-19-a850ce5e">
<path clip-rule="nonzero" d="M 802 759 L 824 759 L 824 884 L 802 884 Z M 802 759 "/>
</clipPath>
</defs>
<g clip-path="url(#clip-0-a850ce5e)">
<path fill="none" stroke-width="1" stroke-linecap="butt" stroke-linejoin="miter" stroke="rgb(0%, 0%, 0%)" stroke-opacity="1" stroke-miterlimit="1.154701" d="M 563.414062 16 L 655.394531 137.558594 "/>
</g>
<g clip-path="url(#clip-1-a850ce5e)">
<path fill="none" stroke-width="1" stroke-linecap="butt" stroke-linejoin="miter" stroke="rgb(0%, 0%, 0%)" stroke-opacity="1" stroke-miterlimit="1.154701" d="M 655.394531 137.558594 L 1384 131.242188 "/>
</g>
<g clip-path="url(#clip-2-a850ce5e)">
<path fill="none" stroke-width="1" stroke-linecap="butt" stroke-linejoin="miter" stroke="rgb(0%, 0%, 0%)" stroke-opacity="1" stroke-miterlimit="1.154701" d="M 16 144.585938 L 655.394531 137.558594 "/>
</g>
<g clip-path="url(#clip-3-a850ce5e)">
<path fill="none" stroke-width="1" stroke-linecap="butt" stroke-linejoin="miter" stroke="rgb(0%, 0%, 0%)" stroke-opacity="1" stroke-miterlimit="1.154701" d="M 655.394531 137.558594 L 563.414062 16 "/>
</g>
<g clip-path="url(#clip-4-a850ce5e)">
<path fill="none" stroke-width="1" stroke-linecap="butt" stroke-linejoin="miter" stroke="rgb(0%, 0%, 0%)" stroke-opacity="1" stroke-miterlimit="1.154701" d="M 1384 131.242188 L 655.394531 137.558594 "/>
</g>
<path fill="none" stroke-width="1" stroke-linecap="butt" stroke-linejoin="miter" stroke="rgb(0%, 0%, 0%)" stroke-opacity="1" stroke-miterlimit="1.154701" d="M 655.394531 137.558594 L 763.5625 348.460938 "/>
<g clip-path="url(#clip-5-a850ce5e)">
<path fill="none" stroke-width="1" stroke-linecap="butt" stroke-linejoin="miter" stroke="rgb(0%, 0%, 0%)" stroke-opacity="1" stroke-miterlimit="1.154701" d="M 763.5625 348.460938 L 1384 346.710938 "/>
</g>
<g clip-path="url(#clip-6-a850ce5e)">
<path fill="none" stroke-width="1" stroke-linecap="butt" stroke-linejoin="miter" stroke="rgb(0%, 0%, 0%)" stroke-opacity="1" stroke-miterlimit="1.154701" d="M 655.394531 137.558594 L 16 144.585938 "/>
</g>
<g clip-path="url(#clip-7-a850ce5e)">
<path fill="none" stroke-width="1" stroke-linecap="butt" stroke-linejoin="miter" stroke="rgb(0%, 0%, 0%)" stroke-opacity="1" stroke-miterlimit="1.154701" d="M 16 351.113281 L 763.5625 348.460938 "/>
</g>
<path fill="none" stroke-width="1" stroke-linecap="butt" stroke-linejoin="miter" stroke="rgb(0%, 0%, 0%)" stroke-opacity="1" stroke-miterlimit="1.154701" d="M 763.5625 348.460938 L 655.394531 137.558594 "/>
<g clip-path="url(#clip-8-a850ce5e)">
<path fill="none" stroke-width="1" stroke-linecap="butt" stroke-linejoin="miter" stroke="rgb(0%, 0%, 0%)" stroke-opacity="1" stroke-miterlimit="1.154701" d="M 1384 346.710938 L 763.5625 348.460938 "/>
</g>
<path fill="none" stroke-width="1" stroke-linecap="butt" stroke-linejoin="miter" stroke="rgb(0%, 0%, 0%)" stroke-opacity="1" stroke-miterlimit="1.154701" d="M 763.5625 348.460938 L 815.191406 551.398438 "/>
<g clip-path="url(#clip-9-a850ce5e)">
<path fill="none" stroke-width="1" stroke-linecap="butt" stroke-linejoin="miter" stroke="rgb(0%, 0%, 0%)" stroke-opacity="1" stroke-miterlimit="1.154701" d="M 815.191406 551.398438 L 1384 553.019531 "/>
</g>
<g clip-path="url(#clip-10-a850ce5e)">
<path fill="none" stroke-width="1" stroke-linecap="butt" stroke-linejoin="miter" stroke="rgb(0%, 0%, 0%)" stroke-opacity="1" stroke-miterlimit="1.154701" d="M 763.5625 348.460938 L 16 351.113281 "/>
</g>
<g clip-path="url(#clip-11-a850ce5e)">
<path fill="none" stroke-width="1" stroke-linecap="butt" stroke-linejoin="miter" stroke="rgb(0%, 0%, 0%)" stroke-opacity="1" stroke-miterlimit="1.154701" d="M 16 548.59375 L 815.191406 551.398438 "/>
</g>
<path fill="none" stroke-width="1" stroke-linecap="butt" stroke-linejoin="miter" stroke="rgb(0%, 0%, 0%)" stroke-opacity="1" stroke-miterlimit="1.154701" d="M 815.191406 551.398438 L 763.5625 348.460938 "/>
<g clip-path="url(#clip-12-a850ce5e)">
<path fill="none" stroke-width="1" stroke-linecap="butt" stroke-linejoin="miter" stroke="rgb(0%, 0%, 0%)" stroke-opacity="1" stroke-miterlimit="1.154701" d="M 1384 553.019531 L 815.191406 551.398438 "/>
</g>
<path fill="none" stroke-width="1" stroke-linecap="butt" stroke-linejoin="miter" stroke="rgb(0%, 0%, 0%)" stroke-opacity="1" stroke-miterlimit="1.154701" d="M 815.191406 551.398438 L 822.34375 761.339844 "/>
<g clip-path="url(#clip-13-a850ce5e)">
<path fill="none" stroke-width="1" stroke-linecap="butt" stroke-linejoin="miter" stroke="rgb(0%, 0%, 0%)" stroke-opacity="1" stroke-miterlimit="1.154701" d="M 822.34375 761.339844 L 1384 766.335938 "/>
</g>
<g clip-path="url(#clip-14-a850ce5e)">
<path fill="none" stroke-width="1" stroke-linecap="butt" stroke-linejoin="miter" stroke="rgb(0%, 0%, 0%)" stroke-opacity="1" stroke-miterlimit="1.154701" d="M 815.191406 551.398438 L 16 548.59375 "/>
</g>
<g clip-path="url(#clip-15-a850ce5e)">
<path fill="none" stroke-width="1" stroke-linecap="butt" stroke-linejoin="miter" stroke="rgb(0%, 0%, 0%)" stroke-opacity="1" stroke-miterlimit="1.154701" d="M 16 752.742188 L 822.34375 761.339844 "/>
</g>
<path fill="none" stroke-width="1" stroke-linecap="butt" stroke-linejoin="miter" stroke="rgb(0%, 0%, 0%)" stroke-opacity="1" stroke-miterlimit="1.154701" d="M 822.34375 761.339844 L 815.191406 551.398438 "/>
<g clip-path="url(#clip-16-a850ce5e)">
<path fill="none" stroke-width="1" stroke-linecap="butt" stroke-linejoin="miter" stroke="rgb(0%, 0%, 0%)" stroke-opacity="1" stroke-miterlimit="1.154701" d="M 1384 766.335938 L 822.34375 761.339844 "/>
</g>
<g clip-path="url(#clip-17-a850ce5e)">
<path fill="none" stroke-width="1" stroke-linecap="butt" stroke-linejoin="miter" stroke="rgb(0%, 0%, 0%)" stroke-opacity="1" stroke-miterlimit="1.154701" d="M 822.34375 761.339844 L 803.78125 884 "/>
</g>
<g clip-path="url(#clip-18-a850ce5e)">
<path fill="none" stroke-width="1" stroke-linecap="butt" stroke-linejoin="miter" stroke="rgb(0%, 0%, 0%)" stroke-opacity="1" stroke-miterlimit="1.154701" d="M 822.34375 761.339844 L 16 752.742188 "/>
</g>
<g clip-path="url(#clip-19-a850ce5e)">
<path fill="none" stroke-width="1" stroke-linecap="butt" stroke-linejoin="miter" stroke="rgb(0%, 0%, 0%)" stroke-opacity="1" stroke-miterlimit="1.154701" d="M 803.78125 884 L 822.34375 761.339844 "/>
</g>
<path fill="none" stroke-width="1" stroke-linecap="butt" stroke-linejoin="miter" stroke="rgb(0%, 0%, 0%)" stroke-opacity="1" stroke-miterlimit="1.154701" d="M 679.171875 135.828125 L 679.171875 135.828125 "/>
<path fill="none" stroke-width="1" stroke-linecap="butt" stroke-linejoin="miter" stroke="rgb(0%, 0%, 0%)" stroke-opacity="1" stroke-miterlimit="1.154701" d="M 755.371094 347.449219 L 755.371094 347.449219 "/>
<path fill="none" stroke-width="1" stroke-linecap="butt" stroke-linejoin="miter" stroke="rgb(0%, 0%, 0%)" stroke-opacity="1" stroke-miterlimit="1.154701" d="M 679.171875 135.828125 L 679.171875 135.828125 "/>
<path fill="none" stroke-width="1" stroke-linecap="butt" stroke-linejoin="miter" stroke="rgb(0%, 0%, 0%)" stroke-opacity="1" stroke-miterlimit="1.154701" d="M 636.429688 347.8125 L 636.429688 347.8125 "/>
<path fill="none" stroke-width="1" stroke-linecap="butt" stroke-linejoin="miter" stroke="rgb(0%, 0%, 0%)" stroke-opacity="1" stroke-miterlimit="1.154701" d="M 1162.652344 346.199219 L 1162.652344 346.199219 "/>
<path fill="none" stroke-width="1" stroke-linecap="butt" stroke-linejoin="miter" stroke="rgb(0%, 0%, 0%)" stroke-opacity="1" stroke-miterlimit="1.154701" d="M 755.371094 347.449219 L 755.371094 347.449219 "/>
<path fill="none" stroke-width="1" stroke-linecap="butt" stroke-linejoin="miter" stroke="rgb(0%, 0%, 0%)" stroke-opacity="1" stroke-miterlimit="1.154701" d="M 790.949219 552.660156 L 790.949219 552.660156 "/>
<path fill="none" stroke-width="1" stroke-linecap="butt" stroke-linejoin="miter" stroke="rgb(0%, 0%, 0%)" stroke-opacity="1" stroke-miterlimit="1.154701" d="M 636.429688 347.8125 L 636.429688 347.8125 "/>
<path fill="none" stroke-width="1" stroke-linecap="butt" stroke-linejoin="miter" stroke="rgb(0%, 0%, 0%)" stroke-opacity="1" stroke-miterlimit="1.154701" d="M 1104.804688 553.621094 L 1104.804688 553.621094 "/>
<path fill="none" stroke-width="1" stroke-linecap="butt" stroke-linejoin="miter" stroke="rgb(0%, 0%, 0%)" stroke-opacity="1" stroke-miterlimit="1.154701" d="M 1162.652344 346.199219 L 1162.652344 346.199219 "/>
<path fill="none" stroke-width="1" stroke-linecap="butt" stroke-linejoin="miter" stroke="rgb(0%, 0%, 0%)" stroke-opacity="1" stroke-miterlimit="1.154701" d="M 436.441406 551.574219 L 436.441406 551.574219 "/>
<path fill="none" stroke-width="1" stroke-linecap="butt" stroke-linejoin="miter" stroke="rgb(0%, 0%, 0%)" stroke-opacity="1" stroke-miterlimit="1.154701" d="M 790.949219 552.660156 L 790.949219 552.660156 "/>
<path fill="none" stroke-width="1" stroke-linecap="butt" stroke-linejoin="miter" stroke="rgb(0%, 0%, 0%)" stroke-opacity="1" stroke-miterlimit="1.154701" d="M 419.011719 761.726562 L 419.011719 761.726562 "/>
<path fill="none" stroke-width="1" stroke-linecap="butt" stroke-linejoin="miter" stroke="rgb(0%, 0%, 0%)" stroke-opacity="1" stroke-miterlimit="1.154701" d="M 1104.804688 553.621094 L 1104.804688 553.621094 "/>
<path fill="none" stroke-width="1" stroke-linecap="butt" stroke-linejoin="miter" stroke="rgb(0%, 0%, 0%)" stroke-opacity="1" stroke-miterlimit="1.154701" d="M 447.457031 761.992188 L 447.457031 761.992188 "/>
<path fill="none" stroke-width="1" stroke-linecap="butt" stroke-linejoin="miter" stroke="rgb(0%, 0%, 0%)" stroke-opacity="1" stroke-miterlimit="1.154701" d="M 436.441406 551.574219 L 436.441406 551.574219 "/>
<path fill="none" stroke-width="1" stroke-linecap="butt" stroke-linejoin="miter" stroke="rgb(0%, 0%, 0%)" stroke-opacity="1" stroke-miterlimit="1.154701" d="M 884.976562 766.105469 L 884.976562 766.105469 "/>
<path fill="none" stroke-width="1" stroke-linecap="butt" stroke-linejoin="miter" stroke="rgb(0%, 0%, 0%)" stroke-opacity="1" stroke-miterlimit="1.154701" d="M 419.011719 761.726562 L 419.011719 761.726562 "/>
<path fill="none" stroke-width="1" stroke-linecap="butt" stroke-linejoin="miter" stroke="rgb(0%, 0%, 0%)" stroke-opacity="1" stroke-miterlimit="1.154701" d="M 447.457031 761.992188 L 447.457031 761.992188 "/>
<path fill="none" stroke-width="1" stroke-linecap="butt" stroke-linejoin="miter" stroke="rgb(0%, 0%, 0%)" stroke-opacity="1" stroke-miterlimit="1.154701" d="M 884.976562 766.105469 L 884.976562 766.105469 "/>
</svg>
