<?xml version="1.0" encoding="UTF-8"?>
<svg xmlns="http://www.w3.org/2000/svg" xmlns:xlink="http://www.w3.org/1999/xlink" width="1400" height="900" viewBox="0 0 1400 900">
<defs>
<clipPath id="clip-0-2c6588cf">
<path clip-rule="nonzero" d="M 324 16 L 432 16 L 432 132 L 324 132 Z M 324 16 "/>
</clipPath>
<clipPath id="clip-1-2c6588cf">
<path clip-rule="nonzero" d="M 428 112 L 1384 112 L 1384 132 L 428 132 Z M 428 112 "/>
</clipPath>
<clipPath id="clip-2-2c6588cf">
<path clip-rule="nonzero" d="M 16 128 L 432 128 L 432 141 L 16 141 Z M 16 128 "/>
</clipPath>
<clipPath id="clip-3-2c6588cf">
<path clip-rule="nonzero" d="M 324 16 L 432 16 L 432 132 L 324 132 Z M 324 16 "/>
</clipPath>
<clipPath id="clip-4-2c6588cf">
<path clip-rule="nonzero" d="M 428 112 L 1384 112 L 1384 132 L 428 132 Z M 428 112 "/>
</clipPath>
<clipPath id="clip-5-2c6588cf">
<path clip-rule="nonzero" d="M 567 340 L 1384 340 L 1384 348 L 567 348 Z M 567 340 "/>
</clipPath>
<clipPath id="clip-6-2c6588cf">
<path clip-rule="nonzero" d="M 16 128 L 432 128 L 432 141 L 16 141 Z M 16 128 "/>
</clipPath>
<clipPath id="clip-7-2c6588cf">
<path clip-rule="nonzero" d="M 16 344 L 572 344 L 572 352 L 16 352 Z M 16 344 "/>
</clipPath>
<clipPath id="clip-8-2c6588cf">
<path clip-rule="nonzero" d="M 567 340 L 1384 340 L 1384 348 L 567 348 Z M 567 340 "/>
</clipPath>
<clipPath id="clip-9-2c6588cf">
<path clip-rule="nonzero" d="M 636 552 L 1384 552 L 1384 560 L 636 560 Z M 636 552 "/>
</clipPath>
<clipPath id="clip-10-2c6588cf">
<path clip-rule="nonzero" d="M 16 344 L 572 344 L 572 352 L 16 352 Z M 16 344 "/>
</clipPath>
<clipPath id="clip-11-2c6588cf">
<path clip-rule="nonzero" d="M 16 548 L 640 548 L 640 556 L 16 556 Z M 16 548 "/>
</clipPath>
<clipPath id="clip-12-2c6588cf">
<path clip-rule="nonzero" d="M 636 552 L 1384 552 L 1384 560 L 636 560 Z M 636 552 "/>
</clipPath>
<clipPath id="clip-13-2c6588cf">
<path clip-rule="nonzero" d="M 644 767 L 1384 767 L 1384 783 L 644 783 Z M 644 767 "/>
</clipPath>
<clipPath id="clip-14-2c6588cf">
<path clip-rule="nonzero" d="M 16 548 L 640 548 L 640 556 L 16 556 Z M 16 548 "/>
</clipPath>
<clipPath id="clip-15-2c6588cf">
<path clip-rule="nonzero" d="M 16 754 L 649 754 L 649 771 L 16 771 Z M 16 754 "/>
</clipPath>
<clipPath id="clip-16-2c6588cf">
<path clip-rule="nonzero" d="M 644 767 L 1384 767 L 1384 783 L 644 783 Z M 644 767 "/>
</clipPath>
<clipPath id="clip-17-2c6588cf">
<path clip-rule="nonzero" d="M 620 767 L 649 767 L 649 884 L 620 884 Z M 620 767 "/>
</clipPath>
<clipPath id="clip-18-2c6588cf">
<path clip-rule="nonzero" d="M 16 754 L 649 754 L 649 771 L 16 771 Z M 16 754 "/>
</clipPath>
<clipPath id="clip-19-2c6588cf">
<path clip-rule="nonzero" d="M 620 767 L 649 767 L 649 884 L 620 884 Z M 620 767 "/>
</clipPath>
</defs>
<g clip-path="url(#clip-0-2c6588cf)">
<path fill="none" stroke-width="1" stroke-linecap="butt" stroke-linejoin="miter" stroke="rgb(0%, 0%, 0%)" stroke-opacity="1" stroke-miterlimit="1.154701" d="M 325.640625 16 L 430.226562 129.828125 "/>
</g>
<g clip-path="url(#clip-1-2c6588cf)">
<path fill="none" stroke-width="1" stroke-linecap="butt" stroke-linejoin="miter" stroke="rgb(0%, 0%, 0%)" stroke-opacity="1" stroke-miterlimit="1.154701" d="M 430.226562 129.828125 L 1384 114.269531 "/>
</g>
<g clip-path="url(#clip-2-2c6588cf)">
<path fill="none" stroke-width="1" stroke-linecap="butt" stroke-linejoin="miter" stroke="rgb(0%, 0%, 0%)" stroke-opacity="1" stroke-miterlimit="1.154701" d="M 16 138.390625 L 430.226562 129.828125 "/>
</g>
<g clip-path="url(#clip-3-2c6588cf)">
<path fill="none" stroke-width="1" stroke-linecap="butt" stroke-linejoin="miter" stroke="rgb(0%, 0%, 0%)" stroke-opacity="1" stroke-miterlimit="1.154701" d="M 430.226562 129.828125 L 325.640625 16 "/>
</g>
<g clip-path="url(#clip-4-2c6588cf)">
<path fill="none" stroke-width="1" stroke-linecap="butt" stroke-linejoin="miter" stroke="rgb(0%, 0%, 0%)" stroke-opacity="1" stroke-miterlimit="1.154701" d="M 1384 114.269531 L 430.226562 129.828125 "/>
</g>
<path fill="none" stroke-width="1" stroke-linecap="butt" stroke-linejoin="miter" stroke="rgb(0%, 0%, 0%)" stroke-opacity="1" stroke-miterlimit="1.154701" d="M 430.226562 129.828125 L 569.558594 345.957031 "/>
<g clip-path="url(#clip-5-2c6588cf)">
<path fill="none" stroke-width="1" stroke-linecap="butt" stroke-linejoin="miter" stroke="rgb(0%, 0%, 0%)" stroke-opacity="1" stroke-miterlimit="1.154701" d="M 569.558594 345.957031 L 1384 341.65625 "/>
</g>
<g clip-path="url(#clip-6-2c6588cf)">
<path fill="none" stroke-width="1" stroke-linecap="butt" stroke-linejoin="miter" stroke="rgb(0%, 0%, 0%)" stroke-opacity="1" stroke-miterlimit="1.154701" d="M 430.226562 129.828125 L 16 138.390625 "/>
</g>
<g clip-path="url(#clip-7-2c6588cf)">
<path fill="none" stroke-width="1" stroke-linecap="butt" stroke-linejoin="miter" stroke="rgb(0%, 0%, 0%)" stroke-opacity="1" stroke-miterlimit="1.154701" d="M 16 349.632812 L 569.558594 345.957031 "/>
</g>
<path fill="none" stroke-width="1" stroke-linecap="butt" stroke-linejoin="miter" stroke="rgb(0%, 0%, 0%)" stroke-opacity="1" stroke-miterlimit="1.154701" d="M 569.558594 345.957031 L 430.226562 129.828125 "/>
<g clip-path="url(#clip-8-2c6588cf)">
<path fill="none" stroke-width="1" stroke-linecap="butt" stroke-linejoin="miter" stroke="rgb(0%, 0%, 0%)" stroke-opacity="1" stroke-miterlimit="1.154701" d="M 1384 341.65625 L 569.558594 345.957031 "/>
</g>
<path fill="none" stroke-width="1" stroke-linecap="butt" stroke-linejoin="miter" stroke="rgb(0%, 0%, 0%)" stroke-opacity="1" stroke-miterlimit="1.154701" d="M 569.558594 345.957031 L 637.988281 553.875 "/>
<g clip-path="url(#clip-9-2c6588cf)">
<path fill="none" stroke-width="1" stroke-linecap="butt" stroke-linejoin="miter" stroke="rgb(0%, 0%, 0%)" stroke-opacity="1" stroke-miterlimit="1.154701" d="M 637.988281 553.875 L 1384 557.84375 "/>
</g>
<g clip-path="url(#clip-10-2c6588cf)">
<path fill="none" stroke-width="1" stroke-linecap="butt" stroke-linejoin="miter" stroke="rgb(0%, 0%, 0%)" stroke-opacity="1" stroke-miterlimit="1.154701" d="M 569.558594 345.957031 L 16 349.632812 "/>
</g>
<g clip-path="url(#clip-11-2c6588cf)">
<path fill="none" stroke-width="1" stroke-linecap="butt" stroke-linejoin="miter" stroke="rgb(0%, 0%, 0%)" stroke-opacity="1" stroke-miterlimit="1.154701" d="M 16 549.800781 L 637.988281 553.875 "/>
</g>
<path fill="none" stroke-width="1" stroke-linecap="butt" stroke-linejoin="miter" stroke="rgb(0%, 0%, 0%)" stroke-opacity="1" stroke-miterlimit="1.154701" d="M 637.988281 553.875 L 569.558594 345.957031 "/>
<g clip-path="url(#clip-12-2c6588cf)">
<path fill="none" stroke-width="1" stroke-linecap="butt" stroke-linejoin="miter" stroke="rgb(0%, 0%, 0%)" stroke-opacity="1" stroke-miterlimit="1.154701" d="M 1384 557.84375 L 637.988281 553.875 "/>
</g>
<path fill="none" stroke-width="1" stroke-linecap="butt" stroke-linejoin="miter" stroke="rgb(0%, 0%, 0%)" stroke-opacity="1" stroke-miterlimit="1.154701" d="M 637.988281 553.875 L 646.554688 768.964844 "/>
<g clip-path="url(#clip-13-2c6588cf)">
<path fill="none" stroke-width="1" stroke-linecap="butt" stroke-linejoin="miter" stroke="rgb(0%, 0%, 0%)" stroke-opacity="1" stroke-miterlimit="1.154701" d="M 646.554688 768.964844 L 1384 781.210938 "/>
</g>
<g clip-path="url(#clip-14-2c6588cf)">
<path fill="none" stroke-width="1" stroke-linecap="butt" stroke-linejoin="miter" stroke="rgb(0%, 0%, 0%)" stroke-opacity="1" stroke-miterlimit="1.154701" d="M 637.988281 553.875 L 16 549.800781 "/>
</g>
<g clip-path="url(#clip-15-2c6588cf)">
<path fill="none" stroke-width="1" stroke-linecap="butt" stroke-linejoin="miter" stroke="rgb(0%, 0%, 0%)" stroke-opacity="1" stroke-miterlimit="1.154701" d="M 16 756.433594 L 646.554688 768.964844 "/>
</g>
<path fill="none" stroke-width="1" stroke-linecap="butt" stroke-linejoin="miter" stroke="rgb(0%, 0%, 0%)" stroke-opacity="1" stroke-miterlimit="1.154701" d="M 646.554688 768.964844 L 637.988281 553.875 "/>
<g clip-path="url(#clip-16-2c6588cf)">
<path fill="none" stroke-width="1" stroke-linecap="butt" stroke-linejoin="miter" stroke="rgb(0%, 0%, 0%)" stroke-opacity="1" stroke-miterlimit="1.154701" d="M 1384 781.210938 L 646.554688 768.964844 "/>
</g>
<g clip-path="url(#clip-17-2c6588cf)">
<path fill="none" stroke-width="1" stroke-linecap="butt" stroke-linejoin="miter" stroke="rgb(0%, 0%, 0%)" stroke-opacity="1" stroke-miterlimit="1.154701" d="M 646.554688 768.964844 L 621.824219 884 "/>
</g>
<g clip-path="url(#clip-18-2c6588cf)">
<path fill="none" stroke-width="1" stroke-linecap="butt" stroke-linejoin="miter" stroke="rgb(0%, 0%, 0%)" stroke-opacity="1" stroke-miterlimit="1.154701" d="M 646.554688 768.964844 L 16 756.433594 "/>
</g>
<g clip-path="url(#clip-19-2c6588cf)">
<path fill="none" stroke-width="1" stroke-linecap="butt" stroke-linejoin="miter" stroke="rgb(0%, 0%, 0%)" stroke-opacity="1" stroke-miterlimit="1.154701" d="M 621.824219 884 L 646.554688 768.964844 "/>
</g>
<path fill="none" stroke-width="1" stroke-linecap="butt" stroke-linejoin="miter" stroke="rgb(0%, 0%, 0%)" stroke-opacity="1" stroke-miterlimit="1.154701" d="M 1166.375 114.894531 L 1166.375 114.894531 "/>
<path fill="none" stroke-width="1" stroke-linecap="butt" stroke-linejoin="miter" stroke="rgb(0%, 0%, 0%)" stroke-opacity="1" stroke-miterlimit="1.154701" d="M 405.265625 127.800781 L 405.265625 127.800781 "/>
<path fill="none" stroke-width="1" stroke-linecap="butt" stroke-linejoin="miter" stroke="rgb(0%, 0%, 0%)" stroke-opacity="1" stroke-miterlimit="1.154701" d="M 1166.375 114.894531 L 1166.375 114.894531 "/>
<path fill="none" stroke-width="1" stroke-linecap="butt" stroke-linejoin="miter" stroke="rgb(0%, 0%, 0%)" stroke-opacity="1" stroke-miterlimit="1.154701" d="M 482.613281 344.640625 L 482.613281 344.640625 "/>
<path fill="none" stroke-width="1" stroke-linecap="butt" stroke-linejoin="miter" stroke="rgb(0%, 0%, 0%)" stroke-opacity="1" stroke-miterlimit="1.154701" d="M 405.265625 127.800781 L 405.265625 127.800781 "/>
<path fill="none" stroke-width="1" stroke-linecap="butt" stroke-linejoin="miter" stroke="rgb(0%, 0%, 0%)" stroke-opacity="1" stroke-miterlimit="1.154701" d="M 1367.503906 339.753906 L 1367.503906 339.753906 "/>
<path fill="none" stroke-width="1" stroke-linecap="butt" stroke-linejoin="miter" stroke="rgb(0%, 0%, 0%)" stroke-opacity="1" stroke-miterlimit="1.154701" d="M 365.433594 345.285156 L 365.433594 345.285156 "/>
<path fill="none" stroke-width="1" stroke-linecap="butt" stroke-linejoin="miter" stroke="rgb(0%, 0%, 0%)" stroke-opacity="1" stroke-miterlimit="1.154701" d="M 1008.191406 341.738281 L 1008.191406 341.738281 "/>
<path fill="none" stroke-width="1" stroke-linecap="butt" stroke-linejoin="miter" stroke="rgb(0%, 0%, 0%)" stroke-opacity="1" stroke-miterlimit="1.154701" d="M 482.613281 344.640625 L 482.613281 344.640625 "/>
<path fill="none" stroke-width="1" stroke-linecap="butt" stroke-linejoin="miter" stroke="rgb(0%, 0%, 0%)" stroke-opacity="1" stroke-miterlimit="1.154701" d="M 518.074219 555.558594 L 518.074219 555.558594 "/>
<path fill="none" stroke-width="1" stroke-linecap="butt" stroke-linejoin="miter" stroke="rgb(0%, 0%, 0%)" stroke-opacity="1" stroke-miterlimit="1.154701" d="M 1367.503906 339.753906 L 1367.503906 339.753906 "/>
<path fill="none" stroke-width="1" stroke-linecap="butt" stroke-linejoin="miter" stroke="rgb(0%, 0%, 0%)" stroke-opacity="1" stroke-miterlimit="1.154701" d="M 365.433594 345.285156 L 365.433594 345.285156 "/>
<path fill="none" stroke-width="1" stroke-linecap="butt" stroke-linejoin="miter" stroke="rgb(0%, 0%, 0%)" stroke-opacity="1" stroke-miterlimit="1.154701" d="M 821.101562 557.230469 L 821.101562 557.230469 "/>
<path fill="none" stroke-width="1" stroke-linecap="butt" stroke-linejoin="miter" stroke="rgb(0%, 0%, 0%)" stroke-opacity="1" stroke-miterlimit="1.154701" d="M 1008.191406 341.738281 L 1008.191406 341.738281 "/>
<path fill="none" stroke-width="1" stroke-linecap="butt" stroke-linejoin="miter" stroke="rgb(0%, 0%, 0%)" stroke-opacity="1" stroke-miterlimit="1.154701" d="M 204.941406 553.828125 L 204.941406 553.828125 "/>
<path fill="none" stroke-width="1" stroke-linecap="butt" stroke-linejoin="miter" stroke="rgb(0%, 0%, 0%)" stroke-opacity="1" stroke-miterlimit="1.154701" d="M 518.074219 555.558594 L 518.074219 555.558594 "/>
<path fill="none" stroke-width="1" stroke-linecap="butt" stroke-linejoin="miter" stroke="rgb(0%, 0%, 0%)" stroke-opacity="1" stroke-miterlimit="1.154701" d="M 156.683594 767.984375 L 156.683594 767.984375 "/>
<path fill="none" stroke-width="1" stroke-linecap="butt" stroke-linejoin="miter" stroke="rgb(0%, 0%, 0%)" stroke-opacity="1" stroke-miterlimit="1.154701" d="M 821.101562 557.230469 L 821.101562 557.230469 "/>
<path fill="none" stroke-width="1" stroke-linecap="butt" stroke-linejoin="miter" stroke="rgb(0%, 0%, 0%)" stroke-opacity="1" stroke-miterlimit="1.154701" d="M 183.0625 768.429688 L 183.0625 768.429688 "/>
<path fill="none" stroke-width="1" stroke-linecap="butt" stroke-linejoin="miter" stroke="rgb(0%, 0%, 0%)" stroke-opacity="1" stroke-miterlimit="1.154701" d="M 204.941406 553.828125 L 204.941406 553.828125 "/>
<path fill="none" stroke-width="1" stroke-linecap="butt" stroke-linejoin="miter" stroke="rgb(0%, 0%, 0%)" stroke-opacity="1" stroke-miterlimit="1.154701" d="M 693.269531 777.082031 L 693.269531 777.082031 "/>
<path fill="none" stroke-width="1" stroke-linecap="butt" stroke-linejoin="miter" stroke="rgb(0%, 0%, 0%)" stroke-opacity="1" stroke-miterlimit="1.154701" d="M 156.683594 767.984375 L 156.683594 767.984375 "/>
<path fill="none" stroke-width="1" stroke-linecap="butt" stroke-linejoin="miter" stroke="rgb(0%, 0%, 0%)" stroke-opacity="1" stroke-miterlimit="1.154701" d="M 183.0625 768.429688 L 183.0625 768.429688 "/>
<path fill="none" stroke-width="1" stroke-linecap="butt" stroke-linejoin="miter" stroke="rgb(0%, 0%, 0%)" stroke-opacity="1" stroke-miterlimit="1.154701" d="M 693.269531 777.082031 L 693.269531 777.082031 "/>
</svg>
