<?xml version="1.0" encoding="UTF-8"?>
<svg xmlns="http://www.w3.org/2000/svg" xmlns:xlink="http://www.w3.org/1999/xlink" width="1400" height="900" viewBox="0 0 1400 900">
<defs>
<clipPath id="clip-0-21530002">
<path clip-rule="nonzero" d="M 386 16 L 425 16 L 425 50 L 386 50 Z M 386 16 "/>
</clipPath>
<clipPath id="clip-1-21530002">
<path clip-rule="nonzero" d="M 420 16 L 554 16 L 554 50 L 420 50 Z M 420 16 "/>
</clipPath>
<clipPath id="clip-2-21530002">
<path clip-rule="nonzero" d="M 16 46 L 425 46 L 425 161 L 16 161 Z M 16 46 "/>
</clipPath>
<clipPath id="clip-3-21530002">
<path clip-rule="nonzero" d="M 386 16 L 425 16 L 425 50 L 386 50 Z M 386 16 "/>
</clipPath>
<clipPath id="clip-4-21530002">
<path clip-rule="nonzero" d="M 1342 16 L 1384 16 L 1384 90 L 1342 90 Z M 1342 16 "/>
</clipPath>
<clipPath id="clip-5-21530002">
<path clip-rule="nonzero" d="M 420 16 L 554 16 L 554 50 L 420 50 Z M 420 16 "/>
</clipPath>
<clipPath id="clip-6-21530002">
<path clip-rule="nonzero" d="M 624 248 L 1384 248 L 1384 312 L 624 312 Z M 624 248 "/>
</clipPath>
<clipPath id="clip-7-21530002">
<path clip-rule="nonzero" d="M 1342 16 L 1384 16 L 1384 90 L 1342 90 Z M 1342 16 "/>
</clipPath>
<clipPath id="clip-8-21530002">
<path clip-rule="nonzero" d="M 16 46 L 425 46 L 425 161 L 16 161 Z M 16 46 "/>
</clipPath>
<clipPath id="clip-9-21530002">
<path clip-rule="nonzero" d="M 16 308 L 628 308 L 628 364 L 16 364 Z M 16 308 "/>
</clipPath>
<clipPath id="clip-10-21530002">
<path clip-rule="nonzero" d="M 624 248 L 1384 248 L 1384 312 L 624 312 Z M 624 248 "/>
</clipPath>
<clipPath id="clip-11-21530002">
<path clip-rule="nonzero" d="M 752 597 L 1384 597 L 1384 652 L 752 652 Z M 752 597 "/>
</clipPath>
<clipPath id="clip-12-21530002">
<path clip-rule="nonzero" d="M 16 308 L 628 308 L 628 364 L 16 364 Z M 16 308 "/>
</clipPath>
<clipPath id="clip-13-21530002">
<path clip-rule="nonzero" d="M 16 389 L 91 389 L 91 544 L 16 544 Z M 16 389 "/>
</clipPath>
<clipPath id="clip-14-21530002">
<path clip-rule="nonzero" d="M 16 532 L 91 532 L 91 544 L 16 544 Z M 16 532 "/>
</clipPath>
<clipPath id="clip-15-21530002">
<path clip-rule="nonzero" d="M 16 389 L 91 389 L 91 544 L 16 544 Z M 16 389 "/>
</clipPath>
<clipPath id="clip-16-21530002">
<path clip-rule="nonzero" d="M 752 597 L 1384 597 L 1384 652 L 752 652 Z M 752 597 "/>
</clipPath>
<clipPath id="clip-17-21530002">
<path clip-rule="nonzero" d="M 752 597 L 793 597 L 793 884 L 752 884 Z M 752 597 "/>
</clipPath>
<clipPath id="clip-18-21530002">
<path clip-rule="nonzero" d="M 87 735 L 611 735 L 611 884 L 87 884 Z M 87 735 "/>
</clipPath>
<clipPath id="clip-19-21530002">
<path clip-rule="nonzero" d="M 752 597 L 793 597 L 793 884 L 752 884 Z M 752 597 "/>
</clipPath>
<clipPath id="clip-20-21530002">
<path clip-rule="nonzero" d="M 16 532 L 91 532 L 91 544 L 16 544 Z M 16 532 "/>
</clipPath>
<clipPath id="clip-21-21530002">
<path clip-rule="nonzero" d="M 16 712 L 91 712 L 91 740 L 16 740 Z M 16 712 "/>
</clipPath>
<clipPath id="clip-22-21530002">
<path clip-rule="nonzero" d="M 87 735 L 611 735 L 611 884 L 87 884 Z M 87 735 "/>
</clipPath>
<clipPath id="clip-23-21530002">
<path clip-rule="nonzero" d="M 16 735 L 91 735 L 91 884 L 16 884 Z M 16 735 "/>
</clipPath>
<clipPath id="clip-24-21530002">
<path clip-rule="nonzero" d="M 16 712 L 91 712 L 91 740 L 16 740 Z M 16 712 "/>
</clipPath>
<clipPath id="clip-25-21530002">
<path clip-rule="nonzero" d="M 16 735 L 91 735 L 91 884 L 16 884 Z M 16 735 "/>
</clipPath>
</defs>
<g clip-path="url(#clip-0-21530002)">
<path fill="none" stroke-width="1" stroke-linecap="butt" stroke-linejoin="miter" stroke="rgb(0%, 0%, 0%)" stroke-opacity="1" stroke-miterlimit="1.154701" d="M 388 16 L 422.519531 47.816406 "/>
</g>
<g clip-path="url(#clip-1-21530002)">
<path fill="none" stroke-width="1" stroke-linecap="butt" stroke-linejoin="miter" stroke="rgb(0%, 0%, 0%)" stroke-opacity="1" stroke-miterlimit="1.154701" d="M 422.519531 47.816406 L 551.457031 16 "/>
</g>
<g clip-path="url(#clip-2-21530002)">
<path fill="none" stroke-width="1" stroke-linecap="butt" stroke-linejoin="miter" stroke="rgb(0%, 0%, 0%)" stroke-opacity="1" stroke-miterlimit="1.154701" d="M 16 158.835938 L 422.519531 47.816406 "/>
</g>
<g clip-path="url(#clip-3-21530002)">
<path fill="none" stroke-width="1" stroke-linecap="butt" stroke-linejoin="miter" stroke="rgb(0%, 0%, 0%)" stroke-opacity="1" stroke-miterlimit="1.154701" d="M 422.519531 47.816406 L 388 16 "/>
</g>
<g clip-path="url(#clip-4-21530002)">
<path fill="none" stroke-width="1" stroke-linecap="butt" stroke-linejoin="miter" stroke="rgb(0%, 0%, 0%)" stroke-opacity="1" stroke-miterlimit="1.154701" d="M 1343.929688 16 L 1384 87.9375 "/>
</g>
<g clip-path="url(#clip-5-21530002)">
<path fill="none" stroke-width="1" stroke-linecap="butt" stroke-linejoin="miter" stroke="rgb(0%, 0%, 0%)" stroke-opacity="1" stroke-miterlimit="1.154701" d="M 551.457031 16 L 422.519531 47.816406 "/>
</g>
<path fill="none" stroke-width="1" stroke-linecap="butt" stroke-linejoin="miter" stroke="rgb(0%, 0%, 0%)" stroke-opacity="1" stroke-miterlimit="1.154701" d="M 422.519531 47.816406 L 626.28125 309.992188 "/>
<g clip-path="url(#clip-6-21530002)">
<path fill="none" stroke-width="1" stroke-linecap="butt" stroke-linejoin="miter" stroke="rgb(0%, 0%, 0%)" stroke-opacity="1" stroke-miterlimit="1.154701" d="M 626.28125 309.992188 L 1384 250.609375 "/>
</g>
<g clip-path="url(#clip-7-21530002)">
<path fill="none" stroke-width="1" stroke-linecap="butt" stroke-linejoin="miter" stroke="rgb(0%, 0%, 0%)" stroke-opacity="1" stroke-miterlimit="1.154701" d="M 1384 87.9375 L 1343.929688 16 "/>
</g>
<g clip-path="url(#clip-8-21530002)">
<path fill="none" stroke-width="1" stroke-linecap="butt" stroke-linejoin="miter" stroke="rgb(0%, 0%, 0%)" stroke-opacity="1" stroke-miterlimit="1.154701" d="M 422.519531 47.816406 L 16 158.835938 "/>
</g>
<g clip-path="url(#clip-9-21530002)">
<path fill="none" stroke-width="1" stroke-linecap="butt" stroke-linejoin="miter" stroke="rgb(0%, 0%, 0%)" stroke-opacity="1" stroke-miterlimit="1.154701" d="M 16 361.566406 L 626.28125 309.992188 "/>
</g>
<path fill="none" stroke-width="1" stroke-linecap="butt" stroke-linejoin="miter" stroke="rgb(0%, 0%, 0%)" stroke-opacity="1" stroke-miterlimit="1.154701" d="M 626.28125 309.992188 L 422.519531 47.816406 "/>
<path fill="none" stroke-width="1" stroke-linecap="butt" stroke-linejoin="miter" stroke="rgb(0%, 0%, 0%)" stroke-opacity="1" stroke-miterlimit="1.154701" d="M 578.828125 618.371094 L 578.828125 618.371094 "/>
<g clip-path="url(#clip-10-21530002)">
<path fill="none" stroke-width="1" stroke-linecap="butt" stroke-linejoin="miter" stroke="rgb(0%, 0%, 0%)" stroke-opacity="1" stroke-miterlimit="1.154701" d="M 1384 250.609375 L 626.28125 309.992188 "/>
</g>
<path fill="none" stroke-width="1" stroke-linecap="butt" stroke-linejoin="miter" stroke="rgb(0%, 0%, 0%)" stroke-opacity="1" stroke-miterlimit="1.154701" d="M 626.28125 309.992188 L 754.035156 598.9375 "/>
<g clip-path="url(#clip-11-21530002)">
<path fill="none" stroke-width="1" stroke-linecap="butt" stroke-linejoin="miter" stroke="rgb(0%, 0%, 0%)" stroke-opacity="1" stroke-miterlimit="1.154701" d="M 754.035156 598.9375 L 1384 650.199219 "/>
</g>
<g clip-path="url(#clip-12-21530002)">
<path fill="none" stroke-width="1" stroke-linecap="butt" stroke-linejoin="miter" stroke="rgb(0%, 0%, 0%)" stroke-opacity="1" stroke-miterlimit="1.154701" d="M 626.28125 309.992188 L 16 361.566406 "/>
</g>
<g clip-path="url(#clip-13-21530002)">
<path fill="none" stroke-width="1" stroke-linecap="butt" stroke-linejoin="miter" stroke="rgb(0%, 0%, 0%)" stroke-opacity="1" stroke-miterlimit="1.154701" d="M 16 390.761719 L 89.023438 542.039062 "/>
</g>
<path fill="none" stroke-width="1" stroke-linecap="butt" stroke-linejoin="miter" stroke="rgb(0%, 0%, 0%)" stroke-opacity="1" stroke-miterlimit="1.154701" d="M 89.023438 542.039062 L 754.035156 598.9375 "/>
<path fill="none" stroke-width="1" stroke-linecap="butt" stroke-linejoin="miter" stroke="rgb(0%, 0%, 0%)" stroke-opacity="1" stroke-miterlimit="1.154701" d="M 754.035156 598.9375 L 626.28125 309.992188 "/>
<g clip-path="url(#clip-14-21530002)">
<path fill="none" stroke-width="1" stroke-linecap="butt" stroke-linejoin="miter" stroke="rgb(0%, 0%, 0%)" stroke-opacity="1" stroke-miterlimit="1.154701" d="M 16 534.574219 L 89.023438 542.039062 "/>
</g>
<g clip-path="url(#clip-15-21530002)">
<path fill="none" stroke-width="1" stroke-linecap="butt" stroke-linejoin="miter" stroke="rgb(0%, 0%, 0%)" stroke-opacity="1" stroke-miterlimit="1.154701" d="M 89.023438 542.039062 L 16 390.761719 "/>
</g>
<path fill="none" stroke-width="1" stroke-linecap="butt" stroke-linejoin="miter" stroke="rgb(0%, 0%, 0%)" stroke-opacity="1" stroke-miterlimit="1.154701" d="M 578.828125 618.371094 L 578.828125 618.371094 "/>
<g clip-path="url(#clip-16-21530002)">
<path fill="none" stroke-width="1" stroke-linecap="butt" stroke-linejoin="miter" stroke="rgb(0%, 0%, 0%)" stroke-opacity="1" stroke-miterlimit="1.154701" d="M 1384 650.199219 L 754.035156 598.9375 "/>
</g>
<g clip-path="url(#clip-17-21530002)">
<path fill="none" stroke-width="1" stroke-linecap="butt" stroke-linejoin="miter" stroke="rgb(0%, 0%, 0%)" stroke-opacity="1" stroke-miterlimit="1.154701" d="M 754.035156 598.9375 L 790.441406 884 "/>
</g>
<path fill="none" stroke-width="1" stroke-linecap="butt" stroke-linejoin="miter" stroke="rgb(0%, 0%, 0%)" stroke-opacity="1" stroke-miterlimit="1.154701" d="M 754.035156 598.9375 L 89.023438 542.039062 "/>
<path fill="none" stroke-width="1" stroke-linecap="butt" stroke-linejoin="miter" stroke="rgb(0%, 0%, 0%)" stroke-opacity="1" stroke-miterlimit="1.154701" d="M 89.023438 542.039062 L 88.867188 737.589844 "/>
<g clip-path="url(#clip-18-21530002)">
<path fill="none" stroke-width="1" stroke-linecap="butt" stroke-linejoin="miter" stroke="rgb(0%, 0%, 0%)" stroke-opacity="1" stroke-miterlimit="1.154701" d="M 88.867188 737.589844 L 608.6875 884 "/>
</g>
<g clip-path="url(#clip-19-21530002)">
<path fill="none" stroke-width="1" stroke-linecap="butt" stroke-linejoin="miter" stroke="rgb(0%, 0%, 0%)" stroke-opacity="1" stroke-miterlimit="1.154701" d="M 790.441406 884 L 754.035156 598.9375 "/>
</g>
<g clip-path="url(#clip-20-21530002)">
<path fill="none" stroke-width="1" stroke-linecap="butt" stroke-linejoin="miter" stroke="rgb(0%, 0%, 0%)" stroke-opacity="1" stroke-miterlimit="1.154701" d="M 89.023438 542.039062 L 16 534.574219 "/>
</g>
<g clip-path="url(#clip-21-21530002)">
<path fill="none" stroke-width="1" stroke-linecap="butt" stroke-linejoin="miter" stroke="rgb(0%, 0%, 0%)" stroke-opacity="1" stroke-miterlimit="1.154701" d="M 16 713.890625 L 88.867188 737.589844 "/>
</g>
<path fill="none" stroke-width="1" stroke-linecap="butt" stroke-linejoin="miter" stroke="rgb(0%, 0%, 0%)" stroke-opacity="1" stroke-miterlimit="1.154701" d="M 88.867188 737.589844 L 89.023438 542.039062 "/>
<g clip-path="url(#clip-22-21530002)">
<path fill="none" stroke-width="1" stroke-linecap="butt" stroke-linejoin="miter" stroke="rgb(0%, 0%, 0%)" stroke-opacity="1" stroke-miterlimit="1.154701" d="M 608.6875 884 L 88.867188 737.589844 "/>
</g>
<g clip-path="url(#clip-23-21530002)">
<path fill="none" stroke-width="1" stroke-linecap="butt" stroke-linejoin="miter" stroke="rgb(0%, 0%, 0%)" stroke-opacity="1" stroke-miterlimit="1.154701" d="M 88.867188 737.589844 L 16.292969 884 "/>
</g>
<g clip-path="url(#clip-24-21530002)">
<path fill="none" stroke-width="1" stroke-linecap="butt" stroke-linejoin="miter" stroke="rgb(0%, 0%, 0%)" stroke-opacity="1" stroke-miterlimit="1.154701" d="M 88.867188 737.589844 L 16 713.890625 "/>
</g>
<g clip-path="url(#clip-25-21530002)">
<path fill="none" stroke-width="1" stroke-linecap="butt" stroke-linejoin="miter" stroke="rgb(0%, 0%, 0%)" stroke-opacity="1" stroke-miterlimit="1.154701" d="M 16.292969 884 L 88.867188 737.589844 "/>
</g>
</svg>
