<?xml version="1.0" encoding="UTF-8"?>
<svg xmlns="http://www.w3.org/2000/svg" xmlns:xlink="http://www.w3.org/1999/xlink" width="1400" height="900" viewBox="0 0 1400 900">
<defs>
<clipPath id="clip-0-20ccac0e">
<path clip-rule="nonzero" d="M 16 16 L 642 16 L 642 103 L 16 103 Z M 16 16 "/>
</clipPath>
<clipPath id="clip-1-20ccac0e">
<path clip-rule="nonzero" d="M 1369 16 L 1384 16 L 1384 49 L 1369 49 Z M 1369 16 "/>
</clipPath>
<clipPath id="clip-2-20ccac0e">
<path clip-rule="nonzero" d="M 16 16 L 642 16 L 642 103 L 16 103 Z M 16 16 "/>
</clipPath>
<clipPath id="clip-3-20ccac0e">
<path clip-rule="nonzero" d="M 16 283 L 1384 283 L 1384 344 L 16 344 Z M 16 283 "/>
</clipPath>
<clipPath id="clip-4-20ccac0e">
<path clip-rule="nonzero" d="M 1369 16 L 1384 16 L 1384 49 L 1369 49 Z M 1369 16 "/>
</clipPath>
<clipPath id="clip-5-20ccac0e">
<path clip-rule="nonzero" d="M 16 283 L 1384 283 L 1384 344 L 16 344 Z M 16 283 "/>
</clipPath>
<clipPath id="clip-6-20ccac0e">
<path clip-rule="nonzero" d="M 16 553 L 1384 553 L 1384 614 L 16 614 Z M 16 553 "/>
</clipPath>
<clipPath id="clip-7-20ccac0e">
<path clip-rule="nonzero" d="M 16 771 L 880 771 L 880 884 L 16 884 Z M 16 771 "/>
</clipPath>
</defs>
<g clip-path="url(#clip-0-20ccac0e)">
<path fill="none" stroke-width="1" stroke-linecap="butt" stroke-linejoin="miter" stroke="rgb(0%, 0%, 0%)" stroke-opacity="1" stroke-miterlimit="1.154701" d="M 16 100.515625 L 639.925781 16 "/>
</g>
<g clip-path="url(#clip-1-20ccac0e)">
<path fill="none" stroke-width="1" stroke-linecap="butt" stroke-linejoin="miter" stroke="rgb(0%, 0%, 0%)" stroke-opacity="1" stroke-miterlimit="1.154701" d="M 1370.984375 16 L 1384 47.0625 "/>
</g>
<g clip-path="url(#clip-2-20ccac0e)">
<path fill="none" stroke-width="1" stroke-linecap="butt" stroke-linejoin="miter" stroke="rgb(0%, 0%, 0%)" stroke-opacity="1" stroke-miterlimit="1.154701" d="M 639.925781 16 L 16 100.515625 "/>
</g>
<g clip-path="url(#clip-3-20ccac0e)">
<path fill="none" stroke-width="1" stroke-linecap="butt" stroke-linejoin="miter" stroke="rgb(0%, 0%, 0%)" stroke-opacity="1" stroke-miterlimit="1.154701" d="M 16 342.246094 L 1384 284.941406 "/>
</g>
<g clip-path="url(#clip-4-20ccac0e)">
<path fill="none" stroke-width="1" stroke-linecap="butt" stroke-linejoin="miter" stroke="rgb(0%, 0%, 0%)" stroke-opacity="1" stroke-miterlimit="1.154701" d="M 1384 47.0625 L 1370.984375 16 "/>
</g>
<g clip-path="url(#clip-5-20ccac0e)">
<path fill="none" stroke-width="1" stroke-linecap="butt" stroke-linejoin="miter" stroke="rgb(0%, 0%, 0%)" stroke-opacity="1" stroke-miterlimit="1.154701" d="M 1384 284.941406 L 16 342.246094 "/>
</g>
<g clip-path="url(#clip-6-20ccac0e)">
<path fill="none" stroke-width="1" stroke-linecap="butt" stroke-linejoin="miter" stroke="rgb(0%, 0%, 0%)" stroke-opacity="1" stroke-miterlimit="1.154701" d="M 16 554.953125 L 1384 611.371094 "/>
<path fill="none" stroke-width="1" stroke-linecap="butt" stroke-linejoin="miter" stroke="rgb(0%, 0%, 0%)" stroke-opacity="1" stroke-miterlimit="1.154701" d="M 1384 611.371094 L 16 554.953125 "/>
</g>
<g clip-path="url(#clip-7-20ccac0e)">
<path fill="none" stroke-width="1" stroke-linecap="butt" stroke-linejoin="miter" stroke="rgb(0%, 0%, 0%)" stroke-opacity="1" stroke-miterlimit="1.154701" d="M 16 773 L 877.492188 884 "/>
<path fill="none" stroke-width="1" stroke-linecap="butt" stroke-linejoin="miter" stroke="rgb(0%, 0%, 0%)" stroke-opacity="1" stroke-miterlimit="1.154701" d="M 877.492188 884 L 16 773 "/>
</g>
<path fill="none" stroke-width="1" stroke-linecap="butt" stroke-linejoin="miter" stroke="rgb(0%, 0%, 0%)" stroke-opacity="1" stroke-miterlimit="1.154701" d="M 242.820312 46.394531 L 242.820312 46.394531 "/>
<path fill="none" stroke-width="1" stroke-linecap="butt" stroke-linejoin="miter" stroke="rgb(0%, 0%, 0%)" stroke-opacity="1" stroke-miterlimit="1.154701" d="M 428.15625 28.757812 L 428.15625 28.757812 "/>
<path fill="none" stroke-width="1" stroke-linecap="butt" stroke-linejoin="miter" stroke="rgb(0%, 0%, 0%)" stroke-opacity="1" stroke-miterlimit="1.154701" d="M 242.820312 46.394531 L 242.820312 46.394531 "/>
<path fill="none" stroke-width="1" stroke-linecap="butt" stroke-linejoin="miter" stroke="rgb(0%, 0%, 0%)" stroke-opacity="1" stroke-miterlimit="1.154701" d="M 428.15625 28.757812 L 428.15625 28.757812 "/>
<path fill="none" stroke-width="1" stroke-linecap="butt" stroke-linejoin="miter" stroke="rgb(0%, 0%, 0%)" stroke-opacity="1" stroke-miterlimit="1.154701" d="M 43.808594 324.722656 L 43.808594 324.722656 "/>
<path fill="none" stroke-width="1" stroke-linecap="butt" stroke-linejoin="miter" stroke="rgb(0%, 0%, 0%)" stroke-opacity="1" stroke-miterlimit="1.154701" d="M 43.808594 324.722656 L 43.808594 324.722656 "/>
<path fill="none" stroke-width="1" stroke-linecap="butt" stroke-linejoin="miter" stroke="rgb(0%, 0%, 0%)" stroke-opacity="1" stroke-miterlimit="1.154701" d="M 43.863281 575.28125 L 43.863281 575.28125 "/>
<path fill="none" stroke-width="1" stroke-linecap="butt" stroke-linejoin="miter" stroke="rgb(0%, 0%, 0%)" stroke-opacity="1" stroke-miterlimit="1.154701" d="M 225.863281 580.921875 L 225.863281 580.921875 "/>
<path fill="none" stroke-width="1" stroke-linecap="butt" stroke-linejoin="miter" stroke="rgb(0%, 0%, 0%)" stroke-opacity="1" stroke-miterlimit="1.154701" d="M 85.449219 576.570312 L 85.449219 576.570312 "/>
<path fill="none" stroke-width="1" stroke-linecap="butt" stroke-linejoin="miter" stroke="rgb(0%, 0%, 0%)" stroke-opacity="1" stroke-miterlimit="1.154701" d="M 43.863281 575.28125 L 43.863281 575.28125 "/>
<path fill="none" stroke-width="1" stroke-linecap="butt" stroke-linejoin="miter" stroke="rgb(0%, 0%, 0%)" stroke-opacity="1" stroke-miterlimit="1.154701" d="M 225.863281 580.921875 L 225.863281 580.921875 "/>
<path fill="none" stroke-width="1" stroke-linecap="butt" stroke-linejoin="miter" stroke="rgb(0%, 0%, 0%)" stroke-opacity="1" stroke-miterlimit="1.154701" d="M 128.3125 842.710938 L 128.3125 842.710938 "/>
<path fill="none" stroke-width="1" stroke-linecap="butt" stroke-linejoin="miter" stroke="rgb(0%, 0%, 0%)" stroke-opacity="1" stroke-miterlimit="1.154701" d="M 85.449219 576.570312 L 85.449219 576.570312 "/>
<path fill="none" stroke-width="1" stroke-linecap="butt" stroke-linejoin="miter" stroke="rgb(0%, 0%, 0%)" stroke-opacity="1" stroke-miterlimit="1.154701" d="M 279.664062 857.113281 L 279.664062 857.113281 "/>
<path fill="none" stroke-width="1" stroke-linecap="butt" stroke-linejoin="miter" stroke="rgb(0%, 0%, 0%)" stroke-opacity="1" stroke-miterlimit="1.154701" d="M 128.3125 842.710938 L 128.3125 842.710938 "/>
<path fill="none" stroke-width="1" stroke-linecap="butt" stroke-linejoin="miter" stroke="rgb(0%, 0%, 0%)" stroke-opacity="1" stroke-miterlimit="1.154701" d="M 279.664062 857.113281 L 279.664062 857.113281 "/>
</svg>
